<?xml version="1.0" encoding="us-ascii" standalone="no"?><svg xmlns="http://www.w3.org/2000/svg" xmlns:xlink="http://www.w3.org/1999/xlink" contentStyleType="text/css" height="854px" preserveAspectRatio="none" style="width:1085px;height:854px;background:#FFFFFF;" version="1.1" viewBox="0 0 1085 854" width="1085px" zoomAndPan="magnify"><defs/><g><text fill="#000000" font-family="Verdana" font-size="22" font-weight="bold" lengthAdjust="spacing" textLength="465" x="305.5" y="38.5181">Modelo de Dominio - Gesti&#243;n de Pacientes</text><!--cluster Identidad Base--><g id="cluster_Identidad Base"><path d="M617.5,62.5661 L721.5,62.5661 A3.75,3.75 0 0 1 724,65.0661 L731,87.634 L1075.5,87.634 A2.5,2.5 0 0 1 1078,90.134 L1078,285.0661 A2.5,2.5 0 0 1 1075.5,287.5661 L617.5,287.5661 A2.5,2.5 0 0 1 615,285.0661 L615,65.0661 A2.5,2.5 0 0 1 617.5,62.5661 " fill="#FFFFFF" style="stroke:#000000;stroke-width:1.0;"/><line style="stroke:#000000;stroke-width:1.0;" x1="615" x2="731" y1="87.634" y2="87.634"/><text fill="#000000" font-family="Verdana" font-size="14" font-weight="bold" lengthAdjust="spacing" textLength="103" x="619" y="79.532">Identidad Base</text></g><!--cluster Dominio Cl?nico (Paciente)--><g id="cluster_Dominio Cl&#237;nico (Paciente)"><path d="M171.5,129.5661 L354.5,129.5661 A3.75,3.75 0 0 1 357,132.0661 L364,154.634 L588.5,154.634 A2.5,2.5 0 0 1 591,157.134 L591,479.0661 A2.5,2.5 0 0 1 588.5,481.5661 L171.5,481.5661 A2.5,2.5 0 0 1 169,479.0661 L169,132.0661 A2.5,2.5 0 0 1 171.5,129.5661 " fill="#FFFFFF" style="stroke:#000000;stroke-width:1.0;"/><line style="stroke:#000000;stroke-width:1.0;" x1="169" x2="364" y1="154.634" y2="154.634"/><text fill="#000000" font-family="Verdana" font-size="14" font-weight="bold" lengthAdjust="spacing" textLength="182" x="173" y="146.532">Dominio Cl&#237;nico (Paciente)</text></g><!--cluster Preferencias y Comunicaci?n--><g id="cluster_Preferencias y Comunicaci&#243;n"><path d="M266.5,532.5661 L466.5,532.5661 A3.75,3.75 0 0 1 469,535.0661 L476,557.634 L771.5,557.634 A2.5,2.5 0 0 1 774,560.134 L774,735.0661 A2.5,2.5 0 0 1 771.5,737.5661 L266.5,737.5661 A2.5,2.5 0 0 1 264,735.0661 L264,535.0661 A2.5,2.5 0 0 1 266.5,532.5661 " fill="#FFFFFF" style="stroke:#000000;stroke-width:1.0;"/><line style="stroke:#000000;stroke-width:1.0;" x1="264" x2="476" y1="557.634" y2="557.634"/><text fill="#000000" font-family="Verdana" font-size="14" font-weight="bold" lengthAdjust="spacing" textLength="199" x="268" y="549.532">Preferencias y Comunicaci&#243;n</text></g><!--class Persona--><g id="elem_Persona"><rect codeLine="7" fill="#FFFFFF" height="170.5433" id="Persona" rx="2.5" ry="2.5" style="stroke:#000000;stroke-width:1.0;" width="211" x="631.5" y="100.5661"/><ellipse cx="707.75" cy="115.1" fill="#FFFFFF" rx="9" ry="9" style="stroke:#000000;stroke-width:1.0;"/><path d="M702.9219,120.85 L706.2656,108.6625 L709.4063,108.6625 L712.7813,120.85 L710.3125,120.85 L709.5781,117.8344 L706.0625,117.8344 L705.3125,120.85 L702.9219,120.85 Z M707.3281,112.8032 L706.5781,115.8032 L709.0938,115.8032 L708.375,112.8032 Q708.2344,112.225 708.1094,111.6782 Q707.9844,111.1157 707.8438,110.5375 Q707.7344,111.1157 707.5938,111.6782 Q707.4531,112.225 707.3281,112.8032 Z " fill="#000000"/><text fill="#000000" font-family="Verdana" font-size="14" font-style="italic" lengthAdjust="spacing" textLength="51" x="725.25" y="120.532">Persona</text><line style="stroke:#000000;stroke-width:1.0;" x1="632.5" x2="841.5" y1="129.634" y2="129.634"/><rect fill="none" height="6" style="stroke:#000000;stroke-width:1.0;" width="6" x="639.5" y="141.668"/><text fill="#000000" font-family="Verdana" font-size="14" lengthAdjust="spacing" textLength="102" x="649.5" y="148.5999">nombre: String</text><rect fill="none" height="6" style="stroke:#000000;stroke-width:1.0;" width="6" x="639.5" y="160.7359"/><text fill="#000000" font-family="Verdana" font-size="14" lengthAdjust="spacing" textLength="103" x="649.5" y="167.6679">apellido: String</text><rect fill="none" height="6" style="stroke:#000000;stroke-width:1.0;" width="6" x="639.5" y="179.8038"/><text fill="#000000" font-family="Verdana" font-size="14" lengthAdjust="spacing" textLength="71" x="649.5" y="186.7358">dni: String</text><rect fill="none" height="6" style="stroke:#000000;stroke-width:1.0;" width="6" x="639.5" y="198.8717"/><text fill="#000000" font-family="Verdana" font-size="14" lengthAdjust="spacing" textLength="86" x="649.5" y="205.8037">email: String</text><rect fill="none" height="6" style="stroke:#000000;stroke-width:1.0;" width="6" x="639.5" y="217.9396"/><text fill="#000000" font-family="Verdana" font-size="14" lengthAdjust="spacing" textLength="104" x="649.5" y="224.8716">telefono: String</text><rect fill="none" height="6" style="stroke:#000000;stroke-width:1.0;" width="6" x="639.5" y="237.0075"/><text fill="#000000" font-family="Verdana" font-size="14" lengthAdjust="spacing" textLength="111" x="649.5" y="243.9395">direccion: String</text><rect fill="none" height="6" style="stroke:#000000;stroke-width:1.0;" width="6" x="639.5" y="256.0755"/><text fill="#000000" font-family="Verdana" font-size="14" lengthAdjust="spacing" textLength="187" x="649.5" y="263.0074">fechaNacimiento: LocalDate</text></g><!--class User--><g id="elem_User"><rect codeLine="17" fill="#FFFFFF" height="156.7516" id="User" rx="2.5" ry="2.5" style="stroke:#000000;stroke-width:1.0;" width="184" x="878" y="107.5661"/><ellipse cx="941.25" cy="130.2721" fill="#FFFFFF" rx="9" ry="9" style="stroke:#000000;stroke-width:1.0;"/><path d="M940.7188,137.194 Q938.9688,137.194 937.8281,136.4596 Q936.7031,135.7096 936.1406,134.3658 Q935.5938,133.0065 935.5938,131.2096 Q935.5938,129.1783 936.25,127.7252 Q936.9063,126.2721 938.1875,125.4908 Q939.4688,124.7096 941.3438,124.7096 Q942.2344,124.7096 942.9063,124.8971 Q943.5781,125.069 944.2656,125.4127 L943.4531,127.4283 Q942.8281,127.1158 942.2813,126.9908 Q941.75,126.8658 941.2656,126.8658 Q940.0938,126.8658 939.3906,127.3971 Q938.6875,127.9283 938.3906,128.8815 Q938.0938,129.8346 938.0938,131.1002 Q938.0938,133.1158 938.8125,134.0846 Q939.5313,135.0377 941.125,135.0377 Q941.7188,135.0377 942.3438,134.8815 Q942.9688,134.7252 943.7969,134.3502 L943.7969,136.569 Q943.0625,136.8815 942.2656,137.0377 Q941.4844,137.194 940.7188,137.194 Z " fill="#000000"/><text fill="#000000" font-family="Verdana" font-size="12" font-style="italic" lengthAdjust="spacing" textLength="54" x="956.75" y="125.3942">&#171;Security&#187;</text><text fill="#000000" font-family="Verdana" font-size="14" lengthAdjust="spacing" textLength="31" x="968.25" y="143.8761">User</text><line style="stroke:#000000;stroke-width:1.0;" x1="879" x2="1061" y1="152.9781" y2="152.9781"/><rect fill="none" height="6" style="stroke:#000000;stroke-width:1.0;" width="6" x="886" y="165.0121"/><text fill="#000000" font-family="Verdana" font-size="14" lengthAdjust="spacing" textLength="71" x="896" y="171.944">id: Integer</text><rect fill="none" height="6" style="stroke:#000000;stroke-width:1.0;" width="6" x="886" y="184.08"/><text fill="#000000" font-family="Verdana" font-size="14" lengthAdjust="spacing" textLength="117" x="896" y="191.012">username: String</text><rect fill="none" height="6" style="stroke:#000000;stroke-width:1.0;" width="6" x="886" y="203.1479"/><text fill="#000000" font-family="Verdana" font-size="14" lengthAdjust="spacing" textLength="151" x="896" y="210.0799">emailVerified: Boolean</text><rect fill="none" height="6" style="stroke:#000000;stroke-width:1.0;" width="6" x="886" y="222.2158"/><text fill="#000000" font-family="Verdana" font-size="14" lengthAdjust="spacing" textLength="102" x="896" y="229.1478">role: RoleEnum</text><line style="stroke:#000000;stroke-width:1.0;" x1="879" x2="1061" y1="237.2498" y2="237.2498"/><rect fill="#FFFFFF" height="6" style="stroke:#000000;stroke-width:1.0;" width="6" x="886" y="249.2837"/><text fill="#000000" font-family="Verdana" font-size="14" lengthAdjust="spacing" textLength="160" x="896" y="256.2157">password: String (Hash)</text></g><!--class Paciente--><g id="elem_Paciente"><rect codeLine="27" fill="#FFFFFF" height="113.3396" id="Paciente" rx="2.5" ry="2.5" style="stroke:#000000;stroke-width:1.0;" width="169" x="184.5" y="352.5661"/><ellipse cx="236.75" cy="367.1" fill="#FFFFFF" rx="9" ry="9" style="stroke:#000000;stroke-width:1.0;"/><path d="M236.2188,374.0219 Q234.4688,374.0219 233.3281,373.2875 Q232.2031,372.5375 231.6406,371.1938 Q231.0938,369.8344 231.0938,368.0375 Q231.0938,366.0063 231.75,364.5532 Q232.4063,363.1 233.6875,362.3188 Q234.9688,361.5375 236.8438,361.5375 Q237.7344,361.5375 238.4063,361.725 Q239.0781,361.8969 239.7656,362.2407 L238.9531,364.2563 Q238.3281,363.9438 237.7813,363.8188 Q237.25,363.6938 236.7656,363.6938 Q235.5938,363.6938 234.8906,364.225 Q234.1875,364.7563 233.8906,365.7094 Q233.5938,366.6625 233.5938,367.9282 Q233.5938,369.9438 234.3125,370.9125 Q235.0313,371.8657 236.625,371.8657 Q237.2188,371.8657 237.8438,371.7094 Q238.4688,371.5532 239.2969,371.1782 L239.2969,373.3969 Q238.5625,373.7094 237.7656,373.8657 Q236.9844,374.0219 236.2188,374.0219 Z " fill="#000000"/><text fill="#000000" font-family="Verdana" font-size="14" lengthAdjust="spacing" textLength="57" x="254.25" y="372.532">Paciente</text><line style="stroke:#000000;stroke-width:1.0;" x1="185.5" x2="352.5" y1="381.634" y2="381.634"/><rect fill="none" height="6" style="stroke:#000000;stroke-width:1.0;" width="6" x="192.5" y="393.668"/><text fill="#000000" font-family="Verdana" font-size="14" lengthAdjust="spacing" textLength="71" x="202.5" y="400.5999">id: Integer</text><rect fill="none" height="6" style="stroke:#000000;stroke-width:1.0;" width="6" x="192.5" y="412.7359"/><text fill="#000000" font-family="Verdana" font-size="14" lengthAdjust="spacing" textLength="123" x="202.5" y="419.6679">nroAfiliado: String</text><rect fill="none" height="6" style="stroke:#000000;stroke-width:1.0;" width="6" x="192.5" y="431.8038"/><text fill="#000000" font-family="Verdana" font-size="14" lengthAdjust="spacing" textLength="136" x="202.5" y="438.7358">fechaAlta: LocalDate</text><rect fill="none" height="6" style="stroke:#000000;stroke-width:1.0;" width="6" x="192.5" y="450.8717"/><text fill="#000000" font-family="Verdana" font-size="14" lengthAdjust="spacing" textLength="145" x="202.5" y="457.8037">observaciones: String</text></g><!--class Persona--><g id="elem_Persona"><rect fill="#FFFFFF" height="37.0679" id="Persona" rx="2.5" ry="2.5" style="stroke:#000000;stroke-width:1.0;" width="82" x="228" y="167.5661"/><ellipse cx="241" cy="182.1" fill="#FFFFFF" rx="9" ry="9" style="stroke:#000000;stroke-width:1.0;"/><path d="M240.4688,189.0219 Q238.7188,189.0219 237.5781,188.2875 Q236.4531,187.5375 235.8906,186.1938 Q235.3438,184.8344 235.3438,183.0375 Q235.3438,181.0063 236,179.5532 Q236.6563,178.1 237.9375,177.3188 Q239.2188,176.5375 241.0938,176.5375 Q241.9844,176.5375 242.6563,176.725 Q243.3281,176.8969 244.0156,177.2407 L243.2031,179.2563 Q242.5781,178.9438 242.0313,178.8188 Q241.5,178.6938 241.0156,178.6938 Q239.8438,178.6938 239.1406,179.225 Q238.4375,179.7563 238.1406,180.7094 Q237.8438,181.6625 237.8438,182.9282 Q237.8438,184.9438 238.5625,185.9125 Q239.2813,186.8657 240.875,186.8657 Q241.4688,186.8657 242.0938,186.7094 Q242.7188,186.5532 243.5469,186.1782 L243.5469,188.3969 Q242.8125,188.7094 242.0156,188.8657 Q241.2344,189.0219 240.4688,189.0219 Z " fill="#000000"/><text fill="#000000" font-family="Verdana" font-size="14" lengthAdjust="spacing" textLength="54" x="253" y="187.532">Persona</text><line style="stroke:#000000;stroke-width:1.0;" x1="229" x2="309" y1="196.634" y2="196.634"/></g><!--class ObraSocial--><g id="elem_ObraSocial"><rect codeLine="34" fill="#FFFFFF" height="113.3396" id="ObraSocial" rx="2.5" ry="2.5" style="stroke:#000000;stroke-width:1.0;" width="126" x="449" y="352.5661"/><ellipse cx="473.25" cy="367.1" fill="#FFFFFF" rx="9" ry="9" style="stroke:#000000;stroke-width:1.0;"/><path d="M472.7188,374.0219 Q470.9688,374.0219 469.8281,373.2875 Q468.7031,372.5375 468.1406,371.1938 Q467.5938,369.8344 467.5938,368.0375 Q467.5938,366.0063 468.25,364.5532 Q468.9063,363.1 470.1875,362.3188 Q471.4688,361.5375 473.3438,361.5375 Q474.2344,361.5375 474.9063,361.725 Q475.5781,361.8969 476.2656,362.2407 L475.4531,364.2563 Q474.8281,363.9438 474.2813,363.8188 Q473.75,363.6938 473.2656,363.6938 Q472.0938,363.6938 471.3906,364.225 Q470.6875,364.7563 470.3906,365.7094 Q470.0938,366.6625 470.0938,367.9282 Q470.0938,369.9438 470.8125,370.9125 Q471.5313,371.8657 473.125,371.8657 Q473.7188,371.8657 474.3438,371.7094 Q474.9688,371.5532 475.7969,371.1782 L475.7969,373.3969 Q475.0625,373.7094 474.2656,373.8657 Q473.4844,374.0219 472.7188,374.0219 Z " fill="#000000"/><text fill="#000000" font-family="Verdana" font-size="14" lengthAdjust="spacing" textLength="73" x="487.75" y="372.532">ObraSocial</text><line style="stroke:#000000;stroke-width:1.0;" x1="450" x2="574" y1="381.634" y2="381.634"/><rect fill="none" height="6" style="stroke:#000000;stroke-width:1.0;" width="6" x="457" y="393.668"/><text fill="#000000" font-family="Verdana" font-size="14" lengthAdjust="spacing" textLength="71" x="467" y="400.5999">id: Integer</text><rect fill="none" height="6" style="stroke:#000000;stroke-width:1.0;" width="6" x="457" y="412.7359"/><text fill="#000000" font-family="Verdana" font-size="14" lengthAdjust="spacing" textLength="102" x="467" y="419.6679">nombre: String</text><rect fill="none" height="6" style="stroke:#000000;stroke-width:1.0;" width="6" x="457" y="431.8038"/><text fill="#000000" font-family="Verdana" font-size="14" lengthAdjust="spacing" textLength="94" x="467" y="438.7358">codigo: String</text><rect fill="none" height="6" style="stroke:#000000;stroke-width:1.0;" width="6" x="457" y="450.8717"/><text fill="#000000" font-family="Verdana" font-size="14" lengthAdjust="spacing" textLength="101" x="467" y="457.8037">activa: Boolean</text></g><!--class PreferenciaHoraria--><g id="elem_PreferenciaHoraria"><rect codeLine="43" fill="#FFFFFF" height="102.2717" id="PreferenciaHoraria" rx="2.5" ry="2.5" style="stroke:#000000;stroke-width:1.0;" width="276" x="280" y="595.0661"/><ellipse cx="350.75" cy="609.6" fill="#FFFFFF" rx="9" ry="9" style="stroke:#000000;stroke-width:1.0;"/><path d="M350.2188,616.5219 Q348.4688,616.5219 347.3281,615.7875 Q346.2031,615.0375 345.6406,613.6938 Q345.0938,612.3344 345.0938,610.5375 Q345.0938,608.5063 345.75,607.0532 Q346.4063,605.6 347.6875,604.8188 Q348.9688,604.0375 350.8438,604.0375 Q351.7344,604.0375 352.4063,604.225 Q353.0781,604.3969 353.7656,604.7407 L352.9531,606.7563 Q352.3281,606.4438 351.7813,606.3188 Q351.25,606.1938 350.7656,606.1938 Q349.5938,606.1938 348.8906,606.725 Q348.1875,607.2563 347.8906,608.2094 Q347.5938,609.1625 347.5938,610.4282 Q347.5938,612.4438 348.3125,613.4125 Q349.0313,614.3657 350.625,614.3657 Q351.2188,614.3657 351.8438,614.2094 Q352.4688,614.0532 353.2969,613.6782 L353.2969,615.8969 Q352.5625,616.2094 351.7656,616.3657 Q350.9844,616.5219 350.2188,616.5219 Z " fill="#000000"/><text fill="#000000" font-family="Verdana" font-size="14" lengthAdjust="spacing" textLength="127" x="368.25" y="615.032">PreferenciaHoraria</text><line style="stroke:#000000;stroke-width:1.0;" x1="281" x2="555" y1="624.134" y2="624.134"/><rect fill="none" height="6" style="stroke:#000000;stroke-width:1.0;" width="6" x="288" y="636.168"/><text fill="#000000" font-family="Verdana" font-size="14" lengthAdjust="spacing" textLength="71" x="298" y="643.0999">id: Integer</text><rect fill="none" height="6" style="stroke:#000000;stroke-width:1.0;" width="6" x="288" y="655.2359"/><text fill="#000000" font-family="Verdana" font-size="14" lengthAdjust="spacing" textLength="159" x="298" y="662.1679">diaSemana: DiaSemana</text><line style="stroke:#000000;stroke-width:1.0;" x1="281" x2="555" y1="670.2698" y2="670.2698"/><rect fill="#FFFFFF" height="6" style="stroke:#000000;stroke-width:1.0;" width="6" x="288" y="682.3038"/><text fill="#000000" font-family="Verdana" font-size="14" lengthAdjust="spacing" textLength="252" x="298" y="689.2358">rangoHorario: Rango (Ma&#241;ana/Tarde)</text></g><!--class Notificacion--><g id="elem_Notificacion"><rect codeLine="49" fill="#FFFFFF" height="151.4754" id="Notificacion" rx="2.5" ry="2.5" style="stroke:#000000;stroke-width:1.0;" width="167" x="591.5" y="570.5661"/><ellipse cx="631.25" cy="585.1" fill="#FFFFFF" rx="9" ry="9" style="stroke:#000000;stroke-width:1.0;"/><path d="M630.7188,592.0219 Q628.9688,592.0219 627.8281,591.2875 Q626.7031,590.5375 626.1406,589.1938 Q625.5938,587.8344 625.5938,586.0375 Q625.5938,584.0063 626.25,582.5532 Q626.9063,581.1 628.1875,580.3188 Q629.4688,579.5375 631.3438,579.5375 Q632.2344,579.5375 632.9063,579.725 Q633.5781,579.8969 634.2656,580.2407 L633.4531,582.2563 Q632.8281,581.9438 632.2813,581.8188 Q631.75,581.6938 631.2656,581.6938 Q630.0938,581.6938 629.3906,582.225 Q628.6875,582.7563 628.3906,583.7094 Q628.0938,584.6625 628.0938,585.9282 Q628.0938,587.9438 628.8125,588.9125 Q629.5313,589.8657 631.125,589.8657 Q631.7188,589.8657 632.3438,589.7094 Q632.9688,589.5532 633.7969,589.1782 L633.7969,591.3969 Q633.0625,591.7094 632.2656,591.8657 Q631.4844,592.0219 630.7188,592.0219 Z " fill="#000000"/><text fill="#000000" font-family="Verdana" font-size="14" lengthAdjust="spacing" textLength="80" x="648.75" y="590.532">Notificacion</text><line style="stroke:#000000;stroke-width:1.0;" x1="592.5" x2="757.5" y1="599.634" y2="599.634"/><rect fill="none" height="6" style="stroke:#000000;stroke-width:1.0;" width="6" x="599.5" y="611.668"/><text fill="#000000" font-family="Verdana" font-size="14" lengthAdjust="spacing" textLength="71" x="609.5" y="618.5999">id: Integer</text><rect fill="none" height="6" style="stroke:#000000;stroke-width:1.0;" width="6" x="599.5" y="630.7359"/><text fill="#000000" font-family="Verdana" font-size="14" lengthAdjust="spacing" textLength="84" x="609.5" y="637.6679">titulo: String</text><rect fill="none" height="6" style="stroke:#000000;stroke-width:1.0;" width="6" x="599.5" y="649.8038"/><text fill="#000000" font-family="Verdana" font-size="14" lengthAdjust="spacing" textLength="106" x="609.5" y="656.7358">mensaje: String</text><rect fill="none" height="6" style="stroke:#000000;stroke-width:1.0;" width="6" x="599.5" y="668.8717"/><text fill="#000000" font-family="Verdana" font-size="14" lengthAdjust="spacing" textLength="95" x="609.5" y="675.8037">leida: Boolean</text><rect fill="none" height="6" style="stroke:#000000;stroke-width:1.0;" width="6" x="599.5" y="687.9396"/><text fill="#000000" font-family="Verdana" font-size="14" lengthAdjust="spacing" textLength="143" x="609.5" y="694.8716">tipo: TipoNotificacion</text><rect fill="none" height="6" style="stroke:#000000;stroke-width:1.0;" width="6" x="599.5" y="707.0075"/><text fill="#000000" font-family="Verdana" font-size="14" lengthAdjust="spacing" textLength="143" x="609.5" y="713.9395">fecha: LocalDateTime</text></g><!--class Turno--><g id="elem_Turno"><rect codeLine="66" fill="#FFFFFF" height="53.412" id="Turno" rx="2.5" ry="2.5" style="stroke:#000000;stroke-width:1.0;" width="92" x="12" y="619.5661"/><ellipse cx="25" cy="642.2721" fill="#FFFFFF" rx="9" ry="9" style="stroke:#000000;stroke-width:1.0;"/><path d="M24.4688,649.194 Q22.7188,649.194 21.5781,648.4596 Q20.4531,647.7096 19.8906,646.3658 Q19.3438,645.0065 19.3438,643.2096 Q19.3438,641.1783 20,639.7252 Q20.6563,638.2721 21.9375,637.4908 Q23.2188,636.7096 25.0938,636.7096 Q25.9844,636.7096 26.6563,636.8971 Q27.3281,637.069 28.0156,637.4127 L27.2031,639.4283 Q26.5781,639.1158 26.0313,638.9908 Q25.5,638.8658 25.0156,638.8658 Q23.8438,638.8658 23.1406,639.3971 Q22.4375,639.9283 22.1406,640.8815 Q21.8438,641.8346 21.8438,643.1002 Q21.8438,645.1158 22.5625,646.0846 Q23.2813,647.0377 24.875,647.0377 Q25.4688,647.0377 26.0938,646.8815 Q26.7188,646.7252 27.5469,646.3502 L27.5469,648.569 Q26.8125,648.8815 26.0156,649.0377 Q25.2344,649.194 24.4688,649.194 Z " fill="#000000"/><text fill="#000000" font-family="Verdana" font-size="12" font-style="italic" lengthAdjust="spacing" textLength="68" x="35" y="637.3942">&#171;Referencia&#187;</text><text fill="#000000" font-family="Verdana" font-size="14" lengthAdjust="spacing" textLength="40" x="49" y="655.8761">Turno</text><line style="stroke:#000000;stroke-width:1.0;" x1="13" x2="103" y1="664.9781" y2="664.9781"/></g><!--class ListaEspera--><g id="elem_ListaEspera"><rect codeLine="67" fill="#FFFFFF" height="53.412" id="ListaEspera" rx="2.5" ry="2.5" style="stroke:#000000;stroke-width:1.0;" width="105" x="139.5" y="619.5661"/><ellipse cx="152.5" cy="642.2721" fill="#FFFFFF" rx="9" ry="9" style="stroke:#000000;stroke-width:1.0;"/><path d="M151.9688,649.194 Q150.2188,649.194 149.0781,648.4596 Q147.9531,647.7096 147.3906,646.3658 Q146.8438,645.0065 146.8438,643.2096 Q146.8438,641.1783 147.5,639.7252 Q148.1563,638.2721 149.4375,637.4908 Q150.7188,636.7096 152.5938,636.7096 Q153.4844,636.7096 154.1563,636.8971 Q154.8281,637.069 155.5156,637.4127 L154.7031,639.4283 Q154.0781,639.1158 153.5313,638.9908 Q153,638.8658 152.5156,638.8658 Q151.3438,638.8658 150.6406,639.3971 Q149.9375,639.9283 149.6406,640.8815 Q149.3438,641.8346 149.3438,643.1002 Q149.3438,645.1158 150.0625,646.0846 Q150.7813,647.0377 152.375,647.0377 Q152.9688,647.0377 153.5938,646.8815 Q154.2188,646.7252 155.0469,646.3502 L155.0469,648.569 Q154.3125,648.8815 153.5156,649.0377 Q152.7344,649.194 151.9688,649.194 Z " fill="#000000"/><text fill="#000000" font-family="Verdana" font-size="12" font-style="italic" lengthAdjust="spacing" textLength="68" x="169" y="637.3942">&#171;Referencia&#187;</text><text fill="#000000" font-family="Verdana" font-size="14" lengthAdjust="spacing" textLength="77" x="164.5" y="655.8761">ListaEspera</text><line style="stroke:#000000;stroke-width:1.0;" x1="140.5" x2="243.5" y1="664.9781" y2="664.9781"/></g><g id="elem_GMN22"><path d="M610,359.5661 L610,458.0962 L860,458.0962 L860,369.5661 L850,359.5661 L610,359.5661 " fill="#FFFFFF" style="stroke:#000000;stroke-width:1.0;"/><path d="M850,359.5661 L850,369.5661 L860,369.5661 L850,359.5661 " fill="#FFFFFF" style="stroke:#000000;stroke-width:1.0;"/><text fill="#000000" font-family="Verdana" font-size="13" font-weight="bold" lengthAdjust="spacing" textLength="117" x="616" y="378.4631">Regla de Negocio:</text><text fill="#000000" font-family="Verdana" font-size="13" lengthAdjust="spacing" textLength="229" x="616" y="396.1691">El Paciente es la entidad central para la</text><text fill="#000000" font-family="Verdana" font-size="13" lengthAdjust="spacing" textLength="180" x="616" y="413.8751">facturaci&#243;n y la historia cl&#237;nica.</text><text fill="#000000" font-family="Verdana" font-size="13" lengthAdjust="spacing" textLength="222" x="616" y="431.5811">Puede existir sin un Usuario asociado</text><text fill="#000000" font-family="Verdana" font-size="13" lengthAdjust="spacing" textLength="141" x="616" y="449.2872">(gesti&#243;n por ventanilla).</text></g><g id="elem_GMN25"><path d="M322.5,784.5661 L322.5,847.6841 A0,0 0 0 0 322.5,847.6841 L513.5,847.6841 A0,0 0 0 0 513.5,847.6841 L513.5,794.5661 L503.5,784.5661 L422,784.5661 L418,697.4761 L414,784.5661 L322.5,784.5661 A0,0 0 0 0 322.5,784.5661 " fill="#FFFFFF" style="stroke:#000000;stroke-width:1.0;"/><path d="M503.5,784.5661 L503.5,794.5661 L513.5,794.5661 L503.5,784.5661 " fill="#FFFFFF" style="stroke:#000000;stroke-width:1.0;"/><text fill="#000000" font-family="Verdana" font-size="13" lengthAdjust="spacing" textLength="170" x="328.5" y="803.4631">Utilizado por el algoritmo de</text><text fill="#000000" font-family="Verdana" font-size="13" lengthAdjust="spacing" textLength="164" x="328.5" y="821.1691">Lista de Espera para ofrecer</text><text fill="#000000" font-family="Verdana" font-size="13" lengthAdjust="spacing" textLength="108" x="328.5" y="838.8751">turnos relevantes.</text></g><!--reverse link Persona to Paciente--><g id="link_Persona_Paciente"><path d="M269,222.7761 C269,254.4261 269,303.9161 269,352.4661 " fill="none" id="Persona-backto-Paciente" style="stroke:#000000;stroke-width:1.0;"/><polygon fill="none" points="269,204.7761,263,222.7761,275,222.7761,269,204.7761" style="stroke:#000000;stroke-width:1.0;"/></g><!--reverse link User to Paciente--><g id="link_User_Paciente"><path codeLine="60" d="M899.9544,268.761 C886.4244,280.781 875.9,287.7761 860,295.5661 C687.66,379.9761 618.84,308.7661 432,352.5661 C406.1,358.6361 378.5,367.1961 353.53,375.7761 " fill="none" id="User-backto-Paciente" style="stroke:#000000;stroke-width:1.0;"/><polygon fill="#000000" points="904.44,264.7761,895.055,267.7631,900.702,268.0969,900.3683,273.7439,904.44,264.7761" style="stroke:#000000;stroke-width:1.0;"/><text fill="#000000" font-family="Verdana" font-size="13" lengthAdjust="spacing" textLength="160" x="840" y="318.4631">vinculado a (cuenta digital)</text><text fill="#000000" font-family="Verdana" font-size="13" lengthAdjust="spacing" textLength="20" x="877.9466" y="286.2087">0..1</text></g><!--link Paciente to ObraSocial--><g id="link_Paciente_ObraSocial"><path codeLine="61" d="M353.65,409.0661 C384.88,409.0661 413.7,409.0661 442.71,409.0661 " fill="none" id="Paciente-to-ObraSocial" style="stroke:#000000;stroke-width:1.0;"/><polygon fill="#000000" points="448.71,409.0661,439.71,405.0661,443.71,409.0661,439.71,413.0661,448.71,409.0661" style="stroke:#000000;stroke-width:1.0;"/><text fill="#000000" font-family="Verdana" font-size="13" lengthAdjust="spacing" textLength="59" x="371.75" y="401.9631">cobertura</text><text fill="#000000" font-family="Verdana" font-size="13" lengthAdjust="spacing" textLength="20" x="421.152" y="423.8586">0..1</text></g><!--reverse link Paciente to PreferenciaHoraria--><g id="link_Paciente_PreferenciaHoraria"><path codeLine="62" d="M310.7351,475.8911 C335.6051,515.1211 362.2,557.0561 386.24,594.9761 " fill="none" id="Paciente-backto-PreferenciaHoraria" style="stroke:#000000;stroke-width:1.0;"/><polygon fill="#000000" points="304.31,465.7561,304.1442,472.9653,310.7351,475.8911,310.9009,468.6819,304.31,465.7561" style="stroke:#000000;stroke-width:1.0;"/><text fill="#000000" font-family="Verdana" font-size="13" lengthAdjust="spacing" textLength="37" x="335" y="512.4631">define</text><text fill="#000000" font-family="Verdana" font-size="13" lengthAdjust="spacing" textLength="20" x="360.1065" y="583.1527">0..*</text></g><!--reverse link Paciente to Notificacion--><g id="link_Paciente_Notificacion"><path codeLine="63" d="M364.5755,460.9271 C389.3255,473.0571 405.95,480.1261 432,489.5661 C493.11,511.7161 518.84,490.1761 574,524.5661 C593.11,536.4761 610.39,553.2261 625.04,570.4561 " fill="none" id="Paciente-backto-Notificacion" style="stroke:#000000;stroke-width:1.0;"/><polygon fill="#000000" points="353.8,455.6461,357.4274,461.8784,364.5755,460.9271,360.9481,454.6948,353.8,455.6461" style="stroke:#000000;stroke-width:1.0;"/><text fill="#000000" font-family="Verdana" font-size="13" lengthAdjust="spacing" textLength="36" x="559" y="512.4631">recibe</text><text fill="#000000" font-family="Verdana" font-size="13" lengthAdjust="spacing" textLength="20" x="598.8566" y="558.6911">0..*</text></g><!--reverse link Paciente to Turno--><g id="link_Paciente_Turno"><path codeLine="69" d="M180.3165,469.3802 C158.1365,486.5602 140.1,503.0161 122,524.5661 C97.62,553.5861 78.72,593.4061 67.97,619.1861 " fill="none" id="Paciente-backto-Turno" style="stroke:#000000;stroke-width:1.0;"/><polygon fill="#000000" points="185.06,465.7061,175.4953,468.055,181.1071,468.7679,180.3942,474.3796,185.06,465.7061" style="stroke:#000000;stroke-width:1.0;"/><text fill="#000000" font-family="Verdana" font-size="13" lengthAdjust="spacing" textLength="41" x="148" y="512.4631">solicita</text><text fill="#000000" font-family="Verdana" font-size="13" lengthAdjust="spacing" textLength="7" x="169.4526" y="467.3599">1</text><text fill="#000000" font-family="Verdana" font-size="13" lengthAdjust="spacing" textLength="7" x="62.4662" y="607.9355">*</text></g><!--reverse link Paciente to ListaEspera--><g id="link_Paciente_ListaEspera"><path codeLine="70" d="M248.8819,471.4578 C232.9619,520.0478 212.45,582.6561 200.43,619.3461 " fill="none" id="Paciente-backto-ListaEspera" style="stroke:#000000;stroke-width:1.0;"/><polygon fill="#000000" points="250.75,465.7561,244.1466,473.0633,249.1932,470.5076,251.749,475.5541,250.75,465.7561" style="stroke:#000000;stroke-width:1.0;"/><text fill="#000000" font-family="Verdana" font-size="13" lengthAdjust="spacing" textLength="42" x="240" y="512.4631">en cola</text><text fill="#000000" font-family="Verdana" font-size="13" lengthAdjust="spacing" textLength="7" x="241.0992" y="487.6205">1</text><text fill="#000000" font-family="Verdana" font-size="13" lengthAdjust="spacing" textLength="7" x="194.6317" y="607.6941">*</text></g><!--link Paciente to GMN22--><g id="link_Paciente_GMN22"><path d="M353.91,359.6961 C383.21,345.2361 416.88,331.3661 449.5,324.0661 C503.28,312.0361 520,310.8461 573.5,324.0661 C603.03,331.3661 633.12,345.1361 659.2,359.5061 " fill="none" id="Paciente-GMN22" style="stroke:#000000;stroke-width:1.0;stroke-dasharray:7.0,7.0;"/></g><!--SRC=[ZLN1Rjiu4BthAwQ-h6t0sTsh41Xeas1ReCq6Zjlxc1h9qr8SWQIyoHRzf1wA_OJys0vbEPPT5OWEiirv7C-yzpXy5RTK4pGMsMLRBWYeRk8Zr1ItKeGiYnmjmGSfo0fe-5fgTYomWByeH7xwpwNLEpHCBf9kQD1ymOfWygxG5IwmW3SOQ09VCz07Do5wD16CnH3WZdmGXtqmFGjmKcyyvN0VFRjg4C26hEL2HaA5uv5Lgf7jo7eaIwMuqKJioHWMDn8hoMpnLbkjKxEw-xqOjDSOgGDzoxgFVMCV0tculBmdqtgEZylbIOjSvF1E-Qh83rPRtUEm7ckzqPp_Y2yE8PY-nR2TdVVwYJoNJ0fx8s89tG3WTI67bRvlN5lt5NyR27QGzie-VNTi1AO7MMS7zNhH-cMWXqYk65Tnl4NdvNN9bd5KnOxWrpRYERNxi6oKe1qcTIYSR3-X_k-DntinZFOb1VtAR4OAhiQALFFo3ayPFYNopbD9dfoM4E0HhgHkbK-jMq_B6PD7v5lnwFab71QCzwgsqngk3r-7EgEhP9zDor-bNp3zW4y_5FRx6dr1ivyvkvMenZ4TjoyeGQT2QyV8gSa5_3p6foMT1ME-ZDnefhM-XqMSksBWY3NNT6JzDrYHxJsXVB9osQ3LIVJiqaNRB9Om-UFYui_9_bpci5DSQzM5W30rhU9GUQquefqDTdgkjl6uUU2iN0so8HzRZqVyVB7eeFF9cBAvJigI7OtYJmJ8GOSGR-YikxLA6tPwrb9_CBqIpV4GPPRjDLottedEdDNpFo-NVUWzXuWteI6Fvu1ZDHFjy39LfENiS-KGnB9HLiPHmxGva5DEB6QP4yLrr86KpzEYasm-Nr5bCTqPjrGfbPBFvrtanWxcIW357AuFer-yKjwW_etTMxtKKwZKTqTAZvYYjrgB99hDVdpXHGUyQobTQWyQPG-17RHEJT2cqm4OafY5TCXfTRZG6l6mIvPmR2tEBZ8TSf2QwblRI8nITxtzf7ANwcFK4VTlSbTAHHRGLbfRhDCLsY4wvX8BFNjTRrAgxFqvYqc0e3wmjCDqimwg-1y0]--></g></svg>