<?xml version="1.0" encoding="us-ascii" standalone="no"?><svg xmlns="http://www.w3.org/2000/svg" xmlns:xlink="http://www.w3.org/1999/xlink" contentStyleType="text/css" height="728px" preserveAspectRatio="none" style="width:887px;height:728px;background:#FFFFFF;" version="1.1" viewBox="0 0 887 728" width="887px" zoomAndPan="magnify"><defs/><g><text fill="#000000" font-family="Verdana" font-size="22" font-weight="bold" lengthAdjust="spacing" textLength="580" x="149" y="38.5181">Modelo de Dominio - Infraestructura de Salud (CAPS)</text><!--cluster Infraestructura F?sica--><g id="cluster_Infraestructura F&#237;sica"><path d="M13.5,62.5661 L161.5,62.5661 A3.75,3.75 0 0 1 164,65.0661 L171,87.634 L512.5,87.634 A2.5,2.5 0 0 1 515,90.134 L515,520.0661 A2.5,2.5 0 0 1 512.5,522.5661 L13.5,522.5661 A2.5,2.5 0 0 1 11,520.0661 L11,65.0661 A2.5,2.5 0 0 1 13.5,62.5661 " fill="#FFFFFF" style="stroke:#000000;stroke-width:1.0;"/><line style="stroke:#000000;stroke-width:1.0;" x1="11" x2="171" y1="87.634" y2="87.634"/><text fill="#000000" font-family="Verdana" font-size="14" font-weight="bold" lengthAdjust="spacing" textLength="147" x="15" y="79.532">Infraestructura F&#237;sica</text></g><!--cluster Cat?logo M?dico--><g id="cluster_Cat&#225;logo M&#233;dico"><path d="M541.5,336.5661 L658.5,336.5661 A3.75,3.75 0 0 1 661,339.0661 L668,361.634 L720.5,361.634 A2.5,2.5 0 0 1 723,364.134 L723,520.0661 A2.5,2.5 0 0 1 720.5,522.5661 L541.5,522.5661 A2.5,2.5 0 0 1 539,520.0661 L539,339.0661 A2.5,2.5 0 0 1 541.5,336.5661 " fill="#FFFFFF" style="stroke:#000000;stroke-width:1.0;"/><line style="stroke:#000000;stroke-width:1.0;" x1="539" x2="668" y1="361.634" y2="361.634"/><text fill="#000000" font-family="Verdana" font-size="14" font-weight="bold" lengthAdjust="spacing" textLength="116" x="543" y="353.532">Cat&#225;logo M&#233;dico</text></g><!--cluster Recursos Humanos (Vinculaci?n)--><g id="cluster_Recursos Humanos (Vinculaci&#243;n)"><path d="M546.5,573.5661 L773.5,573.5661 A3.75,3.75 0 0 1 776,576.0661 L783,598.634 L877.5,598.634 A2.5,2.5 0 0 1 880,601.134 L880,719.0661 A2.5,2.5 0 0 1 877.5,721.5661 L546.5,721.5661 A2.5,2.5 0 0 1 544,719.0661 L544,576.0661 A2.5,2.5 0 0 1 546.5,573.5661 " fill="#FFFFFF" style="stroke:#000000;stroke-width:1.0;"/><line style="stroke:#000000;stroke-width:1.0;" x1="544" x2="783" y1="598.634" y2="598.634"/><text fill="#000000" font-family="Verdana" font-size="14" font-weight="bold" lengthAdjust="spacing" textLength="226" x="548" y="590.532">Recursos Humanos (Vinculaci&#243;n)</text></g><!--class CentroAtencion--><g id="elem_CentroAtencion"><rect codeLine="7" fill="#FFFFFF" height="170.5433" id="CentroAtencion" rx="2.5" ry="2.5" style="stroke:#000000;stroke-width:1.0;" width="153" x="345.5" y="100.5661"/><ellipse cx="367.95" cy="115.1" fill="#FFFFFF" rx="9" ry="9" style="stroke:#000000;stroke-width:1.0;"/><path d="M367.4188,122.0219 Q365.6688,122.0219 364.5281,121.2875 Q363.4031,120.5375 362.8406,119.1938 Q362.2938,117.8344 362.2938,116.0375 Q362.2938,114.0063 362.95,112.5532 Q363.6063,111.1 364.8875,110.3188 Q366.1688,109.5375 368.0438,109.5375 Q368.9344,109.5375 369.6063,109.725 Q370.2781,109.8969 370.9656,110.2407 L370.1531,112.2563 Q369.5281,111.9438 368.9813,111.8188 Q368.45,111.6938 367.9656,111.6938 Q366.7938,111.6938 366.0906,112.225 Q365.3875,112.7563 365.0906,113.7094 Q364.7938,114.6625 364.7938,115.9282 Q364.7938,117.9438 365.5125,118.9125 Q366.2313,119.8657 367.825,119.8657 Q368.4188,119.8657 369.0438,119.7094 Q369.6688,119.5532 370.4969,119.1782 L370.4969,121.3969 Q369.7625,121.7094 368.9656,121.8657 Q368.1844,122.0219 367.4188,122.0219 Z " fill="#000000"/><text fill="#000000" font-family="Verdana" font-size="14" lengthAdjust="spacing" textLength="104" x="382.05" y="120.532">CentroAtencion</text><line style="stroke:#000000;stroke-width:1.0;" x1="346.5" x2="497.5" y1="129.634" y2="129.634"/><rect fill="none" height="6" style="stroke:#000000;stroke-width:1.0;" width="6" x="353.5" y="141.668"/><text fill="#000000" font-family="Verdana" font-size="14" lengthAdjust="spacing" textLength="71" x="363.5" y="148.5999">id: Integer</text><rect fill="none" height="6" style="stroke:#000000;stroke-width:1.0;" width="6" x="353.5" y="160.7359"/><text fill="#000000" font-family="Verdana" font-size="14" lengthAdjust="spacing" textLength="102" x="363.5" y="167.6679">nombre: String</text><rect fill="none" height="6" style="stroke:#000000;stroke-width:1.0;" width="6" x="353.5" y="179.8038"/><text fill="#000000" font-family="Verdana" font-size="14" lengthAdjust="spacing" textLength="111" x="363.5" y="186.7358">direccion: String</text><rect fill="none" height="6" style="stroke:#000000;stroke-width:1.0;" width="6" x="353.5" y="198.8717"/><text fill="#000000" font-family="Verdana" font-size="14" lengthAdjust="spacing" textLength="110" x="363.5" y="205.8037">localidad: String</text><rect fill="none" height="6" style="stroke:#000000;stroke-width:1.0;" width="6" x="353.5" y="217.9396"/><text fill="#000000" font-family="Verdana" font-size="14" lengthAdjust="spacing" textLength="104" x="363.5" y="224.8716">telefono: String</text><rect fill="none" height="6" style="stroke:#000000;stroke-width:1.0;" width="6" x="353.5" y="237.0075"/><text fill="#000000" font-family="Verdana" font-size="14" lengthAdjust="spacing" textLength="129" x="363.5" y="243.9395">coordenadas: Point</text><rect fill="none" height="6" style="stroke:#000000;stroke-width:1.0;" width="6" x="353.5" y="256.0755"/><text fill="#000000" font-family="Verdana" font-size="14" lengthAdjust="spacing" textLength="101" x="363.5" y="263.0074">activo: Boolean</text></g><!--class Consultorio--><g id="elem_Consultorio"><rect codeLine="17" fill="#FFFFFF" height="132.4075" id="Consultorio" rx="2.5" ry="2.5" style="stroke:#000000;stroke-width:1.0;" width="167" x="332.5" y="374.5661"/><ellipse cx="373.75" cy="389.1" fill="#FFFFFF" rx="9" ry="9" style="stroke:#000000;stroke-width:1.0;"/><path d="M373.2188,396.0219 Q371.4688,396.0219 370.3281,395.2875 Q369.2031,394.5375 368.6406,393.1938 Q368.0938,391.8344 368.0938,390.0375 Q368.0938,388.0063 368.75,386.5532 Q369.4063,385.1 370.6875,384.3188 Q371.9688,383.5375 373.8438,383.5375 Q374.7344,383.5375 375.4063,383.725 Q376.0781,383.8969 376.7656,384.2407 L375.9531,386.2563 Q375.3281,385.9438 374.7813,385.8188 Q374.25,385.6938 373.7656,385.6938 Q372.5938,385.6938 371.8906,386.225 Q371.1875,386.7563 370.8906,387.7094 Q370.5938,388.6625 370.5938,389.9282 Q370.5938,391.9438 371.3125,392.9125 Q372.0313,393.8657 373.625,393.8657 Q374.2188,393.8657 374.8438,393.7094 Q375.4688,393.5532 376.2969,393.1782 L376.2969,395.3969 Q375.5625,395.7094 374.7656,395.8657 Q373.9844,396.0219 373.2188,396.0219 Z " fill="#000000"/><text fill="#000000" font-family="Verdana" font-size="14" lengthAdjust="spacing" textLength="77" x="391.25" y="394.532">Consultorio</text><line style="stroke:#000000;stroke-width:1.0;" x1="333.5" x2="498.5" y1="403.634" y2="403.634"/><rect fill="none" height="6" style="stroke:#000000;stroke-width:1.0;" width="6" x="340.5" y="415.668"/><text fill="#000000" font-family="Verdana" font-size="14" lengthAdjust="spacing" textLength="71" x="350.5" y="422.5999">id: Integer</text><rect fill="none" height="6" style="stroke:#000000;stroke-width:1.0;" width="6" x="340.5" y="434.7359"/><text fill="#000000" font-family="Verdana" font-size="14" lengthAdjust="spacing" textLength="111" x="350.5" y="441.6679">numero: Integer</text><rect fill="none" height="6" style="stroke:#000000;stroke-width:1.0;" width="6" x="340.5" y="453.8038"/><text fill="#000000" font-family="Verdana" font-size="14" lengthAdjust="spacing" textLength="102" x="350.5" y="460.7358">nombre: String</text><rect fill="none" height="6" style="stroke:#000000;stroke-width:1.0;" width="6" x="340.5" y="472.8717"/><text fill="#000000" font-family="Verdana" font-size="14" lengthAdjust="spacing" textLength="143" x="350.5" y="479.8037">equipamiento: String</text><rect fill="none" height="6" style="stroke:#000000;stroke-width:1.0;" width="6" x="340.5" y="491.9396"/><text fill="#000000" font-family="Verdana" font-size="14" lengthAdjust="spacing" textLength="101" x="350.5" y="498.8716">activo: Boolean</text></g><g id="elem_GMN5"><path d="M27,418.0661 L27,463.4781 A0,0 0 0 0 27,463.4781 L297,463.4781 A0,0 0 0 0 297,463.4781 L297,444.5661 L332.17,440.5661 L297,436.5661 L297,428.0661 L287,418.0661 L27,418.0661 A0,0 0 0 0 27,418.0661 " fill="#FFFFFF" style="stroke:#000000;stroke-width:1.0;"/><path d="M287,418.0661 L287,428.0661 L297,428.0661 L287,418.0661 " fill="#FFFFFF" style="stroke:#000000;stroke-width:1.0;"/><text fill="#000000" font-family="Verdana" font-size="13" lengthAdjust="spacing" textLength="249" x="33" y="436.9631">Representa el espacio f&#237;sico (Sala 1, Box 4).</text><text fill="#000000" font-family="Verdana" font-size="13" lengthAdjust="spacing" textLength="228" x="33" y="454.6691">Se asigna din&#225;micamente a los turnos.</text></g><!--class Especialidad--><g id="elem_Especialidad"><rect codeLine="32" fill="#FFFFFF" height="132.4075" id="Especialidad" rx="2.5" ry="2.5" style="stroke:#000000;stroke-width:1.0;" width="151" x="555.5" y="374.5661"/><ellipse cx="585.6" cy="389.1" fill="#FFFFFF" rx="9" ry="9" style="stroke:#000000;stroke-width:1.0;"/><path d="M585.0688,396.0219 Q583.3188,396.0219 582.1781,395.2875 Q581.0531,394.5375 580.4906,393.1938 Q579.9438,391.8344 579.9438,390.0375 Q579.9438,388.0063 580.6,386.5532 Q581.2563,385.1 582.5375,384.3188 Q583.8188,383.5375 585.6938,383.5375 Q586.5844,383.5375 587.2563,383.725 Q587.9281,383.8969 588.6156,384.2407 L587.8031,386.2563 Q587.1781,385.9438 586.6313,385.8188 Q586.1,385.6938 585.6156,385.6938 Q584.4438,385.6938 583.7406,386.225 Q583.0375,386.7563 582.7406,387.7094 Q582.4438,388.6625 582.4438,389.9282 Q582.4438,391.9438 583.1625,392.9125 Q583.8813,393.8657 585.475,393.8657 Q586.0688,393.8657 586.6938,393.7094 Q587.3188,393.5532 588.1469,393.1782 L588.1469,395.3969 Q587.4125,395.7094 586.6156,395.8657 Q585.8344,396.0219 585.0688,396.0219 Z " fill="#000000"/><text fill="#000000" font-family="Verdana" font-size="14" lengthAdjust="spacing" textLength="85" x="601.4" y="394.532">Especialidad</text><line style="stroke:#000000;stroke-width:1.0;" x1="556.5" x2="705.5" y1="403.634" y2="403.634"/><rect fill="none" height="6" style="stroke:#000000;stroke-width:1.0;" width="6" x="563.5" y="415.668"/><text fill="#000000" font-family="Verdana" font-size="14" lengthAdjust="spacing" textLength="71" x="573.5" y="422.5999">id: Integer</text><rect fill="none" height="6" style="stroke:#000000;stroke-width:1.0;" width="6" x="563.5" y="434.7359"/><text fill="#000000" font-family="Verdana" font-size="14" lengthAdjust="spacing" textLength="102" x="573.5" y="441.6679">nombre: String</text><rect fill="none" height="6" style="stroke:#000000;stroke-width:1.0;" width="6" x="563.5" y="453.8038"/><text fill="#000000" font-family="Verdana" font-size="14" lengthAdjust="spacing" textLength="127" x="573.5" y="460.7358">descripcion: String</text><rect fill="none" height="6" style="stroke:#000000;stroke-width:1.0;" width="6" x="563.5" y="472.8717"/><text fill="#000000" font-family="Verdana" font-size="14" lengthAdjust="spacing" textLength="94" x="573.5" y="479.8037">codigo: String</text><rect fill="none" height="6" style="stroke:#000000;stroke-width:1.0;" width="6" x="563.5" y="491.9396"/><text fill="#000000" font-family="Verdana" font-size="14" lengthAdjust="spacing" textLength="101" x="573.5" y="498.8716">activa: Boolean</text></g><!--class StaffMedico--><g id="elem_StaffMedico"><rect codeLine="42" fill="#FFFFFF" height="94.2717" id="StaffMedico" rx="2.5" ry="2.5" style="stroke:#000000;stroke-width:1.0;" width="304" x="560" y="611.5661"/><ellipse cx="668.25" cy="626.1" fill="#FFFFFF" rx="9" ry="9" style="stroke:#000000;stroke-width:1.0;"/><path d="M667.7188,633.0219 Q665.9688,633.0219 664.8281,632.2875 Q663.7031,631.5375 663.1406,630.1938 Q662.5938,628.8344 662.5938,627.0375 Q662.5938,625.0063 663.25,623.5532 Q663.9063,622.1 665.1875,621.3188 Q666.4688,620.5375 668.3438,620.5375 Q669.2344,620.5375 669.9063,620.725 Q670.5781,620.8969 671.2656,621.2407 L670.4531,623.2563 Q669.8281,622.9438 669.2813,622.8188 Q668.75,622.6938 668.2656,622.6938 Q667.0938,622.6938 666.3906,623.225 Q665.6875,623.7563 665.3906,624.7094 Q665.0938,625.6625 665.0938,626.9282 Q665.0938,628.9438 665.8125,629.9125 Q666.5313,630.8657 668.125,630.8657 Q668.7188,630.8657 669.3438,630.7094 Q669.9688,630.5532 670.7969,630.1782 L670.7969,632.3969 Q670.0625,632.7094 669.2656,632.8657 Q668.4844,633.0219 667.7188,633.0219 Z " fill="#000000"/><text fill="#000000" font-family="Verdana" font-size="14" lengthAdjust="spacing" textLength="80" x="685.75" y="631.532">StaffMedico</text><line style="stroke:#000000;stroke-width:1.0;" x1="561" x2="863" y1="640.634" y2="640.634"/><rect fill="none" height="6" style="stroke:#000000;stroke-width:1.0;" width="6" x="568" y="652.668"/><text fill="#000000" font-family="Verdana" font-size="14" lengthAdjust="spacing" textLength="71" x="578" y="659.5999">id: Integer</text><text fill="#000000" font-family="Verdana" font-size="14" lengthAdjust="spacing" textLength="280" x="578" y="678.6679">note: El staff valida que un m&#233;dico pueda</text><text fill="#000000" font-family="Verdana" font-size="14" lengthAdjust="spacing" textLength="276" x="578" y="697.7358">atender una especialidad en este centro.</text></g><g id="elem_GMN18"><path d="M533.5,136.5661 L533.5,182.0661 L498.56,186.0661 L533.5,190.0661 L533.5,235.0962 A0,0 0 0 0 533.5,235.0962 L800.5,235.0962 A0,0 0 0 0 800.5,235.0962 L800.5,146.5661 L790.5,136.5661 L533.5,136.5661 A0,0 0 0 0 533.5,136.5661 " fill="#FFFFFF" style="stroke:#000000;stroke-width:1.0;"/><path d="M790.5,136.5661 L790.5,146.5661 L800.5,146.5661 L790.5,136.5661 " fill="#FFFFFF" style="stroke:#000000;stroke-width:1.0;"/><text fill="#000000" font-family="Verdana" font-size="13" font-weight="bold" lengthAdjust="spacing" textLength="117" x="539.5" y="155.4631">Regla de Negocio:</text><text fill="#000000" font-family="Verdana" font-size="13" lengthAdjust="spacing" textLength="246" x="539.5" y="173.1691">Un Centro de Atenci&#243;n define el contexto</text><text fill="#000000" font-family="Verdana" font-size="13" lengthAdjust="spacing" textLength="188" x="539.5" y="190.8751">f&#237;sico donde ocurren los turnos.</text><text fill="#000000" font-family="Verdana" font-size="13" lengthAdjust="spacing" textLength="224" x="539.5" y="208.5811">La disponibilidad horaria depende del</text><text fill="#000000" font-family="Verdana" font-size="13" lengthAdjust="spacing" textLength="191" x="539.5" y="226.2872">StaffMedico, no del Centro en s&#237;.</text></g><!--reverse link CentroAtencion to Consultorio--><g id="link_CentroAtencion_Consultorio"><path codeLine="49" d="M419.7025,283.8426 C418.9025,317.2226 418.3,342.9661 417.55,374.1761 " fill="none" id="CentroAtencion-backto-Consultorio" style="stroke:#000000;stroke-width:1.0;"/><polygon fill="#000000" points="419.99,271.8461,415.8474,277.7485,419.7025,283.8426,423.8451,277.9402,419.99,271.8461" style="stroke:#000000;stroke-width:1.0;"/><polygon fill="#000000" points="423.8809,316.4177,427.0345,307.4452,421.1583,307.3051,423.8809,316.4177" style="stroke:#000000;stroke-width:1.0;"/><text fill="#000000" font-family="Verdana" font-size="13" lengthAdjust="spacing" textLength="52" x="433" y="316.4631">contiene</text><text fill="#000000" font-family="Verdana" font-size="13" lengthAdjust="spacing" textLength="7" x="412.5681" y="293.0059">1</text><text fill="#000000" font-family="Verdana" font-size="13" lengthAdjust="spacing" textLength="20" x="396.6258" y="362.8983">1..*</text></g><!--reverse link CentroAtencion to Especialidad--><g id="link_CentroAtencion_Especialidad"><path codeLine="52" d="M499.8317,281.0901 C527.4617,314.4701 551.04,342.9661 576.87,374.1761 " fill="none" id="CentroAtencion-backto-Especialidad" style="stroke:#000000;stroke-width:1.0;"/><polygon fill="none" points="492.18,271.8461,492.9245,279.0187,499.8317,281.0901,499.0872,273.9175,492.18,271.8461" style="stroke:#000000;stroke-width:1.0;"/><polygon fill="#000000" points="534.1879,315.271,530.6851,306.429,526.1568,310.1766,534.1879,315.271" style="stroke:#000000;stroke-width:1.0;"/><text fill="#000000" font-family="Verdana" font-size="13" lengthAdjust="spacing" textLength="37" x="540" y="316.4631">ofrece</text><text fill="#000000" font-family="Verdana" font-size="13" lengthAdjust="spacing" textLength="7" x="490.2852" y="293.0059">1</text><text fill="#000000" font-family="Verdana" font-size="13" lengthAdjust="spacing" textLength="7" x="563.5667" y="362.8983">*</text></g><!--reverse link CentroAtencion to StaffMedico--><g id="link_CentroAtencion_StaffMedico"><path codeLine="53" d="M503.5813,264.1941 C509.2513,268.1241 510.13,268.3561 516,271.5661 C599.72,317.3561 659.6,257.2461 723,328.5661 C791.28,405.3761 775.72,456.9061 755,557.5661 C751.23,575.8861 743.94,594.9961 736.42,611.5461 " fill="none" id="CentroAtencion-backto-StaffMedico" style="stroke:#000000;stroke-width:1.0;"/><polygon fill="#000000" points="498.65,260.7761,503.7683,269.1906,502.7594,263.6244,508.3256,262.6155,498.65,260.7761" style="stroke:#000000;stroke-width:1.0;"/><text fill="#000000" font-family="Verdana" font-size="13" lengthAdjust="spacing" textLength="65" x="773" y="445.9631">asignado a</text><text fill="#000000" font-family="Verdana" font-size="13" lengthAdjust="spacing" textLength="7" x="506.5398" y="264.2479">1</text></g><!--reverse link Especialidad to StaffMedico--><g id="link_Especialidad_StaffMedico"><path codeLine="54" d="M645.1517,512.6952 C649.2417,529.4652 652.91,541.4861 659,557.5661 C665.89,575.7561 675.38,594.8361 684.42,611.3861 " fill="none" id="Especialidad-backto-StaffMedico" style="stroke:#000000;stroke-width:1.0;"/><polygon fill="#000000" points="643.73,506.8661,641.9764,516.5576,644.9147,511.7237,649.7486,514.662,643.73,506.8661" style="stroke:#000000;stroke-width:1.0;"/><text fill="#000000" font-family="Verdana" font-size="13" lengthAdjust="spacing" textLength="90" x="660" y="553.4631">habilitado para</text><text fill="#000000" font-family="Verdana" font-size="13" lengthAdjust="spacing" textLength="7" x="637.7395" y="528.9607">1</text></g><!--SRC=[fLHDRzD04BtxLmova4HDf4gSV40geHL855MDuCHbkZjsLgnttFseYb1_J8ySUk8dv8ynk-c74r81mWTRyUmyptjlNbx45NK4lKNZgfNH1DJryHjq55UiGrL54ot1AMko359-ovrnXc46xrtZaKBqISNaCHUNQ9E6yUBeR3cfgXxLLsm9HhidJzPtmIWSmVSAv58MGu05kUZvA99JXjrzALypCBgMhqLgoG_UEkukFDMmZDwuTb3GnfFA87jgbXLQer7lgKMorB3ZFIN5x3Kvr1XgE6FZug28AfehwNh3R0bTgTnKGshiGhAHlUZs5xnIHvx_YJ5T9jDZPqJ2VTFl7p3Voyrn913g4RWPplg8S4wzfo3W26I1WXWhJ9hY8iDON4SuF13uQtWrcJ-sBGamcDR9QXYtlkt4yav0vAtO441MmN7O72UdonZLpM1j5XZNjvPRXjFr3osVsbwOuz2JCXit_sjTA2Xl-cSMHh4sxREYugwem_dFIIKVXEcxrA5GXV5durIoejxwfvjiirb6R9fJoZJ_I2OhLSEnXP2RuAfe09U983deDbf1dqZZ5uSIA4rUAfYTUrACdFmMCrJ9tVnf_fVYTvwH7OKSwWLtFOlJUMWOdoJoaIRLJbn7XoEOpcRodC-dewsDhqL35sKt2Lx_ZduKM4OguFimEMCAu9RPjIogH3pZ3MMRfNxskdJj0DNtUwWPy9cE7VmLNXXhOkxeqMDLbOnuqwus8Td2Bz9Df-VKsl8l-95QuSJrT5egdzpz-KAtz6GbDJL69950PNdeEcxozf0gpM8Ri6oG5wTsy_8XPohqx4oUCy-yOe_UvE_tsN1vsd9oGFT05YU_VnX7SCFwRbuzXkyN]--></g></svg>