<?xml version="1.0" encoding="us-ascii" standalone="no"?><svg xmlns="http://www.w3.org/2000/svg" xmlns:xlink="http://www.w3.org/1999/xlink" contentStyleType="text/css" height="809px" preserveAspectRatio="none" style="width:1672px;height:809px;background:#FFFFFF;" version="1.1" viewBox="0 0 1672 809" width="1672px" zoomAndPan="magnify"><defs/><g><text fill="#000000" font-family="Verdana" font-size="22" font-weight="bold" lengthAdjust="spacing" textLength="569" x="547.25" y="38.5181">Modelo de Dominio - Profesionales y Disponibilidad</text><!--cluster Identidad Profesional--><g id="cluster_Identidad Profesional"><path d="M1056.5,91.0661 L1206.5,91.0661 A3.75,3.75 0 0 1 1209,93.5661 L1216,116.134 L1377.5,116.134 A2.5,2.5 0 0 1 1380,118.634 L1380,639.0661 A2.5,2.5 0 0 1 1377.5,641.5661 L1056.5,641.5661 A2.5,2.5 0 0 1 1054,639.0661 L1054,93.5661 A2.5,2.5 0 0 1 1056.5,91.0661 " fill="#FFFFFF" style="stroke:#000000;stroke-width:1.0;"/><line style="stroke:#000000;stroke-width:1.0;" x1="1054" x2="1216" y1="116.134" y2="116.134"/><text fill="#000000" font-family="Verdana" font-size="14" font-weight="bold" lengthAdjust="spacing" textLength="149" x="1058" y="108.032">Identidad Profesional</text></g><!--cluster Gesti?n de Tiempo (Agenda)--><g id="cluster_Gesti&#243;n de Tiempo (Agenda)"><path d="M13.5,62.5661 L211.5,62.5661 A3.75,3.75 0 0 1 214,65.0661 L221,87.634 L510.5,87.634 A2.5,2.5 0 0 1 513,90.134 L513,633.5661 A2.5,2.5 0 0 1 510.5,636.0661 L13.5,636.0661 A2.5,2.5 0 0 1 11,633.5661 L11,65.0661 A2.5,2.5 0 0 1 13.5,62.5661 " fill="#FFFFFF" style="stroke:#000000;stroke-width:1.0;"/><line style="stroke:#000000;stroke-width:1.0;" x1="11" x2="221" y1="87.634" y2="87.634"/><text fill="#000000" font-family="Verdana" font-size="14" font-weight="bold" lengthAdjust="spacing" textLength="197" x="15" y="79.532">Gesti&#243;n de Tiempo (Agenda)</text></g><!--cluster Infraestructura (Referencias)--><g id="cluster_Infraestructura (Referencias)"><path d="M522.5,692.5661 L721.5,692.5661 A3.75,3.75 0 0 1 724,695.0661 L731,717.634 L1013.5,717.634 A2.5,2.5 0 0 1 1016,720.134 L1016,800.0661 A2.5,2.5 0 0 1 1013.5,802.5661 L522.5,802.5661 A2.5,2.5 0 0 1 520,800.0661 L520,695.0661 A2.5,2.5 0 0 1 522.5,692.5661 " fill="#FFFFFF" style="stroke:#000000;stroke-width:1.0;"/><line style="stroke:#000000;stroke-width:1.0;" x1="520" x2="731" y1="717.634" y2="717.634"/><text fill="#000000" font-family="Verdana" font-size="14" font-weight="bold" lengthAdjust="spacing" textLength="198" x="524" y="709.532">Infraestructura (Referencias)</text></g><!--class Medico--><g id="elem_Medico"><rect codeLine="7" fill="#FFFFFF" height="102.2717" id="Medico" rx="2.5" ry="2.5" style="stroke:#000000;stroke-width:1.0;" width="254" x="1090" y="284.0661"/><ellipse cx="1188.75" cy="298.6" fill="#FFFFFF" rx="9" ry="9" style="stroke:#000000;stroke-width:1.0;"/><path d="M1188.2188,305.5219 Q1186.4688,305.5219 1185.3281,304.7875 Q1184.2031,304.0375 1183.6406,302.6938 Q1183.0938,301.3344 1183.0938,299.5375 Q1183.0938,297.5063 1183.75,296.0532 Q1184.4063,294.6 1185.6875,293.8188 Q1186.9688,293.0375 1188.8438,293.0375 Q1189.7344,293.0375 1190.4063,293.225 Q1191.0781,293.3969 1191.7656,293.7407 L1190.9531,295.7563 Q1190.3281,295.4438 1189.7813,295.3188 Q1189.25,295.1938 1188.7656,295.1938 Q1187.5938,295.1938 1186.8906,295.725 Q1186.1875,296.2563 1185.8906,297.2094 Q1185.5938,298.1625 1185.5938,299.4282 Q1185.5938,301.4438 1186.3125,302.4125 Q1187.0313,303.3657 1188.625,303.3657 Q1189.2188,303.3657 1189.8438,303.2094 Q1190.4688,303.0532 1191.2969,302.6782 L1191.2969,304.8969 Q1190.5625,305.2094 1189.7656,305.3657 Q1188.9844,305.5219 1188.2188,305.5219 Z " fill="#000000"/><text fill="#000000" font-family="Verdana" font-size="14" lengthAdjust="spacing" textLength="49" x="1206.25" y="304.032">Medico</text><line style="stroke:#000000;stroke-width:1.0;" x1="1091" x2="1343" y1="313.134" y2="313.134"/><rect fill="none" height="6" style="stroke:#000000;stroke-width:1.0;" width="6" x="1098" y="325.168"/><text fill="#000000" font-family="Verdana" font-size="14" lengthAdjust="spacing" textLength="71" x="1108" y="332.0999">id: Integer</text><rect fill="none" height="6" style="stroke:#000000;stroke-width:1.0;" width="6" x="1098" y="344.2359"/><text fill="#000000" font-family="Verdana" font-size="14" lengthAdjust="spacing" textLength="113" x="1108" y="351.1679">matricula: String</text><line style="stroke:#000000;stroke-width:1.0;" x1="1091" x2="1343" y1="359.2698" y2="359.2698"/><ellipse cx="1101" cy="374.3038" fill="none" rx="3" ry="3" style="stroke:#000000;stroke-width:1.0;"/><text fill="#000000" font-family="Verdana" font-size="14" lengthAdjust="spacing" textLength="230" x="1108" y="378.2358">especialidades: Set&lt;Especialidad&gt;</text></g><!--class Persona--><g id="elem_Persona"><rect fill="#FFFFFF" height="37.0679" id="Persona" rx="2.5" ry="2.5" style="stroke:#000000;stroke-width:1.0;" width="82" x="1176" y="129.0661"/><ellipse cx="1189" cy="143.6" fill="#FFFFFF" rx="9" ry="9" style="stroke:#000000;stroke-width:1.0;"/><path d="M1188.4688,150.5219 Q1186.7188,150.5219 1185.5781,149.7875 Q1184.4531,149.0375 1183.8906,147.6938 Q1183.3438,146.3344 1183.3438,144.5375 Q1183.3438,142.5063 1184,141.0532 Q1184.6563,139.6 1185.9375,138.8188 Q1187.2188,138.0375 1189.0938,138.0375 Q1189.9844,138.0375 1190.6563,138.225 Q1191.3281,138.3969 1192.0156,138.7407 L1191.2031,140.7563 Q1190.5781,140.4438 1190.0313,140.3188 Q1189.5,140.1938 1189.0156,140.1938 Q1187.8438,140.1938 1187.1406,140.725 Q1186.4375,141.2563 1186.1406,142.2094 Q1185.8438,143.1625 1185.8438,144.4282 Q1185.8438,146.4438 1186.5625,147.4125 Q1187.2813,148.3657 1188.875,148.3657 Q1189.4688,148.3657 1190.0938,148.2094 Q1190.7188,148.0532 1191.5469,147.6782 L1191.5469,149.8969 Q1190.8125,150.2094 1190.0156,150.3657 Q1189.2344,150.5219 1188.4688,150.5219 Z " fill="#000000"/><text fill="#000000" font-family="Verdana" font-size="14" lengthAdjust="spacing" textLength="54" x="1201" y="149.032">Persona</text><line style="stroke:#000000;stroke-width:1.0;" x1="1177" x2="1257" y1="158.134" y2="158.134"/></g><!--class StaffMedico--><g id="elem_StaffMedico"><rect codeLine="14" fill="#FFFFFF" height="132.4075" id="StaffMedico" rx="2.5" ry="2.5" style="stroke:#000000;stroke-width:1.0;" width="293" x="1070.5" y="493.5661"/><ellipse cx="1173.25" cy="508.1" fill="#FFFFFF" rx="9" ry="9" style="stroke:#000000;stroke-width:1.0;"/><path d="M1172.7188,515.0219 Q1170.9688,515.0219 1169.8281,514.2875 Q1168.7031,513.5375 1168.1406,512.1938 Q1167.5938,510.8344 1167.5938,509.0375 Q1167.5938,507.0063 1168.25,505.5532 Q1168.9063,504.1 1170.1875,503.3188 Q1171.4688,502.5375 1173.3438,502.5375 Q1174.2344,502.5375 1174.9063,502.725 Q1175.5781,502.8969 1176.2656,503.2407 L1175.4531,505.2563 Q1174.8281,504.9438 1174.2813,504.8188 Q1173.75,504.6938 1173.2656,504.6938 Q1172.0938,504.6938 1171.3906,505.225 Q1170.6875,505.7563 1170.3906,506.7094 Q1170.0938,507.6625 1170.0938,508.9282 Q1170.0938,510.9438 1170.8125,511.9125 Q1171.5313,512.8657 1173.125,512.8657 Q1173.7188,512.8657 1174.3438,512.7094 Q1174.9688,512.5532 1175.7969,512.1782 L1175.7969,514.3969 Q1175.0625,514.7094 1174.2656,514.8657 Q1173.4844,515.0219 1172.7188,515.0219 Z " fill="#000000"/><text fill="#000000" font-family="Verdana" font-size="14" lengthAdjust="spacing" textLength="80" x="1190.75" y="513.532">StaffMedico</text><line style="stroke:#000000;stroke-width:1.0;" x1="1071.5" x2="1362.5" y1="522.634" y2="522.634"/><rect fill="none" height="6" style="stroke:#000000;stroke-width:1.0;" width="6" x="1078.5" y="534.668"/><text fill="#000000" font-family="Verdana" font-size="14" lengthAdjust="spacing" textLength="71" x="1088.5" y="541.5999">id: Integer</text><rect fill="none" height="6" style="stroke:#000000;stroke-width:1.0;" width="6" x="1078.5" y="553.7359"/><text fill="#000000" font-family="Verdana" font-size="14" lengthAdjust="spacing" textLength="128" x="1088.5" y="560.6679">porcentaje: Double</text><text fill="#000000" font-family="Verdana" font-size="14" lengthAdjust="spacing" textLength="269" x="1088.5" y="579.7358">note: Representa el "Contrato" o v&#237;nculo</text><text fill="#000000" font-family="Verdana" font-size="14" lengthAdjust="spacing" textLength="242" x="1088.5" y="598.8037">del m&#233;dico con un centro espec&#237;fico</text><text fill="#000000" font-family="Verdana" font-size="14" lengthAdjust="spacing" textLength="216" x="1088.5" y="617.8716">para una especialidad concreta.</text></g><!--class DisponibilidadMedico--><g id="elem_DisponibilidadMedico"><rect codeLine="22" fill="#FFFFFF" height="83.2038" id="DisponibilidadMedico" rx="2.5" ry="2.5" style="stroke:#000000;stroke-width:1.0;" width="233" x="26.5" y="293.5661"/><ellipse cx="65.75" cy="308.1" fill="#FFFFFF" rx="9" ry="9" style="stroke:#000000;stroke-width:1.0;"/><path d="M65.2188,315.0219 Q63.4688,315.0219 62.3281,314.2875 Q61.2031,313.5375 60.6406,312.1938 Q60.0938,310.8344 60.0938,309.0375 Q60.0938,307.0063 60.75,305.5532 Q61.4063,304.1 62.6875,303.3188 Q63.9688,302.5375 65.8438,302.5375 Q66.7344,302.5375 67.4063,302.725 Q68.0781,302.8969 68.7656,303.2407 L67.9531,305.2563 Q67.3281,304.9438 66.7813,304.8188 Q66.25,304.6938 65.7656,304.6938 Q64.5938,304.6938 63.8906,305.225 Q63.1875,305.7563 62.8906,306.7094 Q62.5938,307.6625 62.5938,308.9282 Q62.5938,310.9438 63.3125,311.9125 Q64.0313,312.8657 65.625,312.8657 Q66.2188,312.8657 66.8438,312.7094 Q67.4688,312.5532 68.2969,312.1782 L68.2969,314.3969 Q67.5625,314.7094 66.7656,314.8657 Q65.9844,315.0219 65.2188,315.0219 Z " fill="#000000"/><text fill="#000000" font-family="Verdana" font-size="14" lengthAdjust="spacing" textLength="147" x="83.25" y="313.532">DisponibilidadMedico</text><line style="stroke:#000000;stroke-width:1.0;" x1="27.5" x2="258.5" y1="322.634" y2="322.634"/><rect fill="none" height="6" style="stroke:#000000;stroke-width:1.0;" width="6" x="34.5" y="334.668"/><text fill="#000000" font-family="Verdana" font-size="14" lengthAdjust="spacing" textLength="71" x="44.5" y="341.5999">id: Integer</text><line style="stroke:#000000;stroke-width:1.0;" x1="27.5" x2="258.5" y1="349.7019" y2="349.7019"/><text fill="#000000" font-family="Verdana" font-size="14" lengthAdjust="spacing" textLength="221" x="32.5" y="368.6679">Define los bloques horarios base</text></g><!--class DiaHorario--><g id="elem_DiaHorario"><rect codeLine="28" fill="#FFFFFF" height="118.6158" id="DiaHorario" rx="2.5" ry="2.5" style="stroke:#000000;stroke-width:1.0;" width="225" x="27.5" y="500.0661"/><ellipse cx="98.75" cy="522.7721" fill="#FFFFFF" rx="9" ry="9" style="stroke:#000000;stroke-width:1.0;"/><path d="M98.2188,529.694 Q96.4688,529.694 95.3281,528.9596 Q94.2031,528.2096 93.6406,526.8658 Q93.0938,525.5065 93.0938,523.7096 Q93.0938,521.6783 93.75,520.2252 Q94.4063,518.7721 95.6875,517.9908 Q96.9688,517.2096 98.8438,517.2096 Q99.7344,517.2096 100.4063,517.3971 Q101.0781,517.569 101.7656,517.9127 L100.9531,519.9283 Q100.3281,519.6158 99.7813,519.4908 Q99.25,519.3658 98.7656,519.3658 Q97.5938,519.3658 96.8906,519.8971 Q96.1875,520.4283 95.8906,521.3815 Q95.5938,522.3346 95.5938,523.6002 Q95.5938,525.6158 96.3125,526.5846 Q97.0313,527.5377 98.625,527.5377 Q99.2188,527.5377 99.8438,527.3815 Q100.4688,527.2252 101.2969,526.8502 L101.2969,529.069 Q100.5625,529.3815 99.7656,529.5377 Q98.9844,529.694 98.2188,529.694 Z " fill="#000000"/><text fill="#000000" font-family="Verdana" font-size="12" font-style="italic" lengthAdjust="spacing" textLength="79" x="114.25" y="517.8942">&#171;Value Object&#187;</text><text fill="#000000" font-family="Verdana" font-size="14" lengthAdjust="spacing" textLength="72" x="117.75" y="536.3761">DiaHorario</text><line style="stroke:#000000;stroke-width:1.0;" x1="28.5" x2="251.5" y1="545.4781" y2="545.4781"/><rect fill="none" height="6" style="stroke:#000000;stroke-width:1.0;" width="6" x="35.5" y="557.5121"/><text fill="#000000" font-family="Verdana" font-size="14" lengthAdjust="spacing" textLength="143" x="45.5" y="564.444">horaInicio: LocalTime</text><rect fill="none" height="6" style="stroke:#000000;stroke-width:1.0;" width="6" x="35.5" y="576.58"/><text fill="#000000" font-family="Verdana" font-size="14" lengthAdjust="spacing" textLength="126" x="45.5" y="583.512">horaFin: LocalTime</text><line style="stroke:#000000;stroke-width:1.0;" x1="28.5" x2="251.5" y1="591.6139" y2="591.6139"/><rect fill="#FFFFFF" height="6" style="stroke:#000000;stroke-width:1.0;" width="6" x="35.5" y="603.6479"/><text fill="#000000" font-family="Verdana" font-size="14" lengthAdjust="spacing" textLength="201" x="45.5" y="610.5799">dia: String (LUNES, MARTES...)</text></g><!--class EsquemaTurno--><g id="elem_EsquemaTurno"><rect codeLine="34" fill="#FFFFFF" height="121.3396" id="EsquemaTurno" rx="2.5" ry="2.5" style="stroke:#000000;stroke-width:1.0;" width="188" x="288" y="499.0661"/><ellipse cx="327.25" cy="513.6" fill="#FFFFFF" rx="9" ry="9" style="stroke:#000000;stroke-width:1.0;"/><path d="M326.7188,520.5219 Q324.9688,520.5219 323.8281,519.7875 Q322.7031,519.0375 322.1406,517.6938 Q321.5938,516.3344 321.5938,514.5375 Q321.5938,512.5063 322.25,511.0532 Q322.9063,509.6 324.1875,508.8188 Q325.4688,508.0375 327.3438,508.0375 Q328.2344,508.0375 328.9063,508.225 Q329.5781,508.3969 330.2656,508.7407 L329.4531,510.7563 Q328.8281,510.4438 328.2813,510.3188 Q327.75,510.1938 327.2656,510.1938 Q326.0938,510.1938 325.3906,510.725 Q324.6875,511.2563 324.3906,512.2094 Q324.0938,513.1625 324.0938,514.4282 Q324.0938,516.4438 324.8125,517.4125 Q325.5313,518.3657 327.125,518.3657 Q327.7188,518.3657 328.3438,518.2094 Q328.9688,518.0532 329.7969,517.6782 L329.7969,519.8969 Q329.0625,520.2094 328.2656,520.3657 Q327.4844,520.5219 326.7188,520.5219 Z " fill="#000000"/><text fill="#000000" font-family="Verdana" font-size="14" lengthAdjust="spacing" textLength="102" x="344.75" y="519.032">EsquemaTurno</text><line style="stroke:#000000;stroke-width:1.0;" x1="289" x2="475" y1="528.134" y2="528.134"/><rect fill="none" height="6" style="stroke:#000000;stroke-width:1.0;" width="6" x="296" y="540.168"/><text fill="#000000" font-family="Verdana" font-size="14" lengthAdjust="spacing" textLength="71" x="306" y="547.0999">id: Integer</text><rect fill="#FFFFFF" height="6" style="stroke:#000000;stroke-width:1.0;" width="6" x="296" y="559.2359"/><text fill="#000000" font-family="Verdana" font-size="14" lengthAdjust="spacing" textLength="152" x="306" y="566.1679">intervalo: int (minutos)</text><line style="stroke:#000000;stroke-width:1.0;" x1="289" x2="475" y1="574.2698" y2="574.2698"/><text fill="#000000" font-family="Verdana" font-size="14" lengthAdjust="spacing" textLength="176" x="294" y="593.2358">Reglas para la generaci&#243;n</text><text fill="#000000" font-family="Verdana" font-size="14" lengthAdjust="spacing" textLength="131" x="294" y="612.3037">autom&#225;tica de slots</text></g><!--class ConfiguracionExcepcional--><g id="elem_ConfiguracionExcepcional"><rect codeLine="42" fill="#FFFFFF" height="159.4754" id="ConfiguracionExcepcional" rx="2.5" ry="2.5" style="stroke:#000000;stroke-width:1.0;" width="202" x="295" y="255.5661"/><ellipse cx="308" cy="270.1" fill="#FFFFFF" rx="9" ry="9" style="stroke:#000000;stroke-width:1.0;"/><path d="M307.4688,277.0219 Q305.7188,277.0219 304.5781,276.2875 Q303.4531,275.5375 302.8906,274.1938 Q302.3438,272.8344 302.3438,271.0375 Q302.3438,269.0063 303,267.5532 Q303.6563,266.1 304.9375,265.3188 Q306.2188,264.5375 308.0938,264.5375 Q308.9844,264.5375 309.6563,264.725 Q310.3281,264.8969 311.0156,265.2407 L310.2031,267.2563 Q309.5781,266.9438 309.0313,266.8188 Q308.5,266.6938 308.0156,266.6938 Q306.8438,266.6938 306.1406,267.225 Q305.4375,267.7563 305.1406,268.7094 Q304.8438,269.6625 304.8438,270.9282 Q304.8438,272.9438 305.5625,273.9125 Q306.2813,274.8657 307.875,274.8657 Q308.4688,274.8657 309.0938,274.7094 Q309.7188,274.5532 310.5469,274.1782 L310.5469,276.3969 Q309.8125,276.7094 309.0156,276.8657 Q308.2344,277.0219 307.4688,277.0219 Z " fill="#000000"/><text fill="#000000" font-family="Verdana" font-size="14" lengthAdjust="spacing" textLength="174" x="320" y="275.532">ConfiguracionExcepcional</text><line style="stroke:#000000;stroke-width:1.0;" x1="296" x2="496" y1="284.634" y2="284.634"/><rect fill="none" height="6" style="stroke:#000000;stroke-width:1.0;" width="6" x="303" y="296.668"/><text fill="#000000" font-family="Verdana" font-size="14" lengthAdjust="spacing" textLength="71" x="313" y="303.5999">id: Integer</text><rect fill="none" height="6" style="stroke:#000000;stroke-width:1.0;" width="6" x="303" y="315.7359"/><text fill="#000000" font-family="Verdana" font-size="14" lengthAdjust="spacing" textLength="110" x="313" y="322.6679">fecha: LocalDate</text><rect fill="none" height="6" style="stroke:#000000;stroke-width:1.0;" width="6" x="303" y="334.8038"/><text fill="#000000" font-family="Verdana" font-size="14" lengthAdjust="spacing" textLength="130" x="313" y="341.7358">tipo: TipoExcepcion</text><rect fill="none" height="6" style="stroke:#000000;stroke-width:1.0;" width="6" x="303" y="353.8717"/><text fill="#000000" font-family="Verdana" font-size="14" lengthAdjust="spacing" textLength="101" x="313" y="360.8037">activo: boolean</text><line style="stroke:#000000;stroke-width:1.0;" x1="296" x2="496" y1="368.9057" y2="368.9057"/><text fill="#000000" font-family="Verdana" font-size="14" lengthAdjust="spacing" textLength="169" x="301" y="387.8716">Overrides (Sobrescritura)</text><text fill="#000000" font-family="Verdana" font-size="14" lengthAdjust="spacing" textLength="186" x="301" y="406.9395">de la disponibilidad normal</text></g><!--class TipoExcepcion--><g id="elem_TipoExcepcion"><rect codeLine="52" fill="#FFFFFF" height="94.2717" id="TipoExcepcion" rx="2.5" ry="2.5" style="stroke:#000000;stroke-width:1.0;" width="152" x="320" y="100.5661"/><ellipse cx="345.6" cy="115.1" fill="#FFFFFF" rx="9" ry="9" style="stroke:#000000;stroke-width:1.0;"/><path d="M341.9594,121.6 L341.9594,109.4594 L349.6156,109.4594 L349.6156,111.5844 L344.3344,111.5844 L344.3344,114.2407 L349.35,114.2407 L349.35,116.3657 L344.3344,116.3657 L344.3344,119.475 L349.6156,119.475 L349.6156,121.6 L341.9594,121.6 Z " fill="#000000"/><text fill="#000000" font-family="Verdana" font-size="14" lengthAdjust="spacing" textLength="96" x="360.4" y="120.532">TipoExcepcion</text><line style="stroke:#000000;stroke-width:1.0;" x1="321" x2="471" y1="129.634" y2="129.634"/><text fill="#000000" font-family="Verdana" font-size="14" lengthAdjust="spacing" textLength="59" x="326" y="148.5999">FERIADO</text><text fill="#000000" font-family="Verdana" font-size="14" lengthAdjust="spacing" textLength="121" x="326" y="167.6679">MANTENIMIENTO</text><text fill="#000000" font-family="Verdana" font-size="14" lengthAdjust="spacing" textLength="140" x="326" y="186.7358">ATENCION_ESPECIAL</text></g><!--class CentroAtencion--><g id="elem_CentroAtencion"><rect codeLine="60" fill="#FFFFFF" height="56.1358" id="CentroAtencion" rx="2.5" ry="2.5" style="stroke:#000000;stroke-width:1.0;" width="132" x="868" y="730.5661"/><ellipse cx="881" cy="745.1" fill="#FFFFFF" rx="9" ry="9" style="stroke:#000000;stroke-width:1.0;"/><path d="M880.4688,752.0219 Q878.7188,752.0219 877.5781,751.2875 Q876.4531,750.5375 875.8906,749.1938 Q875.3438,747.8344 875.3438,746.0375 Q875.3438,744.0063 876,742.5532 Q876.6563,741.1 877.9375,740.3188 Q879.2188,739.5375 881.0938,739.5375 Q881.9844,739.5375 882.6563,739.725 Q883.3281,739.8969 884.0156,740.2407 L883.2031,742.2563 Q882.5781,741.9438 882.0313,741.8188 Q881.5,741.6938 881.0156,741.6938 Q879.8438,741.6938 879.1406,742.225 Q878.4375,742.7563 878.1406,743.7094 Q877.8438,744.6625 877.8438,745.9282 Q877.8438,747.9438 878.5625,748.9125 Q879.2813,749.8657 880.875,749.8657 Q881.4688,749.8657 882.0938,749.7094 Q882.7188,749.5532 883.5469,749.1782 L883.5469,751.3969 Q882.8125,751.7094 882.0156,751.8657 Q881.2344,752.0219 880.4688,752.0219 Z " fill="#000000"/><text fill="#000000" font-family="Verdana" font-size="14" lengthAdjust="spacing" textLength="104" x="893" y="750.532">CentroAtencion</text><line style="stroke:#000000;stroke-width:1.0;" x1="869" x2="999" y1="759.634" y2="759.634"/><rect fill="none" height="6" style="stroke:#000000;stroke-width:1.0;" width="6" x="876" y="771.668"/><text fill="#000000" font-family="Verdana" font-size="14" lengthAdjust="spacing" textLength="102" x="886" y="778.5999">nombre: String</text></g><!--class Especialidad--><g id="elem_Especialidad"><rect codeLine="63" fill="#FFFFFF" height="56.1358" id="Especialidad" rx="2.5" ry="2.5" style="stroke:#000000;stroke-width:1.0;" width="126" x="707" y="730.5661"/><ellipse cx="725.85" cy="745.1" fill="#FFFFFF" rx="9" ry="9" style="stroke:#000000;stroke-width:1.0;"/><path d="M725.3188,752.0219 Q723.5688,752.0219 722.4281,751.2875 Q721.3031,750.5375 720.7406,749.1938 Q720.1938,747.8344 720.1938,746.0375 Q720.1938,744.0063 720.85,742.5532 Q721.5063,741.1 722.7875,740.3188 Q724.0688,739.5375 725.9438,739.5375 Q726.8344,739.5375 727.5063,739.725 Q728.1781,739.8969 728.8656,740.2407 L728.0531,742.2563 Q727.4281,741.9438 726.8813,741.8188 Q726.35,741.6938 725.8656,741.6938 Q724.6938,741.6938 723.9906,742.225 Q723.2875,742.7563 722.9906,743.7094 Q722.6938,744.6625 722.6938,745.9282 Q722.6938,747.9438 723.4125,748.9125 Q724.1313,749.8657 725.725,749.8657 Q726.3188,749.8657 726.9438,749.7094 Q727.5688,749.5532 728.3969,749.1782 L728.3969,751.3969 Q727.6625,751.7094 726.8656,751.8657 Q726.0844,752.0219 725.3188,752.0219 Z " fill="#000000"/><text fill="#000000" font-family="Verdana" font-size="14" lengthAdjust="spacing" textLength="85" x="739.15" y="750.532">Especialidad</text><line style="stroke:#000000;stroke-width:1.0;" x1="708" x2="832" y1="759.634" y2="759.634"/><rect fill="none" height="6" style="stroke:#000000;stroke-width:1.0;" width="6" x="715" y="771.668"/><text fill="#000000" font-family="Verdana" font-size="14" lengthAdjust="spacing" textLength="102" x="725" y="778.5999">nombre: String</text></g><!--class Consultorio--><g id="elem_Consultorio"><rect codeLine="66" fill="#FFFFFF" height="56.1358" id="Consultorio" rx="2.5" ry="2.5" style="stroke:#000000;stroke-width:1.0;" width="135" x="536.5" y="730.5661"/><ellipse cx="563" cy="745.1" fill="#FFFFFF" rx="9" ry="9" style="stroke:#000000;stroke-width:1.0;"/><path d="M562.4688,752.0219 Q560.7188,752.0219 559.5781,751.2875 Q558.4531,750.5375 557.8906,749.1938 Q557.3438,747.8344 557.3438,746.0375 Q557.3438,744.0063 558,742.5532 Q558.6563,741.1 559.9375,740.3188 Q561.2188,739.5375 563.0938,739.5375 Q563.9844,739.5375 564.6563,739.725 Q565.3281,739.8969 566.0156,740.2407 L565.2031,742.2563 Q564.5781,741.9438 564.0313,741.8188 Q563.5,741.6938 563.0156,741.6938 Q561.8438,741.6938 561.1406,742.225 Q560.4375,742.7563 560.1406,743.7094 Q559.8438,744.6625 559.8438,745.9282 Q559.8438,747.9438 560.5625,748.9125 Q561.2813,749.8657 562.875,749.8657 Q563.4688,749.8657 564.0938,749.7094 Q564.7188,749.5532 565.5469,749.1782 L565.5469,751.3969 Q564.8125,751.7094 564.0156,751.8657 Q563.2344,752.0219 562.4688,752.0219 Z " fill="#000000"/><text fill="#000000" font-family="Verdana" font-size="14" lengthAdjust="spacing" textLength="77" x="578" y="750.532">Consultorio</text><line style="stroke:#000000;stroke-width:1.0;" x1="537.5" x2="670.5" y1="759.634" y2="759.634"/><rect fill="none" height="6" style="stroke:#000000;stroke-width:1.0;" width="6" x="544.5" y="771.668"/><text fill="#000000" font-family="Verdana" font-size="14" lengthAdjust="spacing" textLength="111" x="554.5" y="778.5999">numero: Integer</text></g><g id="elem_GMN33"><path d="M1396.5,294.5661 L1396.5,375.3902 L1665.5,375.3902 L1665.5,304.5661 L1655.5,294.5661 L1396.5,294.5661 " fill="#FFFFFF" style="stroke:#000000;stroke-width:1.0;"/><path d="M1655.5,294.5661 L1655.5,304.5661 L1665.5,304.5661 L1655.5,294.5661 " fill="#FFFFFF" style="stroke:#000000;stroke-width:1.0;"/><text fill="#000000" font-family="Verdana" font-size="13" font-weight="bold" lengthAdjust="spacing" textLength="117" x="1402.5" y="313.4631">Regla de Negocio:</text><text fill="#000000" font-family="Verdana" font-size="13" lengthAdjust="spacing" textLength="234" x="1402.5" y="331.1691">Si existe una Configuraci&#243;n Excepcional</text><text fill="#000000" font-family="Verdana" font-size="13" lengthAdjust="spacing" textLength="248" x="1402.5" y="348.8751">activa para una fecha, esta tiene prioridad</text><text fill="#000000" font-family="Verdana" font-size="13" lengthAdjust="spacing" textLength="238" x="1402.5" y="366.5811">sobre la DisponibilidadMedico est&#225;ndar.</text></g><!--reverse link Persona to Medico--><g id="link_Persona_Medico"><path d="M1217,184.3561 C1217,211.1961 1217,245.0561 1217,284.0361 " fill="none" id="Persona-backto-Medico" style="stroke:#000000;stroke-width:1.0;"/><polygon fill="none" points="1217,166.3561,1211,184.3561,1223,184.3561,1217,166.3561" style="stroke:#000000;stroke-width:1.0;"/></g><!--link Medico to StaffMedico--><g id="link_Medico_StaffMedico"><path codeLine="72" d="M1217,386.2761 C1217,417.9361 1217,453.1461 1217,487.3261 " fill="none" id="Medico-to-StaffMedico" style="stroke:#000000;stroke-width:1.0;"/><polygon fill="#000000" points="1217,493.3261,1221,484.3261,1217,488.3261,1213,484.3261,1217,493.3261" style="stroke:#000000;stroke-width:1.0;"/><text fill="#000000" font-family="Verdana" font-size="13" lengthAdjust="spacing" textLength="91" x="1218" y="459.4631">tiene contratos</text><text fill="#000000" font-family="Verdana" font-size="13" lengthAdjust="spacing" textLength="7" x="1209.5297" y="408.2258">1</text><text fill="#000000" font-family="Verdana" font-size="13" lengthAdjust="spacing" textLength="20" x="1195.8438" y="481.5985">0..*</text></g><!--link StaffMedico to CentroAtencion--><g id="link_StaffMedico_CentroAtencion"><path codeLine="73" d="M1167.03,625.7861 C1151.11,643.7761 1132.53,662.2561 1113,676.5661 C1078.75,701.6661 1041.0626,719.3429 1005.6526,733.1029 " fill="none" id="StaffMedico-to-CentroAtencion" style="stroke:#000000;stroke-width:1.0;"/><polygon fill="#000000" points="1000.06,735.2761,1009.8977,735.7446,1004.7205,733.4651,1007.0001,728.2878,1000.06,735.2761" style="stroke:#000000;stroke-width:1.0;"/><text fill="#000000" font-family="Verdana" font-size="13" lengthAdjust="spacing" textLength="60" x="1136" y="672.4631">trabaja en</text><text fill="#000000" font-family="Verdana" font-size="13" lengthAdjust="spacing" textLength="7" x="1008.1029" y="728.5303">1</text></g><!--link StaffMedico to Especialidad--><g id="link_StaffMedico_Especialidad"><path codeLine="74" d="M1101.1,625.7061 C1082.08,634.6761 1062.28,643.0361 1043,649.5661 C1032.73,653.0461 860.73,679.7861 851,684.5661 C828.57,695.5861 811.8484,710.2833 796.9284,726.1633 " fill="none" id="StaffMedico-to-Especialidad" style="stroke:#000000;stroke-width:1.0;"/><polygon fill="#000000" points="792.82,730.5361,801.8978,726.7159,796.2437,726.8921,796.0674,721.238,792.82,730.5361" style="stroke:#000000;stroke-width:1.0;"/><text fill="#000000" font-family="Verdana" font-size="13" lengthAdjust="spacing" textLength="72" x="999" y="672.4631">ejerce como</text><text fill="#000000" font-family="Verdana" font-size="13" lengthAdjust="spacing" textLength="7" x="790.5293" y="718.5984">1</text></g><!--link StaffMedico to Consultorio--><g id="link_StaffMedico_Consultorio"><path codeLine="75" d="M1107.6,625.7761 C1086.79,635.4861 1064.71,644.0661 1043,649.5661 C1006.8,658.7461 741.44,643.1161 707,657.5661 C671.38,672.5061 644.76,701.2388 626.44,725.3488 " fill="none" id="StaffMedico-to-Consultorio" style="stroke:#000000;stroke-width:1.0;"/><polygon fill="#000000" points="622.81,730.1261,631.4399,725.3801,625.835,726.145,625.0702,720.5401,622.81,730.1261" style="stroke:#000000;stroke-width:1.0;"/><text fill="#000000" font-family="Verdana" font-size="13" lengthAdjust="spacing" textLength="173" x="708" y="672.4631">consultorio preferido/default</text><text fill="#000000" font-family="Verdana" font-size="13" lengthAdjust="spacing" textLength="20" x="604.8473" y="718.5466">0..1</text></g><!--reverse link StaffMedico to DisponibilidadMedico--><g id="link_StaffMedico_DisponibilidadMedico"><path codeLine="78" d="M1058.6724,497.4078 C1049.5424,494.7378 1051.95,495.6661 1043,493.5661 C838.11,445.4661 781.35,466.1361 572,444.5661 C441.35,431.1061 402.92,455.1561 278,414.5661 C250.93,405.7661 223.35,390.9861 200.24,376.5961 " fill="none" id="StaffMedico-backto-DisponibilidadMedico" style="stroke:#000000;stroke-width:1.0;"/><polygon fill="#000000" points="1070.19,500.7761,1065.5539,495.2528,1058.6724,497.4078,1063.3085,502.9312,1070.19,500.7761" style="stroke:#000000;stroke-width:1.0;"/><text fill="#000000" font-family="Verdana" font-size="13" lengthAdjust="spacing" textLength="57" x="866" y="459.4631">configura</text><text fill="#000000" font-family="Verdana" font-size="13" lengthAdjust="spacing" textLength="7" x="1055.4396" y="494.2112">1</text><text fill="#000000" font-family="Verdana" font-size="13" lengthAdjust="spacing" textLength="20" x="211.3766" y="398.8209">0..*</text></g><!--reverse link DisponibilidadMedico to DiaHorario--><g id="link_DisponibilidadMedico_DiaHorario"><path codeLine="79" d="M141.2389,388.7603 C140.6089,409.1203 140.31,422.1461 140,444.5661 C139.75,462.5761 139.68,482.1861 139.69,499.9861 " fill="none" id="DisponibilidadMedico-backto-DiaHorario" style="stroke:#000000;stroke-width:1.0;"/><polygon fill="#000000" points="141.61,376.7661,137.4263,382.6395,141.2389,388.7603,145.4225,382.8869,141.61,376.7661" style="stroke:#000000;stroke-width:1.0;"/><text fill="#000000" font-family="Verdana" font-size="13" lengthAdjust="spacing" textLength="52" x="141" y="459.4631">contiene</text><text fill="#000000" font-family="Verdana" font-size="13" lengthAdjust="spacing" textLength="7" x="133.8307" y="398.7037">1</text><text fill="#000000" font-family="Verdana" font-size="13" lengthAdjust="spacing" textLength="20" x="118.369" y="488.2302">1..*</text></g><!--link DisponibilidadMedico to Especialidad--><g id="link_DisponibilidadMedico_Especialidad"><path codeLine="80" d="M200.99,376.7361 C223.98,390.9461 251.27,405.5861 278,414.5661 C330.21,432.0961 485.34,405.3461 524,444.5661 C588.33,509.8261 484.2,581.9061 546,649.5661 C558.23,662.9561 568.33,653.4861 586,657.5661 C597.53,660.2261 678.59,678.9461 689,684.5661 C710.66,696.2561 727.0431,710.579 742.0231,726.099 " fill="none" id="DisponibilidadMedico-to-Especialidad" style="stroke:#000000;stroke-width:1.0;"/><polygon fill="#000000" points="746.19,730.4161,742.8177,721.1625,742.7176,726.8185,737.0616,726.7184,746.19,730.4161" style="stroke:#000000;stroke-width:1.0;"/><text fill="#000000" font-family="Verdana" font-size="13" lengthAdjust="spacing" textLength="61" x="547" y="564.9631">(Opcional)</text><text fill="#000000" font-family="Verdana" font-size="13" lengthAdjust="spacing" textLength="20" x="718.3714" y="718.9037">0..1</text></g><!--reverse link DisponibilidadMedico to EsquemaTurno--><g id="link_DisponibilidadMedico_EsquemaTurno"><path codeLine="83" d="M190.9517,380.7043 C227.7117,414.9243 276.44,460.2961 318.03,499.0061 " fill="none" id="DisponibilidadMedico-backto-EsquemaTurno" style="stroke:#000000;stroke-width:1.0;"/><polygon fill="#000000" points="186.56,376.6161,190.422,385.6762,190.2197,380.0229,195.8729,379.8206,186.56,376.6161" style="stroke:#000000;stroke-width:1.0;"/><text fill="#000000" font-family="Verdana" font-size="13" lengthAdjust="spacing" textLength="62" x="277" y="459.4631">se basa en</text><text fill="#000000" font-family="Verdana" font-size="13" lengthAdjust="spacing" textLength="7" x="185.9446" y="398.5298">1</text></g><!--link EsquemaTurno to StaffMedico--><g id="link_EsquemaTurno_StaffMedico"><path codeLine="84" d="M443.77,498.8761 C466.11,480.8561 492.72,463.4461 520.5,454.0661 C626.83,418.1761 916.82,426.1061 1025.5,454.0661 C1057.67,462.3361 1084.9765,474.3696 1113.8865,490.4496 " fill="none" id="EsquemaTurno-to-StaffMedico" style="stroke:#000000;stroke-width:1.0;"/><polygon fill="#000000" points="1119.13,493.3661,1113.2091,485.4957,1114.7604,490.9357,1109.3205,492.487,1119.13,493.3661" style="stroke:#000000;stroke-width:1.0;"/><text fill="#000000" font-family="Verdana" font-size="13" lengthAdjust="spacing" textLength="7" x="1100.4091" y="481.6432">1</text></g><!--link EsquemaTurno to Consultorio--><g id="link_EsquemaTurno_Consultorio"><path codeLine="85" d="M447.78,620.0761 C468,638.2761 490.36,658.3061 511,676.5661 C531.36,694.5861 549.8756,710.7368 567.9356,726.3868 " fill="none" id="EsquemaTurno-to-Consultorio" style="stroke:#000000;stroke-width:1.0;"/><polygon fill="#000000" points="572.47,730.3161,568.288,721.3992,568.6913,727.0417,563.0489,727.4451,572.47,730.3161" style="stroke:#000000;stroke-width:1.0;"/><text fill="#000000" font-family="Verdana" font-size="13" lengthAdjust="spacing" textLength="65" x="512" y="672.4631">asignado a</text><text fill="#000000" font-family="Verdana" font-size="13" lengthAdjust="spacing" textLength="7" x="557.3693" y="718.7806">1</text></g><!--reverse link TipoExcepcion to ConfiguracionExcepcional--><g id="link_TipoExcepcion_ConfiguracionExcepcional"><path codeLine="88" d="M396,200.8961 C396,219.2461 396,234.8661 396,255.5161 " fill="none" id="TipoExcepcion-backto-ConfiguracionExcepcional" style="stroke:#000000;stroke-width:1.0;"/><polygon fill="#000000" points="396,194.8961,392,203.8961,396,199.8961,400,203.8961,396,194.8961" style="stroke:#000000;stroke-width:1.0;"/></g><!--link ConfiguracionExcepcional to CentroAtencion--><g id="link_ConfiguracionExcepcional_CentroAtencion"><path codeLine="89" d="M497.03,345.6761 C622.8,359.7861 827.39,390.4661 879,444.5661 C888.93,454.9661 918.3003,650.1094 929.1803,724.3794 " fill="none" id="ConfiguracionExcepcional-to-CentroAtencion" style="stroke:#000000;stroke-width:1.0;stroke-dasharray:7.0,7.0;"/><polygon fill="#000000" points="930.05,730.3161,932.7032,720.8313,929.3253,725.3689,924.7877,721.9909,930.05,730.3161" style="stroke:#000000;stroke-width:1.0;"/><text fill="#000000" font-family="Verdana" font-size="13" lengthAdjust="spacing" textLength="132" x="918" y="564.9631">afecta a (Feriado local)</text></g><!--link ConfiguracionExcepcional to EsquemaTurno--><g id="link_ConfiguracionExcepcional_EsquemaTurno"><path codeLine="90" d="M391.04,414.8261 C389.31,442.4561 387.7557,467.0179 386.1357,492.8379 " fill="none" id="ConfiguracionExcepcional-to-EsquemaTurno" style="stroke:#000000;stroke-width:1.0;stroke-dasharray:7.0,7.0;"/><polygon fill="#000000" points="385.76,498.8261,390.3157,490.0942,386.0731,493.8359,382.3314,489.5933,385.76,498.8261" style="stroke:#000000;stroke-width:1.0;"/><text fill="#000000" font-family="Verdana" font-size="13" lengthAdjust="spacing" textLength="151" x="390" y="459.4631">afecta a (Licencia m&#233;dico)</text></g><!--link ConfiguracionExcepcional to Consultorio--><g id="link_ConfiguracionExcepcional_Consultorio"><path codeLine="91" d="M497.2,380.6461 C542.71,406.4961 591.78,443.8861 617,493.5661 C656.67,571.7261 631.7525,674.506 615.6025,724.556 " fill="none" id="ConfiguracionExcepcional-to-Consultorio" style="stroke:#000000;stroke-width:1.0;stroke-dasharray:7.0,7.0;"/><polygon fill="#000000" points="613.76,730.2661,620.3305,722.9293,615.2954,725.5077,612.717,720.4726,613.76,730.2661" style="stroke:#000000;stroke-width:1.0;"/><text fill="#000000" font-family="Verdana" font-size="13" lengthAdjust="spacing" textLength="150" x="638" y="564.9631">afecta a (Mantenimiento)</text></g><!--link ConfiguracionExcepcional to GMN33--><g id="link_ConfiguracionExcepcional_GMN33"><path d="M497.27,313.4261 C711.1,269.3861 1202.15,177.3561 1362.5,225.0661 C1408.21,238.6661 1453.08,269.0361 1485.01,294.4261 " fill="none" id="ConfiguracionExcepcional-GMN33" style="stroke:#000000;stroke-width:1.0;stroke-dasharray:7.0,7.0;"/></g><!--SRC=[bLRDRY974BxFKrIu1BCBoLwHXOJCE44oO07PqqfMCLC3xVHqJxfxd5sj_31xp65FUGHUBDNDU3p3ZzRXWA3h_wkgh_idjwESe90eLBGJAG7bXVi2ERcTJcqKEU4amKod93MmUA9peOI6FjmRdP4LMg4a2rzW8coXbTW8AL9CewZ0v4_S4dIcAIddpvec7VWQ0NyIYTR2Z5AHQA3FZbHguPwCPQLAnN_w8D8XJ9MZBPd6QOxEYAIKE8GL_rBRMlRmKFzy1sGBIWI6pCYoBhdhk74s2hhFKIEbbSCig_BwSHw5DWbNYOyqP8ZAZQHQgBJZmoKLXgnN0PBGkT7A6NIw0ngUzjyLbw0_AGOPylq_8MQY5PGAl5UZ3mNilsSi-QGADCWoR9Nb3H933WTLBS-D5ln6redzlyftS2sunHgwuorZZLVjHhIR-CRo6r1FA1EAG6eB6wd_AdaoTjgW4Vu0BPtYF17u-q43hgy_eYm95fj7Ijner0gSYhh7qBtxOnwltiDil5p7gy5WSDLGzF6cIYH23-5E9oZN8gSZ-QrGny9MKh7br7DSbqQzfVk2JymJIex8Fw7BAr8wRQ_E8RIaBOU0q4E9m4qWWublJgs2R9pllpcHe6-ObThPqnnvX3AnBRsnLl7dX8eaRDORyiqesM45m0HT4nqd2gvYpT-rouOK4oUUMBxHMXAgS_KjdiWO9X8BtPNUyCmdHZZEyXKCBeaBJrkJnbjYSfJDAacLUJkHHcMtyN8wdYpg_xFnV1tFfxDfF5-_dexvx6Qwc3_4g_luPZg-ExCQKvKPvFKmPUBJXEwICZAaUA_iqNBSX5qSEoziPTFdz7EkjKL2pwrvQYpg_x3Z7jjIEkstesLMvcHqkxMXh9zvlcIO26u00nrOhABNg5hdpeSEz5Fzj-gFeFFhOD3hjCXko3F0G-dv952KZPhIlX7RdVEMxEK84BOqkC579YPrsQY5nH3eaPWwELgkspQD37se1X93drlzZtcL6oPI_KjA6VBfAGf7LrCpZC-er- -_076M_qAymwv5PnLg9nyg9pMb1TE0vtdBLsGEPHw1qrrKItrrMbJ5KL6Bg_fbKS5yeH9BdeT3Xzg6bLa3c_CAxKQW5Lk5gGOya-3BtfADBfBL8U4strnK7lYP68nEvmwPqVXcvUszvL7m-KZFRLS_TjMgiUdeJYI115ukv3VuEeAcTZL3NbCbSXu3ntuY_oA0q7ZGsKKU3qlTwuNxmiCvfwtsbrgl5oGhmSybOTcJVmaqdFXh_jXDu6s4-k4GBe3t_7xW10_RNd3I9co7rxUUkJrBdvqYDjj_uxU36KJyX0WFdEW_]--></g></svg>