<?xml version="1.0" encoding="us-ascii" standalone="no"?><svg xmlns="http://www.w3.org/2000/svg" xmlns:xlink="http://www.w3.org/1999/xlink" contentStyleType="text/css" height="1405px" preserveAspectRatio="none" style="width:2000px;height:1405px;background:#FFFFFF;" version="1.1" viewBox="0 0 2000 1405" width="2000px" zoomAndPan="magnify"><defs/><g><rect fill="#F9F9F9" height="1393.2584" style="stroke:#000000;stroke-width:1.0;" width="1087.5" x="597" y="6"/><text fill="#000000" font-family="Verdana" font-size="13" font-weight="bold" lengthAdjust="spacing" textLength="177" x="1052.25" y="19.897">Backend Core (Spring Boot)</text><rect fill="#FFFFFF" height="1057.2985" style="stroke:#000000;stroke-width:1.0;" width="10" x="372.5" y="240.892"/><rect fill="#FFFFFF" height="958.4745" style="stroke:#000000;stroke-width:1.0;" width="10" x="665.5" y="290.304"/><rect fill="#FFFFFF" height="849.3564" style="stroke:#000000;stroke-width:1.0;" width="10" x="994.5" y="367.716"/><rect fill="#FFFFFF" height="125.8241" style="stroke:#000000;stroke-width:1.0;" width="10" x="1286.5" y="658.0702"/><rect fill="#FFFFFF" height="63.412" style="stroke:#000000;stroke-width:1.0;" width="10" x="1480.5" y="399.4221"/><rect fill="#FFFFFF" height="31.706" style="stroke:#000000;stroke-width:1.0;" width="10" x="1616" y="1146.6604"/><rect fill="#FFFFFF" height="63.412" style="stroke:#000000;stroke-width:1.0;" width="10" x="1763" y="906.0123"/><rect fill="#FFFFFF" height="83.118" style="stroke:#000000;stroke-width:1.0;" width="1675.5" x="15" y="1103.2484"/><line style="stroke:#000000;stroke-width:1.0;" x1="95" x2="95" y1="85.0679" y2="1316.1905"/><line style="stroke:#000000;stroke-width:1.0;" x1="377" x2="377" y1="85.0679" y2="1316.1905"/><line style="stroke:#000000;stroke-width:1.0;" x1="670" x2="670" y1="85.0679" y2="1316.1905"/><line style="stroke:#000000;stroke-width:1.0;" x1="999.5" x2="999.5" y1="85.0679" y2="1316.1905"/><line style="stroke:#000000;stroke-width:1.0;" x1="1291" x2="1291" y1="85.0679" y2="1316.1905"/><line style="stroke:#000000;stroke-width:1.0;" x1="1485.5" x2="1485.5" y1="85.0679" y2="1316.1905"/><line style="stroke:#000000;stroke-width:1.0;" x1="1620.5" x2="1620.5" y1="85.0679" y2="1316.1905"/><line style="stroke:#000000;stroke-width:1.0;" x1="1767.5" x2="1767.5" y1="85.0679" y2="1316.1905"/><line style="stroke:#000000;stroke-width:1.0;" x1="1946.5" x2="1946.5" y1="85.0679" y2="1316.1905"/><text fill="#000000" font-family="Verdana" font-size="14" lengthAdjust="spacing" textLength="135" x="25" y="80.9659">Paciente / Operador</text><ellipse cx="95.5" cy="14" fill="#FFFFFF" rx="8" ry="8" style="stroke:#000000;stroke-width:1.0;"/><path d="M95.5,22 L95.5,49 M82.5,30 L108.5,30 M95.5,49 L82.5,64 M95.5,49 L108.5,64 " fill="none" style="stroke:#000000;stroke-width:1.0;"/><text fill="#000000" font-family="Verdana" font-size="14" lengthAdjust="spacing" textLength="135" x="25" y="1330.1565">Paciente / Operador</text><ellipse cx="95.5" cy="1343.2584" fill="#FFFFFF" rx="8" ry="8" style="stroke:#000000;stroke-width:1.0;"/><path d="M95.5,1351.2584 L95.5,1378.2584 M82.5,1359.2584 L108.5,1359.2584 M95.5,1378.2584 L82.5,1393.2584 M95.5,1378.2584 L108.5,1393.2584 " fill="none" style="stroke:#000000;stroke-width:1.0;"/><rect fill="#FFFFFF" height="33.0679" rx="2.5" ry="2.5" style="stroke:#000000;stroke-width:1.0;" width="141" x="307" y="51"/><text fill="#000000" font-family="Verdana" font-size="14" lengthAdjust="spacing" textLength="127" x="314" y="72.9659">Frontend (Angular)</text><rect fill="#FFFFFF" height="33.0679" rx="2.5" ry="2.5" style="stroke:#000000;stroke-width:1.0;" width="141" x="307" y="1315.1905"/><text fill="#000000" font-family="Verdana" font-size="14" lengthAdjust="spacing" textLength="127" x="314" y="1337.1565">Frontend (Angular)</text><rect fill="#FFFFFF" height="33.0679" rx="2.5" ry="2.5" style="stroke:#000000;stroke-width:1.0;" width="119" x="611" y="51"/><text fill="#000000" font-family="Verdana" font-size="14" lengthAdjust="spacing" textLength="105" x="618" y="72.9659">TurnoPresenter</text><rect fill="#FFFFFF" height="33.0679" rx="2.5" ry="2.5" style="stroke:#000000;stroke-width:1.0;" width="119" x="611" y="1315.1905"/><text fill="#000000" font-family="Verdana" font-size="14" lengthAdjust="spacing" textLength="105" x="618" y="1337.1565">TurnoPresenter</text><rect fill="#FFFFFF" height="33.0679" rx="2.5" ry="2.5" style="stroke:#000000;stroke-width:1.0;" width="102" x="948.5" y="51"/><text fill="#000000" font-family="Verdana" font-size="14" lengthAdjust="spacing" textLength="88" x="955.5" y="72.9659">TurnoService</text><rect fill="#FFFFFF" height="33.0679" rx="2.5" ry="2.5" style="stroke:#000000;stroke-width:1.0;" width="102" x="948.5" y="1315.1905"/><text fill="#000000" font-family="Verdana" font-size="14" lengthAdjust="spacing" textLength="88" x="955.5" y="1337.1565">TurnoService</text><rect fill="#FFFFFF" height="52.1358" rx="2.5" ry="2.5" style="stroke:#000000;stroke-width:1.0;" width="173" x="1205" y="31.9321"/><text fill="#000000" font-family="Verdana" font-size="14" lengthAdjust="spacing" textLength="159" x="1212" y="53.898">ConsultorioDistribucion</text><text fill="#000000" font-family="Verdana" font-size="14" lengthAdjust="spacing" textLength="48" x="1267.5" y="72.9659">Service</text><rect fill="#FFFFFF" height="52.1358" rx="2.5" ry="2.5" style="stroke:#000000;stroke-width:1.0;" width="173" x="1205" y="1315.1905"/><text fill="#000000" font-family="Verdana" font-size="14" lengthAdjust="spacing" textLength="159" x="1212" y="1337.1565">ConsultorioDistribucion</text><text fill="#000000" font-family="Verdana" font-size="14" lengthAdjust="spacing" textLength="48" x="1267.5" y="1356.2244">Service</text><rect fill="#FFFFFF" height="52.1358" rx="2.5" ry="2.5" style="stroke:#000000;stroke-width:1.0;" width="112" x="1429.5" y="31.9321"/><text fill="#000000" font-family="Verdana" font-size="14" lengthAdjust="spacing" textLength="98" x="1436.5" y="53.898">Disponibilidad</text><text fill="#000000" font-family="Verdana" font-size="14" lengthAdjust="spacing" textLength="97" x="1437" y="72.9659">MedicoService</text><rect fill="#FFFFFF" height="52.1358" rx="2.5" ry="2.5" style="stroke:#000000;stroke-width:1.0;" width="112" x="1429.5" y="1315.1905"/><text fill="#000000" font-family="Verdana" font-size="14" lengthAdjust="spacing" textLength="98" x="1436.5" y="1337.1565">Disponibilidad</text><text fill="#000000" font-family="Verdana" font-size="14" lengthAdjust="spacing" textLength="97" x="1437" y="1356.2244">MedicoService</text><rect fill="#FFFFFF" height="33.0679" rx="2.5" ry="2.5" style="stroke:#000000;stroke-width:1.0;" width="99" x="1571.5" y="51"/><text fill="#000000" font-family="Verdana" font-size="14" lengthAdjust="spacing" textLength="85" x="1578.5" y="72.9659">EmailService</text><rect fill="#FFFFFF" height="33.0679" rx="2.5" ry="2.5" style="stroke:#000000;stroke-width:1.0;" width="99" x="1571.5" y="1315.1905"/><text fill="#000000" font-family="Verdana" font-size="14" lengthAdjust="spacing" textLength="85" x="1578.5" y="1337.1565">EmailService</text><rect fill="#FFFFFF" height="33.0679" rx="2.5" ry="2.5" style="stroke:#000000;stroke-width:1.0;" width="125" x="1705.5" y="51"/><text fill="#000000" font-family="Verdana" font-size="14" lengthAdjust="spacing" textLength="111" x="1712.5" y="72.9659">TurnoRepository</text><rect fill="#FFFFFF" height="33.0679" rx="2.5" ry="2.5" style="stroke:#000000;stroke-width:1.0;" width="125" x="1705.5" y="1315.1905"/><text fill="#000000" font-family="Verdana" font-size="14" lengthAdjust="spacing" textLength="111" x="1712.5" y="1337.1565">TurnoRepository</text><text fill="#000000" font-family="Verdana" font-size="14" lengthAdjust="spacing" textLength="77" x="1905.5" y="80.9659">PostgreSQL</text><path d="M1929,30 C1929,20 1947,20 1947,20 C1947,20 1965,20 1965,30 L1965,56 C1965,66 1947,66 1947,66 C1947,66 1929,66 1929,56 L1929,30 " fill="#FFFFFF" style="stroke:#000000;stroke-width:1.5;"/><path d="M1929,30 C1929,40 1947,40 1947,40 C1947,40 1965,40 1965,30 " fill="none" style="stroke:#000000;stroke-width:1.5;"/><text fill="#000000" font-family="Verdana" font-size="14" lengthAdjust="spacing" textLength="77" x="1905.5" y="1330.1565">PostgreSQL</text><path d="M1929,1344.2584 C1929,1334.2584 1947,1334.2584 1947,1334.2584 C1947,1334.2584 1965,1334.2584 1965,1344.2584 L1965,1370.2584 C1965,1380.2584 1947,1380.2584 1947,1380.2584 C1947,1380.2584 1929,1380.2584 1929,1370.2584 L1929,1344.2584 " fill="#FFFFFF" style="stroke:#000000;stroke-width:1.5;"/><path d="M1929,1344.2584 C1929,1354.2584 1947,1354.2584 1947,1354.2584 C1947,1354.2584 1965,1354.2584 1965,1344.2584 " fill="none" style="stroke:#000000;stroke-width:1.5;"/><rect fill="#FFFFFF" height="1057.2985" style="stroke:#000000;stroke-width:1.0;" width="10" x="372.5" y="240.892"/><rect fill="#FFFFFF" height="958.4745" style="stroke:#000000;stroke-width:1.0;" width="10" x="665.5" y="290.304"/><rect fill="#FFFFFF" height="849.3564" style="stroke:#000000;stroke-width:1.0;" width="10" x="994.5" y="367.716"/><rect fill="#FFFFFF" height="125.8241" style="stroke:#000000;stroke-width:1.0;" width="10" x="1286.5" y="658.0702"/><rect fill="#FFFFFF" height="63.412" style="stroke:#000000;stroke-width:1.0;" width="10" x="1480.5" y="399.4221"/><rect fill="#FFFFFF" height="31.706" style="stroke:#000000;stroke-width:1.0;" width="10" x="1616" y="1146.6604"/><rect fill="#FFFFFF" height="63.412" style="stroke:#000000;stroke-width:1.0;" width="10" x="1763" y="906.0123"/><rect fill="#FFFFFF" height="3" style="stroke:#FFFFFF;stroke-width:1.0;" width="1988.5" x="5" y="116.9209"/><line style="stroke:#000000;stroke-width:0.5;" x1="5" x2="1993.5" y1="116.9209" y2="116.9209"/><line style="stroke:#000000;stroke-width:0.5;" x1="5" x2="1993.5" y1="119.9209" y2="119.9209"/><rect fill="#FFFFFF" height="25.706" style="stroke:#000000;stroke-width:1.0;" width="163" x="917.75" y="105.0679"/><text fill="#000000" font-family="Verdana" font-size="13" font-weight="bold" lengthAdjust="spacing" textLength="146" x="923.75" y="122.9649">1. Selecci&#243;n y Solicitud</text><polygon fill="#000000" points="365.5,160.4799,375.5,164.4799,365.5,168.4799,369.5,164.4799" style="stroke:#000000;stroke-width:1.0;"/><line style="stroke:#000000;stroke-width:1.0;" x1="95.5" x2="371.5" y1="164.4799" y2="164.4799"/><text fill="#000000" font-family="Verdana" font-size="13" font-weight="bold" lengthAdjust="spacing" textLength="7" x="102.5" y="158.6709">1</text><text fill="#000000" font-family="Verdana" font-size="13" lengthAdjust="spacing" textLength="247" x="113.5" y="158.6709">Selecciona Especialidad, M&#233;dico y Horario</text><line style="stroke:#000000;stroke-width:1.0;" x1="377.5" x2="419.5" y1="196.186" y2="196.186"/><line style="stroke:#000000;stroke-width:1.0;" x1="419.5" x2="419.5" y1="196.186" y2="209.186"/><line style="stroke:#000000;stroke-width:1.0;" x1="378.5" x2="419.5" y1="209.186" y2="209.186"/><polygon fill="#000000" points="388.5,205.186,378.5,209.186,388.5,213.186,384.5,209.186" style="stroke:#000000;stroke-width:1.0;"/><text fill="#000000" font-family="Verdana" font-size="13" font-weight="bold" lengthAdjust="spacing" textLength="7" x="384.5" y="190.377">2</text><text fill="#000000" font-family="Verdana" font-size="13" lengthAdjust="spacing" textLength="160" x="395.5" y="190.377">Valida datos del formulario</text><polygon fill="#000000" points="360.5,236.892,370.5,240.892,360.5,244.892,364.5,240.892" style="stroke:#000000;stroke-width:1.0;"/><line style="stroke:#000000;stroke-width:1.0;" x1="95.5" x2="366.5" y1="240.892" y2="240.892"/><text fill="#000000" font-family="Verdana" font-size="13" font-weight="bold" lengthAdjust="spacing" textLength="7" x="102.5" y="235.083">3</text><text fill="#000000" font-family="Verdana" font-size="13" lengthAdjust="spacing" textLength="150" x="113.5" y="235.083">Clic en "Confirmar Turno"</text><polygon fill="#000000" points="653.5,286.304,663.5,290.304,653.5,294.304,657.5,290.304" style="stroke:#000000;stroke-width:1.0;"/><line style="stroke:#000000;stroke-width:1.0;" x1="382.5" x2="659.5" y1="290.304" y2="290.304"/><text fill="#000000" font-family="Verdana" font-size="13" font-weight="bold" lengthAdjust="spacing" textLength="7" x="389.5" y="275.642">4</text><text fill="#000000" font-family="Verdana" font-size="13" lengthAdjust="spacing" textLength="103" x="400.5" y="266.789">POST /api/turnos</text><text fill="#000000" font-family="Verdana" font-size="13" lengthAdjust="spacing" textLength="253" x="400.5" y="284.495">Body: {medicoId, pacienteId, fecha, hora...}</text><rect fill="#FFFFFF" height="3" style="stroke:#FFFFFF;stroke-width:1.0;" width="1988.5" x="5" y="320.157"/><line style="stroke:#000000;stroke-width:0.5;" x1="5" x2="1993.5" y1="320.157" y2="320.157"/><line style="stroke:#000000;stroke-width:0.5;" x1="5" x2="1993.5" y1="323.157" y2="323.157"/><rect fill="#FFFFFF" height="25.706" style="stroke:#000000;stroke-width:1.0;" width="175" x="911.75" y="308.304"/><text fill="#000000" font-family="Verdana" font-size="13" font-weight="bold" lengthAdjust="spacing" textLength="158" x="917.75" y="326.201">2. Validaci&#243;n de Negocio</text><polygon fill="#000000" points="982.5,363.716,992.5,367.716,982.5,371.716,986.5,367.716" style="stroke:#000000;stroke-width:1.0;"/><line style="stroke:#000000;stroke-width:1.0;" x1="675.5" x2="988.5" y1="367.716" y2="367.716"/><text fill="#000000" font-family="Verdana" font-size="13" font-weight="bold" lengthAdjust="spacing" textLength="7" x="682.5" y="361.907">5</text><text fill="#000000" font-family="Verdana" font-size="13" lengthAdjust="spacing" textLength="136" x="693.5" y="361.907">crearTurno(TurnoDTO)</text><polygon fill="#000000" points="1468.5,395.4221,1478.5,399.4221,1468.5,403.4221,1472.5,399.4221" style="stroke:#000000;stroke-width:1.0;"/><line style="stroke:#000000;stroke-width:1.0;" x1="1004.5" x2="1474.5" y1="399.4221" y2="399.4221"/><text fill="#000000" font-family="Verdana" font-size="13" font-weight="bold" lengthAdjust="spacing" textLength="7" x="1011.5" y="393.6131">6</text><text fill="#000000" font-family="Verdana" font-size="13" lengthAdjust="spacing" textLength="249" x="1022.5" y="393.6131">validarDisponibilidad(medico, fecha, hora)</text><polygon fill="#000000" points="1935,427.1281,1945,431.1281,1935,435.1281,1939,431.1281" style="stroke:#000000;stroke-width:1.0;"/><line style="stroke:#000000;stroke-width:1.0;" x1="1490.5" x2="1941" y1="431.1281" y2="431.1281"/><text fill="#000000" font-family="Verdana" font-size="13" font-weight="bold" lengthAdjust="spacing" textLength="7" x="1497.5" y="425.3191">7</text><text fill="#000000" font-family="Verdana" font-size="13" lengthAdjust="spacing" textLength="149" x="1508.5" y="425.3191">Verifica cruce de horarios</text><polygon fill="#000000" points="1496.5,458.8341,1486.5,462.8341,1496.5,466.8341,1492.5,462.8341" style="stroke:#000000;stroke-width:1.0;"/><line style="stroke:#000000;stroke-width:1.0;stroke-dasharray:2.0,2.0;" x1="1490.5" x2="1946" y1="462.8341" y2="462.8341"/><text fill="#000000" font-family="Verdana" font-size="13" font-weight="bold" lengthAdjust="spacing" textLength="7" x="1502.5" y="457.0251">8</text><text fill="#000000" font-family="Verdana" font-size="13" lengthAdjust="spacing" textLength="92" x="1513.5" y="457.0251">OK (Disponible)</text><line style="stroke:#000000;stroke-width:1.0;" x1="1004.5" x2="1046.5" y1="512.2461" y2="512.2461"/><line style="stroke:#000000;stroke-width:1.0;" x1="1046.5" x2="1046.5" y1="512.2461" y2="525.2461"/><line style="stroke:#000000;stroke-width:1.0;" x1="1005.5" x2="1046.5" y1="525.2461" y2="525.2461"/><polygon fill="#000000" points="1015.5,521.2461,1005.5,525.2461,1015.5,529.2461,1011.5,525.2461" style="stroke:#000000;stroke-width:1.0;"/><text fill="#000000" font-family="Verdana" font-size="13" font-weight="bold" lengthAdjust="spacing" textLength="7" x="1011.5" y="497.5841">9</text><text fill="#000000" font-family="Verdana" font-size="13" lengthAdjust="spacing" textLength="134" x="1022.5" y="488.7311">Validar que el Paciente</text><text fill="#000000" font-family="Verdana" font-size="13" lengthAdjust="spacing" textLength="184" x="1022.5" y="506.4371">no tenga otro turno a esa hora</text><rect fill="#FFFFFF" height="3" style="stroke:#FFFFFF;stroke-width:1.0;" width="1988.5" x="5" y="555.0991"/><line style="stroke:#000000;stroke-width:0.5;" x1="5" x2="1993.5" y1="555.0991" y2="555.0991"/><line style="stroke:#000000;stroke-width:0.5;" x1="5" x2="1993.5" y1="558.0991" y2="558.0991"/><rect fill="#FFFFFF" height="25.706" style="stroke:#000000;stroke-width:1.0;" width="279" x="859.75" y="543.2461"/><text fill="#000000" font-family="Verdana" font-size="13" font-weight="bold" lengthAdjust="spacing" textLength="262" x="865.75" y="561.1431">3. Asignaci&#243;n Inteligente de Consultorio</text><path d="M1009,583.9521 L1009,628.9521 L1356,628.9521 L1356,593.9521 L1346,583.9521 L1009,583.9521 " fill="#FFFFFF" style="stroke:#000000;stroke-width:1.0;"/><path d="M1346,583.9521 L1346,593.9521 L1356,593.9521 L1346,583.9521 " fill="#FFFFFF" style="stroke:#000000;stroke-width:1.0;"/><text fill="#000000" font-family="Verdana" font-size="13" lengthAdjust="spacing" textLength="326" x="1015" y="602.8492">El sistema busca autom&#225;ticamente un consultorio libre</text><text fill="#000000" font-family="Verdana" font-size="13" lengthAdjust="spacing" textLength="251" x="1015" y="620.5552">en el Centro de Atenci&#243;n correspondiente.</text><polygon fill="#000000" points="1274.5,654.0702,1284.5,658.0702,1274.5,662.0702,1278.5,658.0702" style="stroke:#000000;stroke-width:1.0;"/><line style="stroke:#000000;stroke-width:1.0;" x1="1004.5" x2="1280.5" y1="658.0702" y2="658.0702"/><text fill="#000000" font-family="Verdana" font-size="13" font-weight="bold" lengthAdjust="spacing" textLength="14" x="1011.5" y="652.2612">10</text><text fill="#000000" font-family="Verdana" font-size="13" lengthAdjust="spacing" textLength="245" x="1029.5" y="652.2612">asignarConsultorio(fecha, hora, centroId)</text><polygon fill="#000000" points="1935,685.7762,1945,689.7762,1935,693.7762,1939,689.7762" style="stroke:#000000;stroke-width:1.0;"/><line style="stroke:#000000;stroke-width:1.0;" x1="1296.5" x2="1941" y1="689.7762" y2="689.7762"/><text fill="#000000" font-family="Verdana" font-size="13" font-weight="bold" lengthAdjust="spacing" textLength="14" x="1303.5" y="683.9672">11</text><text fill="#000000" font-family="Verdana" font-size="13" lengthAdjust="spacing" textLength="179" x="1321.5" y="683.9672">Buscar consultorios ocupados</text><line style="stroke:#000000;stroke-width:1.0;" x1="1296.5" x2="1338.5" y1="739.1882" y2="739.1882"/><line style="stroke:#000000;stroke-width:1.0;" x1="1338.5" x2="1338.5" y1="739.1882" y2="752.1882"/><line style="stroke:#000000;stroke-width:1.0;" x1="1297.5" x2="1338.5" y1="752.1882" y2="752.1882"/><polygon fill="#000000" points="1307.5,748.1882,1297.5,752.1882,1307.5,756.1882,1303.5,752.1882" style="stroke:#000000;stroke-width:1.0;"/><text fill="#000000" font-family="Verdana" font-size="13" font-weight="bold" lengthAdjust="spacing" textLength="14" x="1303.5" y="724.5262">12</text><text fill="#000000" font-family="Verdana" font-size="13" lengthAdjust="spacing" textLength="152" x="1321.5" y="715.6732">Algoritmo de distribuci&#243;n</text><text fill="#000000" font-family="Verdana" font-size="13" lengthAdjust="spacing" textLength="132" x="1321.5" y="733.3792">(Round Robin / Carga)</text><polygon fill="#000000" points="1015.5,779.8943,1005.5,783.8943,1015.5,787.8943,1011.5,783.8943" style="stroke:#000000;stroke-width:1.0;"/><line style="stroke:#000000;stroke-width:1.0;stroke-dasharray:2.0,2.0;" x1="1009.5" x2="1290.5" y1="783.8943" y2="783.8943"/><text fill="#000000" font-family="Verdana" font-size="13" font-weight="bold" lengthAdjust="spacing" textLength="14" x="1021.5" y="778.0853">13</text><text fill="#000000" font-family="Verdana" font-size="13" lengthAdjust="spacing" textLength="180" x="1039.5" y="778.0853">Retorna Consultorio Asignado</text><rect fill="#FFFFFF" height="3" style="stroke:#FFFFFF;stroke-width:1.0;" width="1988.5" x="5" y="813.7473"/><line style="stroke:#000000;stroke-width:0.5;" x1="5" x2="1993.5" y1="813.7473" y2="813.7473"/><line style="stroke:#000000;stroke-width:0.5;" x1="5" x2="1993.5" y1="816.7473" y2="816.7473"/><rect fill="#FFFFFF" height="25.706" style="stroke:#000000;stroke-width:1.0;" width="186" x="906.25" y="801.8943"/><text fill="#000000" font-family="Verdana" font-size="13" font-weight="bold" lengthAdjust="spacing" textLength="169" x="912.25" y="819.7913">4. Persistencia y Auditor&#237;a</text><line style="stroke:#000000;stroke-width:1.0;" x1="1004.5" x2="1046.5" y1="861.3063" y2="861.3063"/><line style="stroke:#000000;stroke-width:1.0;" x1="1046.5" x2="1046.5" y1="861.3063" y2="874.3063"/><line style="stroke:#000000;stroke-width:1.0;" x1="1005.5" x2="1046.5" y1="874.3063" y2="874.3063"/><polygon fill="#000000" points="1015.5,870.3063,1005.5,874.3063,1015.5,878.3063,1011.5,874.3063" style="stroke:#000000;stroke-width:1.0;"/><text fill="#000000" font-family="Verdana" font-size="13" font-weight="bold" lengthAdjust="spacing" textLength="14" x="1011.5" y="855.4973">14</text><text fill="#000000" font-family="Verdana" font-size="13" lengthAdjust="spacing" textLength="172" x="1029.5" y="855.4973">Set Estado = "CONFIRMADO"</text><polygon fill="#000000" points="1751,902.0123,1761,906.0123,1751,910.0123,1755,906.0123" style="stroke:#000000;stroke-width:1.0;"/><line style="stroke:#000000;stroke-width:1.0;" x1="1004.5" x2="1757" y1="906.0123" y2="906.0123"/><text fill="#000000" font-family="Verdana" font-size="13" font-weight="bold" lengthAdjust="spacing" textLength="14" x="1011.5" y="900.2033">15</text><text fill="#000000" font-family="Verdana" font-size="13" lengthAdjust="spacing" textLength="69" x="1029.5" y="900.2033">save(turno)</text><polygon fill="#000000" points="1935,933.7183,1945,937.7183,1935,941.7183,1939,937.7183" style="stroke:#000000;stroke-width:1.0;"/><line style="stroke:#000000;stroke-width:1.0;" x1="1773" x2="1941" y1="937.7183" y2="937.7183"/><text fill="#000000" font-family="Verdana" font-size="13" font-weight="bold" lengthAdjust="spacing" textLength="14" x="1780" y="931.9093">16</text><text fill="#000000" font-family="Verdana" font-size="13" lengthAdjust="spacing" textLength="132" x="1798" y="931.9093">INSERT INTO turnos ...</text><polygon fill="#000000" points="1779,965.4243,1769,969.4243,1779,973.4243,1775,969.4243" style="stroke:#000000;stroke-width:1.0;"/><line style="stroke:#000000;stroke-width:1.0;stroke-dasharray:2.0,2.0;" x1="1773" x2="1946" y1="969.4243" y2="969.4243"/><text fill="#000000" font-family="Verdana" font-size="13" font-weight="bold" lengthAdjust="spacing" textLength="14" x="1785" y="963.6153">17</text><text fill="#000000" font-family="Verdana" font-size="13" lengthAdjust="spacing" textLength="75" x="1803" y="963.6153">ID Generado</text><path d="M1009,982.4243 L1009,1045.4243 L1274,1045.4243 L1274,992.4243 L1264,982.4243 L1009,982.4243 " fill="#FFFFFF" style="stroke:#000000;stroke-width:1.0;"/><path d="M1264,982.4243 L1264,992.4243 L1274,992.4243 L1264,982.4243 " fill="#FFFFFF" style="stroke:#000000;stroke-width:1.0;"/><text fill="#000000" font-family="Verdana" font-size="13" lengthAdjust="spacing" textLength="244" x="1015" y="1001.3214">La auditor&#237;a se dispara autom&#225;ticamente</text><text fill="#000000" font-family="Verdana" font-size="13" lengthAdjust="spacing" textLength="220" x="1015" y="1019.0274">v&#237;a AuditInterceptor / EntityListeners</text><text fill="#000000" font-family="Verdana" font-size="13" lengthAdjust="spacing" textLength="126" x="1015" y="1036.7334">al guardar la entidad.</text><rect fill="#FFFFFF" height="3" style="stroke:#FFFFFF;stroke-width:1.0;" width="1988.5" x="5" y="1072.3954"/><line style="stroke:#000000;stroke-width:0.5;" x1="5" x2="1993.5" y1="1072.3954" y2="1072.3954"/><line style="stroke:#000000;stroke-width:0.5;" x1="5" x2="1993.5" y1="1075.3954" y2="1075.3954"/><rect fill="#FFFFFF" height="25.706" style="stroke:#000000;stroke-width:1.0;" width="193" x="902.75" y="1060.5424"/><text fill="#000000" font-family="Verdana" font-size="13" font-weight="bold" lengthAdjust="spacing" textLength="176" x="908.75" y="1078.4394">5. Notificaci&#243;n y Respuesta</text><path d="M15,1103.2484 L82,1103.2484 L82,1112.9544 L72,1122.9544 L15,1122.9544 L15,1103.2484 " fill="#FFFFFF" style="stroke:#000000;stroke-width:1.0;"/><rect fill="none" height="83.118" style="stroke:#000000;stroke-width:1.0;" width="1675.5" x="15" y="1103.2484"/><text fill="#000000" font-family="Verdana" font-size="13" font-weight="bold" lengthAdjust="spacing" textLength="22" x="30" y="1118.1454">par</text><text fill="#000000" font-family="Verdana" font-size="11" font-weight="bold" lengthAdjust="spacing" textLength="110" x="97" y="1117.0073">[Proceso As&#237;ncrono]</text><polygon fill="#000000" points="1604,1142.6604,1614,1146.6604,1604,1150.6604,1608,1146.6604" style="stroke:#000000;stroke-width:1.0;"/><line style="stroke:#000000;stroke-width:1.0;" x1="1004.5" x2="1610" y1="1146.6604" y2="1146.6604"/><text fill="#000000" font-family="Verdana" font-size="13" font-weight="bold" lengthAdjust="spacing" textLength="14" x="1011.5" y="1140.8514">18</text><text fill="#000000" font-family="Verdana" font-size="13" lengthAdjust="spacing" textLength="159" x="1029.5" y="1140.8514">enviarConfirmacion(turno)</text><polygon fill="#000000" points="106.5,1174.3665,96.5,1178.3665,106.5,1182.3665,102.5,1178.3665" style="stroke:#000000;stroke-width:1.0;"/><line style="stroke:#000000;stroke-width:1.0;" x1="100.5" x2="1620" y1="1178.3665" y2="1178.3665"/><text fill="#000000" font-family="Verdana" font-size="13" font-weight="bold" lengthAdjust="spacing" textLength="14" x="112.5" y="1172.5575">19</text><text fill="#000000" font-family="Verdana" font-size="13" lengthAdjust="spacing" textLength="148" x="130.5" y="1172.5575">Env&#237;a correo con detalles</text><polygon fill="#000000" points="686.5,1213.0725,676.5,1217.0725,686.5,1221.0725,682.5,1217.0725" style="stroke:#000000;stroke-width:1.0;"/><line style="stroke:#000000;stroke-width:1.0;stroke-dasharray:2.0,2.0;" x1="680.5" x2="998.5" y1="1217.0725" y2="1217.0725"/><text fill="#000000" font-family="Verdana" font-size="13" font-weight="bold" lengthAdjust="spacing" textLength="14" x="692.5" y="1211.2635">20</text><text fill="#000000" font-family="Verdana" font-size="13" lengthAdjust="spacing" textLength="277" x="710.5" y="1211.2635">Retorna TurnoDTO (con Consultorio asignado)</text><polygon fill="#000000" points="393.5,1244.7785,383.5,1248.7785,393.5,1252.7785,389.5,1248.7785" style="stroke:#000000;stroke-width:1.0;"/><line style="stroke:#000000;stroke-width:1.0;stroke-dasharray:2.0,2.0;" x1="387.5" x2="669.5" y1="1248.7785" y2="1248.7785"/><text fill="#000000" font-family="Verdana" font-size="13" font-weight="bold" lengthAdjust="spacing" textLength="14" x="399.5" y="1242.9695">21</text><text fill="#000000" font-family="Verdana" font-size="13" lengthAdjust="spacing" textLength="106" x="417.5" y="1242.9695">HTTP 201 Created</text><polygon fill="#000000" points="106.5,1294.1905,96.5,1298.1905,106.5,1302.1905,102.5,1298.1905" style="stroke:#000000;stroke-width:1.0;"/><line style="stroke:#000000;stroke-width:1.0;stroke-dasharray:2.0,2.0;" x1="100.5" x2="376.5" y1="1298.1905" y2="1298.1905"/><text fill="#000000" font-family="Verdana" font-size="13" font-weight="bold" lengthAdjust="spacing" textLength="14" x="112.5" y="1283.5285">22</text><text fill="#000000" font-family="Verdana" font-size="13" lengthAdjust="spacing" textLength="154" x="130.5" y="1274.6755">Muestra mensaje de &#233;xito</text><text fill="#000000" font-family="Verdana" font-size="13" lengthAdjust="spacing" textLength="145" x="130.5" y="1292.3815">y redirige a "Mis Turnos"</text><!--SRC=[TLNBSY8t5DttLzoG3QxouCmaimXLJXKlPwWOGu1anKQeHLj98tKaDJMkL3ucordCQZw17ylHRHgBs6DNsKrpTH_dd7lqJNXKUqLLARJ9H1sigVTRvR9Co60TTHP2QcM2eXkQLyg9tBeE2K-_UGHLmWKjTILCeCwTiuWpENK7fgXBuQuuy6wIRUr7wWo5_3D-Ex9EKNTLEMqA6beR4FRjxiVucn5-BdAkQsVimYaVMsWAZr35sR94-TV3LyeTj5GSV7f-6OailYuneRPZxOFJsrfgQpOcFJqeIoi5WbwUnw7A6htLfSv5lZ4pbMjvKNfm4BhyQlt9_lbR3kSNMGG8Q6KlfrggodgDNfuuF7xCSX74LdW5bgmFXLEhN-_vs_4mosvlwMqF09HAIdtyOkY9LhP4qb3dT7kRPP51UlCJ2EgtOTO8clXAIIruhckQ7J_5mN3uWtK2Q6Lta_RGxnn4wC9wobL9E-lsaNX4fSb7g4hACEWxxVR24O_KYHhJ1m5nGIIdnC_qzcanNwtfHbJw9iHulp53cp_rwUyzepr5VzL9dl5vf-IZkAP7DDhhzVvvpfv89iBohdTglS4bL_IW2elf6PRduDZEYQ8-IQU4uxQx_7UydbyzLsXvpauFyMWgW3uTkAAxr4st6UIYzIJhXOJI3p7zU0W6bDCxBGMwg_4MapmsBFbiFAGtBvgO_qBTjeDINMMvUhrMEiRvS8EPexzgHI2xDOQDCPQmzuKW2-28gI91oWlkXY7_laS3hmjpWdoASwKks5TovgTTHgR0MBntkdWCP7V93azAybXMjHUqhJt6ZdwrF_wBLH5xJbORaacoKczTF0ZneUEHYip6WWFqstGYhOEx092SX-dn1iRwbrIsHj37TiKnND9oDo7lcYGNcUOfZMSREJ-r10xZ62xjsPELTGMRzPVHIGk3ia1asFCe-TczCCx6T9UsnWHBkzK6bZqIhe2Yaamfeqk5LrZv5F-6fjnUQECyGEJoXnujb6CY0AA0DGpgF3hJyRDW-buJpqe5E4j0Ohg54SmVxgRBsM0yxwJHqTJwvCL1TLb52ORiT_5FYzpqOJLPhl5lFMyavmbBtyg-oJGTqy_AyAMLZiEvlYgo-oYhypoU4OOTlnGROWynXAUFYdPILH7Z6vgOeCFJFKC4g10fIYfguUB-bDWDV8_rJzK6OD_twC46NkZMiPVGPgs06mEBDcZXh5G-ydJyR2IkNCkNIu8YtoHzr3XerYbRRlJs5jGOVmQZkNVYAtwA2Q9tzp43JySBOgD2eROWu8kUenCyprTNGlt_dBnLMckTr8q9Kzs9a-ukJEdiHwafdswL3-lrWjvzzvP6SEQWylHSQlZnMZaFDOjWWaiGwCKVR3x7Jnz1ziOyaOCPGn0AvjMPQTyqwpjfOjnJ_m40]--></g></svg>