<?xml version="1.0" encoding="us-ascii" standalone="no"?><svg xmlns="http://www.w3.org/2000/svg" xmlns:xlink="http://www.w3.org/1999/xlink" contentStyleType="text/css" height="1057px" preserveAspectRatio="none" style="width:1003px;height:1057px;background:#FFFFFF;" version="1.1" viewBox="0 0 1003 1057" width="1003px" zoomAndPan="magnify"><defs/><g><text fill="#000000" font-family="Verdana" font-size="22" font-weight="bold" lengthAdjust="spacing" textLength="434" x="280" y="38.5181">Modelo de Dominio - M&#243;dulo de Turnos</text><!--cluster Core Turnos--><g id="cluster_Core Turnos"><path d="M275.5,62.5661 L360.5,62.5661 A3.75,3.75 0 0 1 363,65.0661 L370,87.634 L724.5,87.634 A2.5,2.5 0 0 1 727,90.134 L727,675.0661 A2.5,2.5 0 0 1 724.5,677.5661 L275.5,677.5661 A2.5,2.5 0 0 1 273,675.0661 L273,65.0661 A2.5,2.5 0 0 1 275.5,62.5661 " fill="#FFFFFF" style="stroke:#000000;stroke-width:1.0;"/><line style="stroke:#000000;stroke-width:1.0;" x1="273" x2="370" y1="87.634" y2="87.634"/><text fill="#000000" font-family="Verdana" font-size="14" font-weight="bold" lengthAdjust="spacing" textLength="84" x="277" y="79.532">Core Turnos</text></g><!--cluster Contexto Externo (Referencias)--><g id="cluster_Contexto Externo (Referencias)"><path d="M13.5,728.5661 L229.5,728.5661 A3.75,3.75 0 0 1 232,731.0661 L239,753.634 L506.5,753.634 A2.5,2.5 0 0 1 509,756.134 L509,1048.0661 A2.5,2.5 0 0 1 506.5,1050.5661 L13.5,1050.5661 A2.5,2.5 0 0 1 11,1048.0661 L11,731.0661 A2.5,2.5 0 0 1 13.5,728.5661 " fill="#FFFFFF" style="stroke:#000000;stroke-width:1.0;"/><line style="stroke:#000000;stroke-width:1.0;" x1="11" x2="239" y1="753.634" y2="753.634"/><text fill="#000000" font-family="Verdana" font-size="14" font-weight="bold" lengthAdjust="spacing" textLength="215" x="15" y="745.532">Contexto Externo (Referencias)</text></g><!--class Turno--><g id="elem_Turno"><rect codeLine="8" fill="#FFFFFF" height="331.0867" id="Turno" rx="2.5" ry="2.5" style="stroke:#000000;stroke-width:1.0;" width="291" x="352.5" y="330.5661"/><ellipse cx="474.25" cy="345.1" fill="#FFFFFF" rx="9" ry="9" style="stroke:#000000;stroke-width:1.0;"/><path d="M473.7188,352.0219 Q471.9688,352.0219 470.8281,351.2875 Q469.7031,350.5375 469.1406,349.1938 Q468.5938,347.8344 468.5938,346.0375 Q468.5938,344.0063 469.25,342.5532 Q469.9063,341.1 471.1875,340.3188 Q472.4688,339.5375 474.3438,339.5375 Q475.2344,339.5375 475.9063,339.725 Q476.5781,339.8969 477.2656,340.2407 L476.4531,342.2563 Q475.8281,341.9438 475.2813,341.8188 Q474.75,341.6938 474.2656,341.6938 Q473.0938,341.6938 472.3906,342.225 Q471.6875,342.7563 471.3906,343.7094 Q471.0938,344.6625 471.0938,345.9282 Q471.0938,347.9438 471.8125,348.9125 Q472.5313,349.8657 474.125,349.8657 Q474.7188,349.8657 475.3438,349.7094 Q475.9688,349.5532 476.7969,349.1782 L476.7969,351.3969 Q476.0625,351.7094 475.2656,351.8657 Q474.4844,352.0219 473.7188,352.0219 Z " fill="#000000"/><text fill="#000000" font-family="Verdana" font-size="14" lengthAdjust="spacing" textLength="40" x="491.75" y="350.532">Turno</text><line style="stroke:#000000;stroke-width:1.0;" x1="353.5" x2="642.5" y1="359.634" y2="359.634"/><rect fill="none" height="6" style="stroke:#000000;stroke-width:1.0;" width="6" x="360.5" y="371.668"/><text fill="#000000" font-family="Verdana" font-size="14" lengthAdjust="spacing" textLength="71" x="370.5" y="378.5999">id: Integer</text><rect fill="none" height="6" style="stroke:#000000;stroke-width:1.0;" width="6" x="360.5" y="390.7359"/><text fill="#000000" font-family="Verdana" font-size="14" lengthAdjust="spacing" textLength="110" x="370.5" y="397.6679">fecha: LocalDate</text><rect fill="none" height="6" style="stroke:#000000;stroke-width:1.0;" width="6" x="360.5" y="409.8038"/><text fill="#000000" font-family="Verdana" font-size="14" lengthAdjust="spacing" textLength="143" x="370.5" y="416.7358">horaInicio: LocalTime</text><rect fill="none" height="6" style="stroke:#000000;stroke-width:1.0;" width="6" x="360.5" y="428.8717"/><text fill="#000000" font-family="Verdana" font-size="14" lengthAdjust="spacing" textLength="126" x="370.5" y="435.8037">horaFin: LocalTime</text><rect fill="none" height="6" style="stroke:#000000;stroke-width:1.0;" width="6" x="360.5" y="447.9396"/><text fill="#000000" font-family="Verdana" font-size="14" lengthAdjust="spacing" textLength="145" x="370.5" y="454.8716">observaciones: String</text><rect fill="none" height="6" style="stroke:#000000;stroke-width:1.0;" width="6" x="360.5" y="467.0075"/><text fill="#000000" font-family="Verdana" font-size="14" lengthAdjust="spacing" textLength="105" x="370.5" y="473.9395">asistio: Boolean</text><rect fill="none" height="6" style="stroke:#000000;stroke-width:1.0;" width="6" x="360.5" y="486.0755"/><text fill="#000000" font-family="Verdana" font-size="14" lengthAdjust="spacing" textLength="267" x="370.5" y="493.0074">fechaRegistroAsistencia: LocalDateTime</text><ellipse cx="363.5" cy="531.2113" fill="none" rx="3" ry="3" style="stroke:#000000;stroke-width:1.0;"/><text fill="#000000" font-family="Verdana" font-size="14" lengthAdjust="spacing" textLength="123" x="370.5" y="535.1433">paciente: Paciente</text><ellipse cx="363.5" cy="550.2792" fill="none" rx="3" ry="3" style="stroke:#000000;stroke-width:1.0;"/><text fill="#000000" font-family="Verdana" font-size="14" lengthAdjust="spacing" textLength="167" x="370.5" y="554.2112">staffMedico: StaffMedico</text><ellipse cx="363.5" cy="569.3471" fill="none" rx="3" ry="3" style="stroke:#000000;stroke-width:1.0;"/><text fill="#000000" font-family="Verdana" font-size="14" lengthAdjust="spacing" textLength="160" x="370.5" y="573.2791">consultorio: Consultorio</text><line style="stroke:#000000;stroke-width:1.0;" x1="353.5" x2="436.5" y1="510.6434" y2="510.6434"/><text fill="#000000" font-family="Verdana" font-size="14" lengthAdjust="spacing" textLength="123" x="436.5" y="515.5754">Relaciones Activas</text><line style="stroke:#000000;stroke-width:1.0;" x1="559.5" x2="642.5" y1="510.6434" y2="510.6434"/><ellipse cx="363.5" cy="611.483" fill="none" rx="3" ry="3" style="stroke:#000000;stroke-width:1.0;"/><text fill="#000000" font-family="Verdana" font-size="14" lengthAdjust="spacing" textLength="106" x="370.5" y="615.4149">medico: Medico</text><ellipse cx="363.5" cy="630.5509" fill="none" rx="3" ry="3" style="stroke:#000000;stroke-width:1.0;"/><text fill="#000000" font-family="Verdana" font-size="14" lengthAdjust="spacing" textLength="178" x="370.5" y="634.4829">especialidad: Especialidad</text><ellipse cx="363.5" cy="649.6188" fill="none" rx="3" ry="3" style="stroke:#000000;stroke-width:1.0;"/><text fill="#000000" font-family="Verdana" font-size="14" lengthAdjust="spacing" textLength="214" x="370.5" y="653.5508">centroAtencion: CentroAtencion</text><line style="stroke:#000000;stroke-width:1.0;" x1="353.5" x2="403" y1="590.915" y2="590.915"/><text fill="#000000" font-family="Verdana" font-size="14" lengthAdjust="spacing" textLength="190" x="403" y="595.847">Datos Hist&#243;ricos (Snapshots)</text><line style="stroke:#000000;stroke-width:1.0;" x1="593" x2="642.5" y1="590.915" y2="590.915"/></g><!--class EstadoTurno--><g id="elem_EstadoTurno"><rect codeLine="26" fill="#FFFFFF" height="151.4754" id="EstadoTurno" rx="2.5" ry="2.5" style="stroke:#000000;stroke-width:1.0;" width="113" x="289.5" y="100.5661"/><ellipse cx="302.5" cy="115.1" fill="#FFFFFF" rx="9" ry="9" style="stroke:#000000;stroke-width:1.0;"/><path d="M298.8594,121.6 L298.8594,109.4594 L306.5156,109.4594 L306.5156,111.5844 L301.2344,111.5844 L301.2344,114.2407 L306.25,114.2407 L306.25,116.3657 L301.2344,116.3657 L301.2344,119.475 L306.5156,119.475 L306.5156,121.6 L298.8594,121.6 Z " fill="#000000"/><text fill="#000000" font-family="Verdana" font-size="14" lengthAdjust="spacing" textLength="85" x="314.5" y="120.532">EstadoTurno</text><line style="stroke:#000000;stroke-width:1.0;" x1="290.5" x2="401.5" y1="129.634" y2="129.634"/><text fill="#000000" font-family="Verdana" font-size="14" lengthAdjust="spacing" textLength="99" x="295.5" y="148.5999">PROGRAMADO</text><text fill="#000000" font-family="Verdana" font-size="14" lengthAdjust="spacing" textLength="95" x="295.5" y="167.6679">CONFIRMADO</text><text fill="#000000" font-family="Verdana" font-size="14" lengthAdjust="spacing" textLength="83" x="295.5" y="186.7358">CANCELADO</text><text fill="#000000" font-family="Verdana" font-size="14" lengthAdjust="spacing" textLength="95" x="295.5" y="205.8037">REAGENDADO</text><text fill="#000000" font-family="Verdana" font-size="14" lengthAdjust="spacing" textLength="75" x="295.5" y="224.8716">COMPLETO</text><text fill="#000000" font-family="Verdana" font-size="14" lengthAdjust="spacing" textLength="62" x="295.5" y="243.9395">AUSENTE</text></g><g id="elem_GMN5"><path d="M437.5,126.5661 L437.5,172.0661 L402.55,176.0661 L437.5,180.0661 L437.5,225.0962 A0,0 0 0 0 437.5,225.0962 L710.5,225.0962 A0,0 0 0 0 710.5,225.0962 L710.5,136.5661 L700.5,126.5661 L437.5,126.5661 A0,0 0 0 0 437.5,126.5661 " fill="#FFFFFF" style="stroke:#000000;stroke-width:1.0;"/><path d="M700.5,126.5661 L700.5,136.5661 L710.5,136.5661 L700.5,126.5661 " fill="#FFFFFF" style="stroke:#000000;stroke-width:1.0;"/><text fill="#000000" font-family="Verdana" font-size="13" lengthAdjust="spacing" textLength="113" x="443.5" y="145.4631">Reglas de Negocio:</text><text fill="#000000" font-family="Verdana" font-size="13" lengthAdjust="spacing" textLength="252" x="443.5" y="163.1691">- PROGRAMADO: Estado inicial por defecto</text><text fill="#000000" font-family="Verdana" font-size="13" lengthAdjust="spacing" textLength="239" x="443.5" y="180.8751">- CONFIRMADO: Por el paciente o admin</text><text fill="#000000" font-family="Verdana" font-size="13" lengthAdjust="spacing" textLength="194" x="443.5" y="198.5811">- COMPLETO: Atenci&#243;n finalizada</text><text fill="#000000" font-family="Verdana" font-size="13" lengthAdjust="spacing" textLength="212" x="443.5" y="216.2872">- AUSENTE: Paciente no se present&#243;</text></g><!--class Paciente--><g id="elem_Paciente"><rect codeLine="45" fill="#FFFFFF" height="132.4075" id="Paciente" rx="2.5" ry="2.5" style="stroke:#000000;stroke-width:1.0;" width="127" x="27.5" y="766.5661"/><ellipse cx="59.4" cy="781.1" fill="#FFFFFF" rx="9" ry="9" style="stroke:#000000;stroke-width:1.0;"/><path d="M58.8688,788.0219 Q57.1188,788.0219 55.9781,787.2875 Q54.8531,786.5375 54.2906,785.1938 Q53.7438,783.8344 53.7438,782.0375 Q53.7438,780.0063 54.4,778.5532 Q55.0563,777.1 56.3375,776.3188 Q57.6188,775.5375 59.4938,775.5375 Q60.3844,775.5375 61.0563,775.725 Q61.7281,775.8969 62.4156,776.2407 L61.6031,778.2563 Q60.9781,777.9438 60.4313,777.8188 Q59.9,777.6938 59.4156,777.6938 Q58.2438,777.6938 57.5406,778.225 Q56.8375,778.7563 56.5406,779.7094 Q56.2438,780.6625 56.2438,781.9282 Q56.2438,783.9438 56.9625,784.9125 Q57.6813,785.8657 59.275,785.8657 Q59.8688,785.8657 60.4938,785.7094 Q61.1188,785.5532 61.9469,785.1782 L61.9469,787.3969 Q61.2125,787.7094 60.4156,787.8657 Q59.6344,788.0219 58.8688,788.0219 Z " fill="#000000"/><text fill="#000000" font-family="Verdana" font-size="14" lengthAdjust="spacing" textLength="57" x="75.6" y="786.532">Paciente</text><line style="stroke:#000000;stroke-width:1.0;" x1="28.5" x2="153.5" y1="795.634" y2="795.634"/><rect fill="none" height="6" style="stroke:#000000;stroke-width:1.0;" width="6" x="35.5" y="807.668"/><text fill="#000000" font-family="Verdana" font-size="14" lengthAdjust="spacing" textLength="71" x="45.5" y="814.5999">id: Integer</text><rect fill="none" height="6" style="stroke:#000000;stroke-width:1.0;" width="6" x="35.5" y="826.7359"/><text fill="#000000" font-family="Verdana" font-size="14" lengthAdjust="spacing" textLength="102" x="45.5" y="833.6679">nombre: String</text><rect fill="none" height="6" style="stroke:#000000;stroke-width:1.0;" width="6" x="35.5" y="845.8038"/><text fill="#000000" font-family="Verdana" font-size="14" lengthAdjust="spacing" textLength="103" x="45.5" y="852.7358">apellido: String</text><rect fill="none" height="6" style="stroke:#000000;stroke-width:1.0;" width="6" x="35.5" y="864.8717"/><text fill="#000000" font-family="Verdana" font-size="14" lengthAdjust="spacing" textLength="71" x="45.5" y="871.8037">dni: String</text><rect fill="none" height="6" style="stroke:#000000;stroke-width:1.0;" width="6" x="35.5" y="883.9396"/><text fill="#000000" font-family="Verdana" font-size="14" lengthAdjust="spacing" textLength="86" x="45.5" y="890.8716">email: String</text></g><!--class StaffMedico--><g id="elem_StaffMedico"><rect codeLine="53" fill="#FFFFFF" height="75.2038" id="StaffMedico" rx="2.5" ry="2.5" style="stroke:#000000;stroke-width:1.0;" width="114" x="360" y="795.0661"/><ellipse cx="375.7" cy="809.6" fill="#FFFFFF" rx="9" ry="9" style="stroke:#000000;stroke-width:1.0;"/><path d="M375.1688,816.5219 Q373.4188,816.5219 372.2781,815.7875 Q371.1531,815.0375 370.5906,813.6938 Q370.0438,812.3344 370.0438,810.5375 Q370.0438,808.5063 370.7,807.0532 Q371.3563,805.6 372.6375,804.8188 Q373.9188,804.0375 375.7938,804.0375 Q376.6844,804.0375 377.3563,804.225 Q378.0281,804.3969 378.7156,804.7407 L377.9031,806.7563 Q377.2781,806.4438 376.7313,806.3188 Q376.2,806.1938 375.7156,806.1938 Q374.5438,806.1938 373.8406,806.725 Q373.1375,807.2563 372.8406,808.2094 Q372.5438,809.1625 372.5438,810.4282 Q372.5438,812.4438 373.2625,813.4125 Q373.9813,814.3657 375.575,814.3657 Q376.1688,814.3657 376.7938,814.2094 Q377.4188,814.0532 378.2469,813.6782 L378.2469,815.8969 Q377.5125,816.2094 376.7156,816.3657 Q375.9344,816.5219 375.1688,816.5219 Z " fill="#000000"/><text fill="#000000" font-family="Verdana" font-size="14" lengthAdjust="spacing" textLength="80" x="388.3" y="815.032">StaffMedico</text><line style="stroke:#000000;stroke-width:1.0;" x1="361" x2="473" y1="824.134" y2="824.134"/><rect fill="none" height="6" style="stroke:#000000;stroke-width:1.0;" width="6" x="368" y="836.168"/><text fill="#000000" font-family="Verdana" font-size="14" lengthAdjust="spacing" textLength="71" x="378" y="843.0999">id: Integer</text><rect fill="none" height="6" style="stroke:#000000;stroke-width:1.0;" width="6" x="368" y="855.2359"/><text fill="#000000" font-family="Verdana" font-size="14" lengthAdjust="spacing" textLength="90" x="378" y="862.1679">legajo: String</text></g><!--class Consultorio--><g id="elem_Consultorio"><rect codeLine="58" fill="#FFFFFF" height="94.2717" id="Consultorio" rx="2.5" ry="2.5" style="stroke:#000000;stroke-width:1.0;" width="135" x="189.5" y="785.5661"/><ellipse cx="216" cy="800.1" fill="#FFFFFF" rx="9" ry="9" style="stroke:#000000;stroke-width:1.0;"/><path d="M215.4688,807.0219 Q213.7188,807.0219 212.5781,806.2875 Q211.4531,805.5375 210.8906,804.1938 Q210.3438,802.8344 210.3438,801.0375 Q210.3438,799.0063 211,797.5532 Q211.6563,796.1 212.9375,795.3188 Q214.2188,794.5375 216.0938,794.5375 Q216.9844,794.5375 217.6563,794.725 Q218.3281,794.8969 219.0156,795.2407 L218.2031,797.2563 Q217.5781,796.9438 217.0313,796.8188 Q216.5,796.6938 216.0156,796.6938 Q214.8438,796.6938 214.1406,797.225 Q213.4375,797.7563 213.1406,798.7094 Q212.8438,799.6625 212.8438,800.9282 Q212.8438,802.9438 213.5625,803.9125 Q214.2813,804.8657 215.875,804.8657 Q216.4688,804.8657 217.0938,804.7094 Q217.7188,804.5532 218.5469,804.1782 L218.5469,806.3969 Q217.8125,806.7094 217.0156,806.8657 Q216.2344,807.0219 215.4688,807.0219 Z " fill="#000000"/><text fill="#000000" font-family="Verdana" font-size="14" lengthAdjust="spacing" textLength="77" x="231" y="805.532">Consultorio</text><line style="stroke:#000000;stroke-width:1.0;" x1="190.5" x2="323.5" y1="814.634" y2="814.634"/><rect fill="none" height="6" style="stroke:#000000;stroke-width:1.0;" width="6" x="197.5" y="826.668"/><text fill="#000000" font-family="Verdana" font-size="14" lengthAdjust="spacing" textLength="71" x="207.5" y="833.5999">id: Integer</text><rect fill="none" height="6" style="stroke:#000000;stroke-width:1.0;" width="6" x="197.5" y="845.7359"/><text fill="#000000" font-family="Verdana" font-size="14" lengthAdjust="spacing" textLength="102" x="207.5" y="852.6679">nombre: String</text><rect fill="none" height="6" style="stroke:#000000;stroke-width:1.0;" width="6" x="197.5" y="864.8038"/><text fill="#000000" font-family="Verdana" font-size="14" lengthAdjust="spacing" textLength="111" x="207.5" y="871.7358">numero: Integer</text></g><!--class CentroAtencion--><g id="elem_CentroAtencion"><rect codeLine="64" fill="#FFFFFF" height="75.2038" id="CentroAtencion" rx="2.5" ry="2.5" style="stroke:#000000;stroke-width:1.0;" width="132" x="27" y="959.5661"/><ellipse cx="40" cy="974.1" fill="#FFFFFF" rx="9" ry="9" style="stroke:#000000;stroke-width:1.0;"/><path d="M39.4688,981.0219 Q37.7188,981.0219 36.5781,980.2875 Q35.4531,979.5375 34.8906,978.1938 Q34.3438,976.8344 34.3438,975.0375 Q34.3438,973.0063 35,971.5532 Q35.6563,970.1 36.9375,969.3188 Q38.2188,968.5375 40.0938,968.5375 Q40.9844,968.5375 41.6563,968.725 Q42.3281,968.8969 43.0156,969.2407 L42.2031,971.2563 Q41.5781,970.9438 41.0313,970.8188 Q40.5,970.6938 40.0156,970.6938 Q38.8438,970.6938 38.1406,971.225 Q37.4375,971.7563 37.1406,972.7094 Q36.8438,973.6625 36.8438,974.9282 Q36.8438,976.9438 37.5625,977.9125 Q38.2813,978.8657 39.875,978.8657 Q40.4688,978.8657 41.0938,978.7094 Q41.7188,978.5532 42.5469,978.1782 L42.5469,980.3969 Q41.8125,980.7094 41.0156,980.8657 Q40.2344,981.0219 39.4688,981.0219 Z " fill="#000000"/><text fill="#000000" font-family="Verdana" font-size="14" lengthAdjust="spacing" textLength="104" x="52" y="979.532">CentroAtencion</text><line style="stroke:#000000;stroke-width:1.0;" x1="28" x2="158" y1="988.634" y2="988.634"/><rect fill="none" height="6" style="stroke:#000000;stroke-width:1.0;" width="6" x="35" y="1000.668"/><text fill="#000000" font-family="Verdana" font-size="14" lengthAdjust="spacing" textLength="71" x="45" y="1007.5999">id: Integer</text><rect fill="none" height="6" style="stroke:#000000;stroke-width:1.0;" width="6" x="35" y="1019.7359"/><text fill="#000000" font-family="Verdana" font-size="14" lengthAdjust="spacing" textLength="102" x="45" y="1026.6679">nombre: String</text></g><!--class Medico--><g id="elem_Medico"><rect codeLine="69" fill="#FFFFFF" height="75.2038" id="Medico" rx="2.5" ry="2.5" style="stroke:#000000;stroke-width:1.0;" width="137" x="194.5" y="959.5661"/><ellipse cx="234.75" cy="974.1" fill="#FFFFFF" rx="9" ry="9" style="stroke:#000000;stroke-width:1.0;"/><path d="M234.2188,981.0219 Q232.4688,981.0219 231.3281,980.2875 Q230.2031,979.5375 229.6406,978.1938 Q229.0938,976.8344 229.0938,975.0375 Q229.0938,973.0063 229.75,971.5532 Q230.4063,970.1 231.6875,969.3188 Q232.9688,968.5375 234.8438,968.5375 Q235.7344,968.5375 236.4063,968.725 Q237.0781,968.8969 237.7656,969.2407 L236.9531,971.2563 Q236.3281,970.9438 235.7813,970.8188 Q235.25,970.6938 234.7656,970.6938 Q233.5938,970.6938 232.8906,971.225 Q232.1875,971.7563 231.8906,972.7094 Q231.5938,973.6625 231.5938,974.9282 Q231.5938,976.9438 232.3125,977.9125 Q233.0313,978.8657 234.625,978.8657 Q235.2188,978.8657 235.8438,978.7094 Q236.4688,978.5532 237.2969,978.1782 L237.2969,980.3969 Q236.5625,980.7094 235.7656,980.8657 Q234.9844,981.0219 234.2188,981.0219 Z " fill="#000000"/><text fill="#000000" font-family="Verdana" font-size="14" lengthAdjust="spacing" textLength="49" x="252.25" y="979.532">Medico</text><line style="stroke:#000000;stroke-width:1.0;" x1="195.5" x2="330.5" y1="988.634" y2="988.634"/><rect fill="none" height="6" style="stroke:#000000;stroke-width:1.0;" width="6" x="202.5" y="1000.668"/><text fill="#000000" font-family="Verdana" font-size="14" lengthAdjust="spacing" textLength="71" x="212.5" y="1007.5999">id: Integer</text><rect fill="none" height="6" style="stroke:#000000;stroke-width:1.0;" width="6" x="202.5" y="1019.7359"/><text fill="#000000" font-family="Verdana" font-size="14" lengthAdjust="spacing" textLength="113" x="212.5" y="1026.6679">matricula: String</text></g><!--class Especialidad--><g id="elem_Especialidad"><rect codeLine="74" fill="#FFFFFF" height="75.2038" id="Especialidad" rx="2.5" ry="2.5" style="stroke:#000000;stroke-width:1.0;" width="126" x="367" y="959.5661"/><ellipse cx="385.85" cy="974.1" fill="#FFFFFF" rx="9" ry="9" style="stroke:#000000;stroke-width:1.0;"/><path d="M385.3188,981.0219 Q383.5688,981.0219 382.4281,980.2875 Q381.3031,979.5375 380.7406,978.1938 Q380.1938,976.8344 380.1938,975.0375 Q380.1938,973.0063 380.85,971.5532 Q381.5063,970.1 382.7875,969.3188 Q384.0688,968.5375 385.9438,968.5375 Q386.8344,968.5375 387.5063,968.725 Q388.1781,968.8969 388.8656,969.2407 L388.0531,971.2563 Q387.4281,970.9438 386.8813,970.8188 Q386.35,970.6938 385.8656,970.6938 Q384.6938,970.6938 383.9906,971.225 Q383.2875,971.7563 382.9906,972.7094 Q382.6938,973.6625 382.6938,974.9282 Q382.6938,976.9438 383.4125,977.9125 Q384.1313,978.8657 385.725,978.8657 Q386.3188,978.8657 386.9438,978.7094 Q387.5688,978.5532 388.3969,978.1782 L388.3969,980.3969 Q387.6625,980.7094 386.8656,980.8657 Q386.0844,981.0219 385.3188,981.0219 Z " fill="#000000"/><text fill="#000000" font-family="Verdana" font-size="14" lengthAdjust="spacing" textLength="85" x="399.15" y="979.532">Especialidad</text><line style="stroke:#000000;stroke-width:1.0;" x1="368" x2="492" y1="988.634" y2="988.634"/><rect fill="none" height="6" style="stroke:#000000;stroke-width:1.0;" width="6" x="375" y="1000.668"/><text fill="#000000" font-family="Verdana" font-size="14" lengthAdjust="spacing" textLength="71" x="385" y="1007.5999">id: Integer</text><rect fill="none" height="6" style="stroke:#000000;stroke-width:1.0;" width="6" x="375" y="1019.7359"/><text fill="#000000" font-family="Verdana" font-size="14" lengthAdjust="spacing" textLength="102" x="385" y="1026.6679">nombre: String</text></g><g id="elem_GMN27"><path d="M743.5,446.5661 L743.5,492.0661 L643.62,496.0661 L743.5,500.0661 L743.5,545.0962 A0,0 0 0 0 743.5,545.0962 L992.5,545.0962 A0,0 0 0 0 992.5,545.0962 L992.5,456.5661 L982.5,446.5661 L743.5,446.5661 A0,0 0 0 0 743.5,446.5661 " fill="#FFFFFF" style="stroke:#000000;stroke-width:1.0;"/><path d="M982.5,446.5661 L982.5,456.5661 L992.5,456.5661 L982.5,446.5661 " fill="#FFFFFF" style="stroke:#000000;stroke-width:1.0;"/><text fill="#000000" font-family="Verdana" font-size="13" font-weight="bold" lengthAdjust="spacing" textLength="187" x="749.5" y="465.4631">Invariante de Solapamiento:</text><text fill="#000000" font-family="Verdana" font-size="13" lengthAdjust="spacing" textLength="219" x="749.5" y="483.1691">No pueden existir dos turnos activos</text><text fill="#000000" font-family="Verdana" font-size="13" lengthAdjust="spacing" textLength="228" x="749.5" y="500.8751">(estado != CANCELADO) para el mismo</text><text fill="#000000" font-family="Verdana" font-size="13" lengthAdjust="spacing" textLength="203" x="749.5" y="518.5811">StaffMedico en el mismo rango de</text><text fill="#000000" font-family="Verdana" font-size="13" lengthAdjust="spacing" textLength="136" x="749.5" y="536.2872">Fecha + HoraInicio/Fin.</text></g><!--reverse link EstadoTurno to Turno--><g id="link_EstadoTurno_Turno"><path codeLine="81" d="M384.2272,257.0396 C395.5872,280.8096 406.06,302.7161 419.23,330.2661 " fill="none" id="EstadoTurno-backto-Turno" style="stroke:#000000;stroke-width:1.0;"/><polygon fill="#000000" points="381.64,251.6261,381.9118,261.4712,383.796,256.1374,389.1298,258.0216,381.64,251.6261" style="stroke:#000000;stroke-width:1.0;"/><text fill="#000000" font-family="Verdana" font-size="13" lengthAdjust="spacing" textLength="74" x="405" y="296.4631">tiene estado</text><text fill="#000000" font-family="Verdana" font-size="13" lengthAdjust="spacing" textLength="7" x="377.8038" y="273.8091">1</text><text fill="#000000" font-family="Verdana" font-size="13" lengthAdjust="spacing" textLength="7" x="408.245" y="318.7354">1</text></g><!--link Turno to Paciente--><g id="link_Turno_Paciente"><path codeLine="82" d="M352.46,581.7061 C293.04,619.9861 225.78,668.3361 172,720.5661 C157.97,734.1961 148.1674,745.6444 136.4974,761.4944 " fill="none" id="Turno-to-Paciente" style="stroke:#000000;stroke-width:1.0;"/><polygon fill="#000000" points="132.94,766.3261,141.4972,761.4502,135.9045,762.2997,135.055,756.707,132.94,766.3261" style="stroke:#000000;stroke-width:1.0;"/><text fill="#000000" font-family="Verdana" font-size="13" lengthAdjust="spacing" textLength="81" x="197" y="708.4631">solicitado por</text><text fill="#000000" font-family="Verdana" font-size="13" lengthAdjust="spacing" textLength="7" x="337.3094" y="582.8386">1</text><text fill="#000000" font-family="Verdana" font-size="13" lengthAdjust="spacing" textLength="7" x="130.3846" y="754.5985">1</text></g><!--link Turno to StaffMedico--><g id="link_Turno_StaffMedico"><path codeLine="83" d="M458.09,661.8661 C445.99,711.8361 435.2324,756.2647 427.3124,788.9647 " fill="none" id="Turno-to-StaffMedico" style="stroke:#000000;stroke-width:1.0;"/><polygon fill="#000000" points="425.9,794.7961,431.9062,786.9906,427.077,789.9366,424.131,785.1074,425.9,794.7961" style="stroke:#000000;stroke-width:1.0;"/><text fill="#000000" font-family="Verdana" font-size="13" lengthAdjust="spacing" textLength="65" x="451" y="708.4631">asignado a</text><text fill="#000000" font-family="Verdana" font-size="13" lengthAdjust="spacing" textLength="7" x="449.123" y="683.6751">1</text><text fill="#000000" font-family="Verdana" font-size="13" lengthAdjust="spacing" textLength="7" x="419.8956" y="783.2084">1</text></g><!--link Turno to Consultorio--><g id="link_Turno_Consultorio"><path codeLine="84" d="M379.27,661.8661 C346.59,707.2161 317.2465,747.9374 293.8465,780.4274 " fill="none" id="Turno-to-Consultorio" style="stroke:#000000;stroke-width:1.0;"/><polygon fill="#000000" points="290.34,785.2961,298.8456,780.3307,293.2621,781.2388,292.354,775.6553,290.34,785.2961" style="stroke:#000000;stroke-width:1.0;"/><text fill="#000000" font-family="Verdana" font-size="13" lengthAdjust="spacing" textLength="64" x="357" y="708.4631">lugar f&#237;sico</text><text fill="#000000" font-family="Verdana" font-size="13" lengthAdjust="spacing" textLength="7" x="366.7315" y="683.6751">1</text><text fill="#000000" font-family="Verdana" font-size="13" lengthAdjust="spacing" textLength="7" x="287.9093" y="773.6866">1</text></g><!--link Turno to Medico--><g id="link_Turno_Medico"><path codeLine="87" d="M639.04,661.8761 C686.83,738.2161 716.54,827.5361 665,898.5661 C635.56,939.1361 437.63,935.2161 349,959.5661 C343.37,961.1161 343.2807,960.9569 337.5607,962.9669 " fill="none" id="Turno-to-Medico" style="stroke:#000000;stroke-width:1.0;stroke-dasharray:7.0,7.0;"/><polygon fill="#000000" points="331.9,964.9561,341.7171,965.7461,336.6172,963.2985,339.0649,958.1986,331.9,964.9561" style="stroke:#000000;stroke-width:1.0;"/><text fill="#000000" font-family="Verdana" font-size="13" lengthAdjust="spacing" textLength="111" x="693" y="837.9631">snapshot hist&#243;rico</text></g><!--link Turno to Especialidad--><g id="link_Turno_Especialidad"><path codeLine="88" d="M643.51,631.9261 C669.71,651.8561 697.72,670.6561 726,685.5661 C750.95,698.7161 831.03,698.0361 848,720.5661 C895.61,783.7461 894.46,834.5361 848,898.5661 C806.75,955.4161 605.5949,980.8579 499.2249,990.6179 " fill="none" id="Turno-to-Especialidad" style="stroke:#000000;stroke-width:1.0;stroke-dasharray:7.0,7.0;"/><polygon fill="#000000" points="493.25,991.1661,502.5778,994.327,498.2291,990.7092,501.8469,986.3605,493.25,991.1661" style="stroke:#000000;stroke-width:1.0;"/><text fill="#000000" font-family="Verdana" font-size="13" lengthAdjust="spacing" textLength="111" x="884" y="837.9631">snapshot hist&#243;rico</text></g><!--link Turno to CentroAtencion--><g id="link_Turno_CentroAtencion"><path codeLine="89" d="M519.6,661.7761 C520.55,672.5161 521.37,683.1861 522,693.5661 C527.01,775.9161 500.34,889.9661 492,898.5661 C392.76,1000.9661 313.21,917.3461 177,959.5661 C171.23,961.3561 170.9333,961.2968 165.0533,963.5168 " fill="none" id="Turno-to-CentroAtencion" style="stroke:#000000;stroke-width:1.0;stroke-dasharray:7.0,7.0;"/><polygon fill="#000000" points="159.44,965.6361,169.2727,966.1993,164.1177,963.87,166.447,958.715,159.44,965.6361" style="stroke:#000000;stroke-width:1.0;"/><text fill="#000000" font-family="Verdana" font-size="13" lengthAdjust="spacing" textLength="111" x="523" y="837.9631">snapshot hist&#243;rico</text></g><!--link StaffMedico to Medico--><g id="link_StaffMedico_Medico"><path codeLine="92" d="M382.06,870.4361 C356.85,897.0361 327.1072,928.421 301.9372,954.981 " fill="none" id="StaffMedico-to-Medico" style="stroke:#000000;stroke-width:1.0;"/><polygon fill="#000000" points="297.81,959.3361,306.9041,955.5549,301.2493,955.7069,301.0973,950.052,297.81,959.3361" style="stroke:#000000;stroke-width:1.0;"/></g><!--link StaffMedico to Especialidad--><g id="link_StaffMedico_Especialidad"><path codeLine="93" d="M419.95,870.4361 C422.08,897.0361 424.4626,926.7951 426.5826,953.3551 " fill="none" id="StaffMedico-to-Especialidad" style="stroke:#000000;stroke-width:1.0;"/><polygon fill="#000000" points="427.06,959.3361,430.3312,950.0464,426.6622,954.3519,422.3566,950.6829,427.06,959.3361" style="stroke:#000000;stroke-width:1.0;"/></g><!--link StaffMedico to CentroAtencion--><g id="link_StaffMedico_CentroAtencion"><path codeLine="94" d="M380.13,870.1561 C368.58,880.2961 355.35,890.6761 342,898.5661 C274.7,938.3661 249.55,930.4161 177,959.5661 C171.25,961.8761 170.833,962.0152 164.873,964.5152 " fill="none" id="StaffMedico-to-CentroAtencion" style="stroke:#000000;stroke-width:1.0;"/><polygon fill="#000000" points="159.34,966.8361,169.1867,967.0434,163.9508,964.902,166.0922,959.6661,159.34,966.8361" style="stroke:#000000;stroke-width:1.0;"/></g><!--link Consultorio to CentroAtencion--><g id="link_Consultorio_CentroAtencion"><path codeLine="95" d="M210.44,879.6961 C184.97,904.9361 158.1014,931.5523 134.3014,955.1423 " fill="none" id="Consultorio-to-CentroAtencion" style="stroke:#000000;stroke-width:1.0;"/><polygon fill="#000000" points="130.04,959.3661,139.248,955.8713,133.5912,955.8463,133.6162,950.1895,130.04,959.3661" style="stroke:#000000;stroke-width:1.0;"/></g><!--SRC=[fLRDRjim3BxxARXSrdPeXrqDh42MfZz0anPfTovOct6qoQ8XAKMteO-qKnyXBpRATXqvpTQYyo68o4_YZpwIUkSNL19K6fL95YedeBBoFw0al-3S9ObNNXDCE2VD8EeZBfLH3FimMJtcoqPulRI61LnXzXqBWi68xPDq0B-I1EJBD3hN24K4xRSFAa_Xp7Wgo4RIEMKBJE6SCzH7w2bIBTZYcL6PubP_hSfD_R4osvLywyZUeMmsv5AuybQP8jAZKyw7axymQqApwTAC2W5O7WOScKp5JlPitTp0Z7Hh2OQPLtVeHDe1Fe3aIv64di9b-ozIEe_p-OHobN7mirj4a8oDMshFDZWyMYzY7yGlTd0gtguUhMnti7Dbi78BzcwtxqxP6djcXrn54gbMESfbZQDLx8puBtcfayAI_L5lNGCV6YQGMPPoYiUSD-bmERiucGqdmwEBJZIwc1wVpVgYuNGqFeybi_7mP3mzwk-RN9wFhzU2uTUhyVHw77jYs1DOLImyy3nsQNqm5SBRGF8f5Hmu5p5YxMtQRWOLY8aQAhQoIIZZETgmZaMkN12aEmu00-PIMprq4q4AJHPNZmRcoaZcVsAE4R2DR4qZ2GoSbBKb9ylLOvlsl0uuUUXLgi3lFSFutbEuYvsPU6rhPhlTGNirJUrsfxzSleRBMqlRwgiYBSpXBQhSg2rIAb7fdlmXxYTHORp2BKq5VkE_dnRLqFy4AVmco_qj3_LlRAjN7sypz-pGLsUYH3abMshyztbnhR_LHSdm-xWLNeekKnLgSabJ_uDF0zXVLlk7zR-uCwJWXN8obMfP36_17ITJSAobzkegbEhRWesvaePENvW0nYtGc0Wfw6M15kQhtoxqnNuqqXdgFDWwHLsVnRZDjWOE3WwXC-zQBIowrXp1Udb_2Rp1fEtmPrw7jYORWmKHK5t-8jfvwWYxIPola9XsBcoAU_DWKxan1UAyRb4dTKFMDA_xyReJx-sTcJkq2iDDY-zNhB72CjmyftjxDMOgrxwad8p44cQuz5yPThv-X026yIjFb03SQSW4xpwl1yckz66BeH-NofMDqJYKS6gh0ukc2C-U6dGS7WKo_KwxHyb7UNiS95sp_GC0]--></g></svg>