<?xml version="1.0" encoding="us-ascii" standalone="no"?><svg xmlns="http://www.w3.org/2000/svg" xmlns:xlink="http://www.w3.org/1999/xlink" contentStyleType="text/css" height="1831px" preserveAspectRatio="none" style="width:1912px;height:1831px;background:#FFFFFF;" version="1.1" viewBox="0 0 1912 1831" width="1912px" zoomAndPan="magnify"><defs/><g><rect fill="#F9F9F9" height="1819.1246" style="stroke:#000000;stroke-width:1.0;" width="1116.5" x="655" y="6"/><text fill="#000000" font-family="Verdana" font-size="13" font-weight="bold" lengthAdjust="spacing" textLength="94" x="1166.25" y="19.897">Backend Logic</text><rect fill="#FFFFFF" height="573.6902" style="stroke:#000000;stroke-width:1.0;" width="10" x="709.5" y="213.892"/><rect fill="#FFFFFF" height="541.9842" style="stroke:#000000;stroke-width:1.0;" width="10" x="909.5" y="245.598"/><rect fill="#FFFFFF" height="573.7083" style="stroke:#000000;stroke-width:1.0;" width="10" x="909.5" y="1079.9363"/><rect fill="#FFFFFF" height="63.412" style="stroke:#000000;stroke-width:1.0;" width="10" x="1202.5" y="614.0521"/><rect fill="#FFFFFF" height="63.412" style="stroke:#000000;stroke-width:1.0;" width="10" x="1202.5" y="1111.6423"/><rect fill="#FFFFFF" height="797.6504" style="stroke:#000000;stroke-width:1.0;" width="10" x="1317.5" y="926.4062"/><rect fill="#FFFFFF" height="734.2384" style="stroke:#000000;stroke-width:1.0;" width="10" x="1493.5" y="958.1123"/><rect fill="#FFFFFF" height="31.706" style="stroke:#000000;stroke-width:1.0;" width="10" x="1601.5" y="1517.8205"/><rect fill="#FFFFFF" height="419.8661" style="stroke:#000000;stroke-width:1.0;" width="1840.5" x="35" y="360.716"/><rect fill="#FFFFFF" height="207.218" style="stroke:none;stroke-width:1.0;" width="1840.5" x="35" y="573.3642"/><rect fill="#FFFFFF" height="353.7662" style="stroke:#000000;stroke-width:1.0;" width="1860.5" x="25" y="1307.8784"/><rect fill="#FFFFFF" height="243.6481" style="stroke:#000000;stroke-width:1.0;" width="1840.5" x="35" y="1379.2905"/><rect fill="#FFFFFF" height="19.706" style="stroke:#000000;stroke-width:1.0;" width="321" x="55" y="1596.2326"/><line style="stroke:#000000;stroke-width:1.0;" x1="115" x2="115" y1="85.0679" y2="1742.0566"/><line style="stroke:#000000;stroke-width:1.0;" x1="429" x2="429" y1="85.0679" y2="1742.0566"/><line style="stroke:#000000;stroke-width:1.0;" x1="714" x2="714" y1="85.0679" y2="1742.0566"/><line style="stroke:#000000;stroke-width:1.0;" x1="914" x2="914" y1="85.0679" y2="1742.0566"/><line style="stroke:#000000;stroke-width:1.0;" x1="1207" x2="1207" y1="85.0679" y2="1742.0566"/><line style="stroke:#000000;stroke-width:1.0;" x1="1322" x2="1322" y1="85.0679" y2="1742.0566"/><line style="stroke:#000000;stroke-width:1.0;" x1="1498.5" x2="1498.5" y1="85.0679" y2="1742.0566"/><line style="stroke:#000000;stroke-width:1.0;" x1="1606.5" x2="1606.5" y1="85.0679" y2="1742.0566"/><line style="stroke:#000000;stroke-width:1.0;" x1="1720.5" x2="1720.5" y1="85.0679" y2="1742.0566"/><line style="stroke:#000000;stroke-width:1.0;" x1="1823.5" x2="1823.5" y1="85.0679" y2="1742.0566"/><text fill="#000000" font-family="Verdana" font-size="14" lengthAdjust="spacing" textLength="135" x="45" y="80.9659">Paciente / Operador</text><ellipse cx="115.5" cy="14" fill="#FFFFFF" rx="8" ry="8" style="stroke:#000000;stroke-width:1.0;"/><path d="M115.5,22 L115.5,49 M102.5,30 L128.5,30 M115.5,49 L102.5,64 M115.5,49 L128.5,64 " fill="none" style="stroke:#000000;stroke-width:1.0;"/><text fill="#000000" font-family="Verdana" font-size="14" lengthAdjust="spacing" textLength="135" x="45" y="1756.0226">Paciente / Operador</text><ellipse cx="115.5" cy="1769.1246" fill="#FFFFFF" rx="8" ry="8" style="stroke:#000000;stroke-width:1.0;"/><path d="M115.5,1777.1246 L115.5,1804.1246 M102.5,1785.1246 L128.5,1785.1246 M115.5,1804.1246 L102.5,1819.1246 M115.5,1804.1246 L128.5,1819.1246 " fill="none" style="stroke:#000000;stroke-width:1.0;"/><rect fill="#FFFFFF" height="33.0679" rx="2.5" ry="2.5" style="stroke:#000000;stroke-width:1.0;" width="75" x="392" y="51"/><text fill="#000000" font-family="Verdana" font-size="14" lengthAdjust="spacing" textLength="61" x="399" y="72.9659">Frontend</text><rect fill="#FFFFFF" height="33.0679" rx="2.5" ry="2.5" style="stroke:#000000;stroke-width:1.0;" width="75" x="392" y="1741.0566"/><text fill="#000000" font-family="Verdana" font-size="14" lengthAdjust="spacing" textLength="61" x="399" y="1763.0226">Frontend</text><rect fill="#FFFFFF" height="52.1358" rx="2.5" ry="2.5" style="stroke:#000000;stroke-width:1.0;" width="91" x="669" y="31.9321"/><text fill="#000000" font-family="Verdana" font-size="14" lengthAdjust="spacing" textLength="77" x="676" y="53.898">ListaEspera</text><text fill="#000000" font-family="Verdana" font-size="14" lengthAdjust="spacing" textLength="65" x="682" y="72.9659">Presenter</text><rect fill="#FFFFFF" height="52.1358" rx="2.5" ry="2.5" style="stroke:#000000;stroke-width:1.0;" width="91" x="669" y="1741.0566"/><text fill="#000000" font-family="Verdana" font-size="14" lengthAdjust="spacing" textLength="77" x="676" y="1763.0226">ListaEspera</text><text fill="#000000" font-family="Verdana" font-size="14" lengthAdjust="spacing" textLength="65" x="682" y="1782.0905">Presenter</text><rect fill="#FFFFFF" height="52.1358" rx="2.5" ry="2.5" style="stroke:#000000;stroke-width:1.0;" width="91" x="869" y="31.9321"/><text fill="#000000" font-family="Verdana" font-size="14" lengthAdjust="spacing" textLength="77" x="876" y="53.898">ListaEspera</text><text fill="#000000" font-family="Verdana" font-size="14" lengthAdjust="spacing" textLength="48" x="890.5" y="72.9659">Service</text><rect fill="#FFFFFF" height="52.1358" rx="2.5" ry="2.5" style="stroke:#000000;stroke-width:1.0;" width="91" x="869" y="1741.0566"/><text fill="#000000" font-family="Verdana" font-size="14" lengthAdjust="spacing" textLength="77" x="876" y="1763.0226">ListaEspera</text><text fill="#000000" font-family="Verdana" font-size="14" lengthAdjust="spacing" textLength="48" x="890.5" y="1782.0905">Service</text><rect fill="#FFFFFF" height="52.1358" rx="2.5" ry="2.5" style="stroke:#000000;stroke-width:1.0;" width="91" x="1162" y="31.9321"/><text fill="#000000" font-family="Verdana" font-size="14" lengthAdjust="spacing" textLength="77" x="1169" y="53.898">ListaEspera</text><text fill="#000000" font-family="Verdana" font-size="14" lengthAdjust="spacing" textLength="71" x="1172" y="72.9659">Repository</text><rect fill="#FFFFFF" height="52.1358" rx="2.5" ry="2.5" style="stroke:#000000;stroke-width:1.0;" width="91" x="1162" y="1741.0566"/><text fill="#000000" font-family="Verdana" font-size="14" lengthAdjust="spacing" textLength="77" x="1169" y="1763.0226">ListaEspera</text><text fill="#000000" font-family="Verdana" font-size="14" lengthAdjust="spacing" textLength="71" x="1172" y="1782.0905">Repository</text><rect fill="#FFFFFF" height="52.1358" rx="2.5" ry="2.5" style="stroke:#000000;stroke-width:1.0;" width="79" x="1283" y="31.9321"/><text fill="#000000" font-family="Verdana" font-size="14" lengthAdjust="spacing" textLength="40" x="1302.5" y="53.898">Turno</text><text fill="#000000" font-family="Verdana" font-size="14" lengthAdjust="spacing" textLength="65" x="1290" y="72.9659">Presenter</text><rect fill="#FFFFFF" height="52.1358" rx="2.5" ry="2.5" style="stroke:#000000;stroke-width:1.0;" width="79" x="1283" y="1741.0566"/><text fill="#000000" font-family="Verdana" font-size="14" lengthAdjust="spacing" textLength="40" x="1302.5" y="1763.0226">Turno</text><text fill="#000000" font-family="Verdana" font-size="14" lengthAdjust="spacing" textLength="65" x="1290" y="1782.0905">Presenter</text><rect fill="#FFFFFF" height="52.1358" rx="2.5" ry="2.5" style="stroke:#000000;stroke-width:1.0;" width="62" x="1467.5" y="31.9321"/><text fill="#000000" font-family="Verdana" font-size="14" lengthAdjust="spacing" textLength="40" x="1478.5" y="53.898">Turno</text><text fill="#000000" font-family="Verdana" font-size="14" lengthAdjust="spacing" textLength="48" x="1474.5" y="72.9659">Service</text><rect fill="#FFFFFF" height="52.1358" rx="2.5" ry="2.5" style="stroke:#000000;stroke-width:1.0;" width="62" x="1467.5" y="1741.0566"/><text fill="#000000" font-family="Verdana" font-size="14" lengthAdjust="spacing" textLength="40" x="1478.5" y="1763.0226">Turno</text><text fill="#000000" font-family="Verdana" font-size="14" lengthAdjust="spacing" textLength="48" x="1474.5" y="1782.0905">Service</text><rect fill="#FFFFFF" height="52.1358" rx="2.5" ry="2.5" style="stroke:#000000;stroke-width:1.0;" width="94" x="1559.5" y="31.9321"/><text fill="#000000" font-family="Verdana" font-size="14" lengthAdjust="spacing" textLength="80" x="1566.5" y="53.898">Notificacion</text><text fill="#000000" font-family="Verdana" font-size="14" lengthAdjust="spacing" textLength="48" x="1582.5" y="72.9659">Service</text><rect fill="#FFFFFF" height="52.1358" rx="2.5" ry="2.5" style="stroke:#000000;stroke-width:1.0;" width="94" x="1559.5" y="1741.0566"/><text fill="#000000" font-family="Verdana" font-size="14" lengthAdjust="spacing" textLength="80" x="1566.5" y="1763.0226">Notificacion</text><text fill="#000000" font-family="Verdana" font-size="14" lengthAdjust="spacing" textLength="48" x="1582.5" y="1782.0905">Service</text><rect fill="#FFFFFF" height="52.1358" rx="2.5" ry="2.5" style="stroke:#000000;stroke-width:1.0;" width="74" x="1683.5" y="31.9321"/><text fill="#000000" font-family="Verdana" font-size="14" lengthAdjust="spacing" textLength="60" x="1690.5" y="53.898">AuditLog</text><text fill="#000000" font-family="Verdana" font-size="14" lengthAdjust="spacing" textLength="48" x="1696.5" y="72.9659">Service</text><rect fill="#FFFFFF" height="52.1358" rx="2.5" ry="2.5" style="stroke:#000000;stroke-width:1.0;" width="74" x="1683.5" y="1741.0566"/><text fill="#000000" font-family="Verdana" font-size="14" lengthAdjust="spacing" textLength="60" x="1690.5" y="1763.0226">AuditLog</text><text fill="#000000" font-family="Verdana" font-size="14" lengthAdjust="spacing" textLength="48" x="1696.5" y="1782.0905">Service</text><text fill="#000000" font-family="Verdana" font-size="14" lengthAdjust="spacing" textLength="77" x="1782.5" y="80.9659">PostgreSQL</text><path d="M1806,30 C1806,20 1824,20 1824,20 C1824,20 1842,20 1842,30 L1842,56 C1842,66 1824,66 1824,66 C1824,66 1806,66 1806,56 L1806,30 " fill="#FFFFFF" style="stroke:#000000;stroke-width:1.5;"/><path d="M1806,30 C1806,40 1824,40 1824,40 C1824,40 1842,40 1842,30 " fill="none" style="stroke:#000000;stroke-width:1.5;"/><text fill="#000000" font-family="Verdana" font-size="14" lengthAdjust="spacing" textLength="77" x="1782.5" y="1756.0226">PostgreSQL</text><path d="M1806,1770.1246 C1806,1760.1246 1824,1760.1246 1824,1760.1246 C1824,1760.1246 1842,1760.1246 1842,1770.1246 L1842,1796.1246 C1842,1806.1246 1824,1806.1246 1824,1806.1246 C1824,1806.1246 1806,1806.1246 1806,1796.1246 L1806,1770.1246 " fill="#FFFFFF" style="stroke:#000000;stroke-width:1.5;"/><path d="M1806,1770.1246 C1806,1780.1246 1824,1780.1246 1824,1780.1246 C1824,1780.1246 1842,1780.1246 1842,1770.1246 " fill="none" style="stroke:#000000;stroke-width:1.5;"/><rect fill="#FFFFFF" height="573.6902" style="stroke:#000000;stroke-width:1.0;" width="10" x="709.5" y="213.892"/><rect fill="#FFFFFF" height="541.9842" style="stroke:#000000;stroke-width:1.0;" width="10" x="909.5" y="245.598"/><rect fill="#FFFFFF" height="573.7083" style="stroke:#000000;stroke-width:1.0;" width="10" x="909.5" y="1079.9363"/><rect fill="#FFFFFF" height="63.412" style="stroke:#000000;stroke-width:1.0;" width="10" x="1202.5" y="614.0521"/><rect fill="#FFFFFF" height="63.412" style="stroke:#000000;stroke-width:1.0;" width="10" x="1202.5" y="1111.6423"/><rect fill="#FFFFFF" height="797.6504" style="stroke:#000000;stroke-width:1.0;" width="10" x="1317.5" y="926.4062"/><rect fill="#FFFFFF" height="734.2384" style="stroke:#000000;stroke-width:1.0;" width="10" x="1493.5" y="958.1123"/><rect fill="#FFFFFF" height="31.706" style="stroke:#000000;stroke-width:1.0;" width="10" x="1601.5" y="1517.8205"/><rect fill="#FFFFFF" height="3" style="stroke:#FFFFFF;stroke-width:1.0;" width="1900.5" x="5" y="116.9209"/><line style="stroke:#000000;stroke-width:0.5;" x1="5" x2="1905.5" y1="116.9209" y2="116.9209"/><line style="stroke:#000000;stroke-width:0.5;" x1="5" x2="1905.5" y1="119.9209" y2="119.9209"/><rect fill="#FFFFFF" height="25.706" style="stroke:#000000;stroke-width:1.0;" width="352" x="779.25" y="105.0679"/><text fill="#000000" font-family="Verdana" font-size="13" font-weight="bold" lengthAdjust="spacing" textLength="335" x="785.25" y="122.9649">Escenario A: Alta en Lista de Espera (Con Validaci&#243;n)</text><polygon fill="#000000" points="417.5,178.186,427.5,182.186,417.5,186.186,421.5,182.186" style="stroke:#000000;stroke-width:1.0;"/><line style="stroke:#000000;stroke-width:1.0;" x1="115.5" x2="423.5" y1="182.186" y2="182.186"/><text fill="#000000" font-family="Verdana" font-size="13" font-weight="bold" lengthAdjust="spacing" textLength="7" x="122.5" y="167.524">1</text><text fill="#000000" font-family="Verdana" font-size="13" lengthAdjust="spacing" textLength="196" x="133.5" y="158.6709">Solicita ingresar a Lista de Espera</text><text fill="#000000" font-family="Verdana" font-size="13" lengthAdjust="spacing" textLength="208" x="133.5" y="176.377">(Especialidad, M&#233;dico Pref., Fechas)</text><polygon fill="#000000" points="697.5,209.892,707.5,213.892,697.5,217.892,701.5,213.892" style="stroke:#000000;stroke-width:1.0;"/><line style="stroke:#000000;stroke-width:1.0;" x1="429.5" x2="703.5" y1="213.892" y2="213.892"/><text fill="#000000" font-family="Verdana" font-size="13" font-weight="bold" lengthAdjust="spacing" textLength="7" x="436.5" y="208.083">2</text><text fill="#000000" font-family="Verdana" font-size="13" lengthAdjust="spacing" textLength="108" x="447.5" y="208.083">POST /lista-espera</text><polygon fill="#000000" points="897.5,241.598,907.5,245.598,897.5,249.598,901.5,245.598" style="stroke:#000000;stroke-width:1.0;"/><line style="stroke:#000000;stroke-width:1.0;" x1="719.5" x2="903.5" y1="245.598" y2="245.598"/><text fill="#000000" font-family="Verdana" font-size="13" font-weight="bold" lengthAdjust="spacing" textLength="7" x="726.5" y="239.789">3</text><text fill="#000000" font-family="Verdana" font-size="13" lengthAdjust="spacing" textLength="129" x="737.5" y="239.789">save(ListaEsperaDTO)</text><line style="stroke:#000000;stroke-width:1.0;" x1="919.5" x2="961.5" y1="277.304" y2="277.304"/><line style="stroke:#000000;stroke-width:1.0;" x1="961.5" x2="961.5" y1="277.304" y2="290.304"/><line style="stroke:#000000;stroke-width:1.0;" x1="920.5" x2="961.5" y1="290.304" y2="290.304"/><polygon fill="#000000" points="930.5,286.304,920.5,290.304,930.5,294.304,926.5,290.304" style="stroke:#000000;stroke-width:1.0;"/><text fill="#000000" font-family="Verdana" font-size="13" font-weight="bold" lengthAdjust="spacing" textLength="7" x="926.5" y="271.495">4</text><text fill="#000000" font-family="Verdana" font-size="13" lengthAdjust="spacing" textLength="163" x="937.5" y="271.495">validarSolicitud(listaEspera)</text><path d="M924,303.304 L924,348.304 L1190,348.304 L1190,313.304 L1180,303.304 L924,303.304 " fill="#FFFFFF" style="stroke:#000000;stroke-width:1.0;"/><path d="M1180,303.304 L1180,313.304 L1190,313.304 L1180,303.304 " fill="#FFFFFF" style="stroke:#000000;stroke-width:1.0;"/><text fill="#000000" font-family="Verdana" font-size="13" lengthAdjust="spacing" textLength="245" x="930" y="322.201">Busca solicitudes PENDIENTES del mismo</text><text fill="#000000" font-family="Verdana" font-size="13" lengthAdjust="spacing" textLength="216" x="930" y="339.907">paciente para la misma especialidad.</text><path d="M35,360.716 L98,360.716 L98,370.4221 L88,380.4221 L35,380.4221 L35,360.716 " fill="#FFFFFF" style="stroke:#000000;stroke-width:1.0;"/><rect fill="none" height="419.8661" style="stroke:#000000;stroke-width:1.0;" width="1840.5" x="35" y="360.716"/><text fill="#000000" font-family="Verdana" font-size="13" font-weight="bold" lengthAdjust="spacing" textLength="18" x="50" y="375.6131">alt</text><text fill="#000000" font-family="Verdana" font-size="11" font-weight="bold" lengthAdjust="spacing" textLength="215" x="113" y="374.475">[Validaci&#243;n Fallida: Solicitud Duplicada]</text><line style="stroke:#000000;stroke-width:1.0;" x1="919.5" x2="961.5" y1="421.8341" y2="421.8341"/><line style="stroke:#000000;stroke-width:1.0;" x1="961.5" x2="961.5" y1="421.8341" y2="434.8341"/><line style="stroke:#000000;stroke-width:1.0;" x1="920.5" x2="961.5" y1="434.8341" y2="434.8341"/><polygon fill="#000000" points="930.5,430.8341,920.5,434.8341,930.5,438.8341,926.5,434.8341" style="stroke:#000000;stroke-width:1.0;"/><text fill="#000000" font-family="Verdana" font-size="13" font-weight="bold" lengthAdjust="spacing" textLength="7" x="926.5" y="407.1721">5</text><text fill="#000000" font-family="Verdana" font-size="13" lengthAdjust="spacing" textLength="149" x="937.5" y="398.3191">throw RuntimeException</text><text fill="#000000" font-family="Verdana" font-size="13" lengthAdjust="spacing" textLength="220" x="937.5" y="416.0251">("El paciente ya tiene una solicitud...")</text><polygon fill="#000000" points="730.5,462.5401,720.5,466.5401,730.5,470.5401,726.5,466.5401" style="stroke:#000000;stroke-width:1.0;"/><line style="stroke:#000000;stroke-width:1.0;stroke-dasharray:2.0,2.0;" x1="724.5" x2="908.5" y1="466.5401" y2="466.5401"/><text fill="#000000" font-family="Verdana" font-size="13" font-weight="bold" lengthAdjust="spacing" textLength="7" x="736.5" y="460.7311">6</text><text fill="#000000" font-family="Verdana" font-size="13" lengthAdjust="spacing" textLength="126" x="747.5" y="460.7311">Excepci&#243;n Capturada</text><polygon fill="#000000" points="440.5,511.9521,430.5,515.9521,440.5,519.9521,436.5,515.9521" style="stroke:#000000;stroke-width:1.0;"/><line style="stroke:#000000;stroke-width:1.0;stroke-dasharray:2.0,2.0;" x1="434.5" x2="708.5" y1="515.9521" y2="515.9521"/><text fill="#000000" font-family="Verdana" font-size="13" font-weight="bold" lengthAdjust="spacing" textLength="7" x="446.5" y="501.2901">7</text><text fill="#000000" font-family="Verdana" font-size="13" lengthAdjust="spacing" textLength="115" x="457.5" y="492.4371">HTTP 400/500 Error</text><text fill="#000000" font-family="Verdana" font-size="13" lengthAdjust="spacing" textLength="245" x="457.5" y="510.1431">JSON: { message: "El paciente ya tiene..." }</text><polygon fill="#000000" points="126.5,561.3642,116.5,565.3642,126.5,569.3642,122.5,565.3642" style="stroke:#000000;stroke-width:1.0;"/><line style="stroke:#000000;stroke-width:1.0;" x1="120.5" x2="428.5" y1="565.3642" y2="565.3642"/><text fill="#000000" font-family="Verdana" font-size="13" font-weight="bold" lengthAdjust="spacing" textLength="7" x="132.5" y="550.7022">8</text><text fill="#000000" font-family="Verdana" font-size="13" lengthAdjust="spacing" textLength="208" x="143.5" y="541.8492">Muestra Error: "El paciente ya tiene</text><text fill="#000000" font-family="Verdana" font-size="13" lengthAdjust="spacing" textLength="279" x="143.5" y="559.5552">una solicitud pendiente para esta especialidad"</text><line style="stroke:#000000;stroke-width:1.0;stroke-dasharray:2.0,2.0;" x1="35" x2="1875.5" y1="574.3642" y2="574.3642"/><text fill="#000000" font-family="Verdana" font-size="11" font-weight="bold" lengthAdjust="spacing" textLength="107" x="40" y="586.1231">[Validaci&#243;n Exitosa]</text><polygon fill="#000000" points="1190.5,610.0521,1200.5,614.0521,1190.5,618.0521,1194.5,614.0521" style="stroke:#000000;stroke-width:1.0;"/><line style="stroke:#000000;stroke-width:1.0;" x1="919.5" x2="1196.5" y1="614.0521" y2="614.0521"/><text fill="#000000" font-family="Verdana" font-size="13" font-weight="bold" lengthAdjust="spacing" textLength="7" x="926.5" y="608.2431">9</text><text fill="#000000" font-family="Verdana" font-size="13" lengthAdjust="spacing" textLength="70" x="937.5" y="608.2431">save(entity)</text><polygon fill="#000000" points="1812,641.7581,1822,645.7581,1812,649.7581,1816,645.7581" style="stroke:#000000;stroke-width:1.0;"/><line style="stroke:#000000;stroke-width:1.0;" x1="1212.5" x2="1818" y1="645.7581" y2="645.7581"/><text fill="#000000" font-family="Verdana" font-size="13" font-weight="bold" lengthAdjust="spacing" textLength="14" x="1219.5" y="639.9491">10</text><text fill="#000000" font-family="Verdana" font-size="13" lengthAdjust="spacing" textLength="162" x="1237.5" y="639.9491">INSERT INTO lista_espera ...</text><polygon fill="#000000" points="1218.5,673.4641,1208.5,677.4641,1218.5,681.4641,1214.5,677.4641" style="stroke:#000000;stroke-width:1.0;"/><line style="stroke:#000000;stroke-width:1.0;stroke-dasharray:2.0,2.0;" x1="1212.5" x2="1823" y1="677.4641" y2="677.4641"/><text fill="#000000" font-family="Verdana" font-size="13" font-weight="bold" lengthAdjust="spacing" textLength="14" x="1224.5" y="671.6551">11</text><text fill="#000000" font-family="Verdana" font-size="13" lengthAdjust="spacing" textLength="121" x="1242.5" y="671.6551">Entity (ID Generado)</text><polygon fill="#000000" points="730.5,705.1701,720.5,709.1701,730.5,713.1701,726.5,709.1701" style="stroke:#000000;stroke-width:1.0;"/><line style="stroke:#000000;stroke-width:1.0;stroke-dasharray:2.0,2.0;" x1="724.5" x2="908.5" y1="709.1701" y2="709.1701"/><text fill="#000000" font-family="Verdana" font-size="13" font-weight="bold" lengthAdjust="spacing" textLength="14" x="736.5" y="703.3611">12</text><text fill="#000000" font-family="Verdana" font-size="13" lengthAdjust="spacing" textLength="148" x="754.5" y="703.3611">ListaEsperaDTO (Creado)</text><polygon fill="#000000" points="440.5,736.8762,430.5,740.8762,440.5,744.8762,436.5,740.8762" style="stroke:#000000;stroke-width:1.0;"/><line style="stroke:#000000;stroke-width:1.0;stroke-dasharray:2.0,2.0;" x1="434.5" x2="708.5" y1="740.8762" y2="740.8762"/><text fill="#000000" font-family="Verdana" font-size="13" font-weight="bold" lengthAdjust="spacing" textLength="14" x="446.5" y="735.0671">13</text><text fill="#000000" font-family="Verdana" font-size="13" lengthAdjust="spacing" textLength="42" x="464.5" y="735.0671">200 OK</text><polygon fill="#000000" points="126.5,768.5822,116.5,772.5822,126.5,776.5822,122.5,772.5822" style="stroke:#000000;stroke-width:1.0;"/><line style="stroke:#000000;stroke-width:1.0;" x1="120.5" x2="428.5" y1="772.5822" y2="772.5822"/><text fill="#000000" font-family="Verdana" font-size="13" font-weight="bold" lengthAdjust="spacing" textLength="14" x="132.5" y="766.7732">14</text><text fill="#000000" font-family="Verdana" font-size="13" lengthAdjust="spacing" textLength="234" x="150.5" y="766.7732">Muestra confirmaci&#243;n de ingreso a lista</text><rect fill="#FFFFFF" height="3" style="stroke:#FFFFFF;stroke-width:1.0;" width="1900.5" x="5" y="809.4352"/><line style="stroke:#000000;stroke-width:0.5;" x1="5" x2="1905.5" y1="809.4352" y2="809.4352"/><line style="stroke:#000000;stroke-width:0.5;" x1="5" x2="1905.5" y1="812.4352" y2="812.4352"/><rect fill="#FFFFFF" height="25.706" style="stroke:#000000;stroke-width:1.0;" width="435" x="737.75" y="797.5822"/><text fill="#000000" font-family="Verdana" font-size="13" font-weight="bold" lengthAdjust="spacing" textLength="418" x="743.75" y="815.4792">Escenario B: Reasignaci&#243;n Autom&#225;tica (Trigger por Cancelaci&#243;n)</text><path d="M62,838.2882 L62,865.2882 L1877,865.2882 L1877,848.2882 L1867,838.2882 L62,838.2882 " fill="#FFFFFF" style="stroke:#000000;stroke-width:1.0;"/><path d="M1867,838.2882 L1867,848.2882 L1877,848.2882 L1867,838.2882 " fill="#FFFFFF" style="stroke:#000000;stroke-width:1.0;"/><text fill="#000000" font-family="Verdana" font-size="13" lengthAdjust="spacing" textLength="368" x="781.25" y="857.1852">Este flujo inicia cuando ALGUIEN cancela un turno confirmado</text><polygon fill="#000000" points="417.5,890.7002,427.5,894.7002,417.5,898.7002,421.5,894.7002" style="stroke:#000000;stroke-width:1.0;"/><line style="stroke:#000000;stroke-width:1.0;" x1="115.5" x2="423.5" y1="894.7002" y2="894.7002"/><text fill="#000000" font-family="Verdana" font-size="13" font-weight="bold" lengthAdjust="spacing" textLength="14" x="122.5" y="888.8912">15</text><text fill="#000000" font-family="Verdana" font-size="13" lengthAdjust="spacing" textLength="143" x="140.5" y="888.8912">Cancela Turno existente</text><polygon fill="#000000" points="1305.5,922.4062,1315.5,926.4062,1305.5,930.4062,1309.5,926.4062" style="stroke:#000000;stroke-width:1.0;"/><line style="stroke:#000000;stroke-width:1.0;" x1="429.5" x2="1311.5" y1="926.4062" y2="926.4062"/><text fill="#000000" font-family="Verdana" font-size="13" font-weight="bold" lengthAdjust="spacing" textLength="14" x="436.5" y="920.5972">16</text><text fill="#000000" font-family="Verdana" font-size="13" lengthAdjust="spacing" textLength="160" x="454.5" y="920.5972">POST /turnos/{id}/cancelar</text><polygon fill="#000000" points="1481.5,954.1123,1491.5,958.1123,1481.5,962.1123,1485.5,958.1123" style="stroke:#000000;stroke-width:1.0;"/><line style="stroke:#000000;stroke-width:1.0;" x1="1327.5" x2="1487.5" y1="958.1123" y2="958.1123"/><text fill="#000000" font-family="Verdana" font-size="13" font-weight="bold" lengthAdjust="spacing" textLength="14" x="1334.5" y="952.3032">17</text><text fill="#000000" font-family="Verdana" font-size="13" lengthAdjust="spacing" textLength="104" x="1352.5" y="952.3032">cancelarTurno(id)</text><polygon fill="#000000" points="1812,985.8183,1822,989.8183,1812,993.8183,1816,989.8183" style="stroke:#000000;stroke-width:1.0;"/><line style="stroke:#000000;stroke-width:1.0;" x1="1503.5" x2="1818" y1="989.8183" y2="989.8183"/><text fill="#000000" font-family="Verdana" font-size="13" font-weight="bold" lengthAdjust="spacing" textLength="14" x="1510.5" y="984.0093">18</text><text fill="#000000" font-family="Verdana" font-size="13" lengthAdjust="spacing" textLength="248" x="1528.5" y="984.0093">UPDATE turnos SET estado='CANCELADO'</text><polygon fill="#000000" points="1708.5,1017.5243,1718.5,1021.5243,1708.5,1025.5243,1712.5,1021.5243" style="stroke:#000000;stroke-width:1.0;"/><line style="stroke:#000000;stroke-width:1.0;" x1="1503.5" x2="1714.5" y1="1021.5243" y2="1021.5243"/><text fill="#000000" font-family="Verdana" font-size="13" font-weight="bold" lengthAdjust="spacing" textLength="14" x="1510.5" y="1015.7153">19</text><text fill="#000000" font-family="Verdana" font-size="13" lengthAdjust="spacing" textLength="128" x="1528.5" y="1015.7153">Registrar Cancelaci&#243;n</text><polygon fill="#000000" points="930.5,1075.9363,920.5,1079.9363,930.5,1083.9363,926.5,1079.9363" style="stroke:#000000;stroke-width:1.0;"/><line style="stroke:#000000;stroke-width:1.0;" x1="924.5" x2="1492.5" y1="1079.9363" y2="1079.9363"/><text fill="#000000" font-family="Verdana" font-size="13" font-weight="bold" lengthAdjust="spacing" textLength="14" x="936.5" y="1074.1273">20</text><text fill="#000000" font-family="Verdana" font-size="13" lengthAdjust="spacing" textLength="281" x="954.5" y="1074.1273">buscarPacienteParaReasignar(turnoCancelado)</text><polygon fill="#000000" points="1190.5,1107.6423,1200.5,1111.6423,1190.5,1115.6423,1194.5,1111.6423" style="stroke:#000000;stroke-width:1.0;"/><line style="stroke:#000000;stroke-width:1.0;" x1="919.5" x2="1196.5" y1="1111.6423" y2="1111.6423"/><text fill="#000000" font-family="Verdana" font-size="13" font-weight="bold" lengthAdjust="spacing" textLength="14" x="926.5" y="1105.8333">21</text><text fill="#000000" font-family="Verdana" font-size="13" lengthAdjust="spacing" textLength="202" x="944.5" y="1105.8333">findAll() (Filtrado por Especialidad)</text><polygon fill="#000000" points="1812,1139.3484,1822,1143.3484,1812,1147.3484,1816,1143.3484" style="stroke:#000000;stroke-width:1.0;"/><line style="stroke:#000000;stroke-width:1.0;" x1="1212.5" x2="1818" y1="1143.3484" y2="1143.3484"/><text fill="#000000" font-family="Verdana" font-size="13" font-weight="bold" lengthAdjust="spacing" textLength="14" x="1219.5" y="1137.5393">22</text><text fill="#000000" font-family="Verdana" font-size="13" lengthAdjust="spacing" textLength="225" x="1237.5" y="1137.5393">SELECT * FROM lista_espera WHERE ...</text><polygon fill="#000000" points="930.5,1171.0544,920.5,1175.0544,930.5,1179.0544,926.5,1175.0544" style="stroke:#000000;stroke-width:1.0;"/><line style="stroke:#000000;stroke-width:1.0;stroke-dasharray:2.0,2.0;" x1="924.5" x2="1206.5" y1="1175.0544" y2="1175.0544"/><text fill="#000000" font-family="Verdana" font-size="13" font-weight="bold" lengthAdjust="spacing" textLength="14" x="936.5" y="1169.2454">23</text><text fill="#000000" font-family="Verdana" font-size="13" lengthAdjust="spacing" textLength="99" x="954.5" y="1169.2454">Lista Candidatos</text><line style="stroke:#000000;stroke-width:1.0;" x1="919.5" x2="961.5" y1="1206.7604" y2="1206.7604"/><line style="stroke:#000000;stroke-width:1.0;" x1="961.5" x2="961.5" y1="1206.7604" y2="1219.7604"/><line style="stroke:#000000;stroke-width:1.0;" x1="920.5" x2="961.5" y1="1219.7604" y2="1219.7604"/><polygon fill="#000000" points="930.5,1215.7604,920.5,1219.7604,930.5,1223.7604,926.5,1219.7604" style="stroke:#000000;stroke-width:1.0;"/><text fill="#000000" font-family="Verdana" font-size="13" font-weight="bold" lengthAdjust="spacing" textLength="14" x="926.5" y="1200.9514">24</text><text fill="#000000" font-family="Verdana" font-size="13" lengthAdjust="spacing" textLength="169" x="944.5" y="1200.9514">Filtrar y Ordenar Candidatos</text><path d="M924,1232.7604 L924,1295.7604 L1211,1295.7604 L1211,1242.7604 L1201,1232.7604 L924,1232.7604 " fill="#FFFFFF" style="stroke:#000000;stroke-width:1.0;"/><path d="M1201,1232.7604 L1201,1242.7604 L1211,1242.7604 L1201,1232.7604 " fill="#FFFFFF" style="stroke:#000000;stroke-width:1.0;"/><text fill="#000000" font-family="Verdana" font-size="13" lengthAdjust="spacing" textLength="58" x="930" y="1251.6574">Prioridad:</text><text fill="#000000" font-family="Verdana" font-size="13" lengthAdjust="spacing" textLength="266" x="930" y="1269.3634">1. Urgencia M&#233;dica (URGENTE &gt; ALTA &gt; BAJA)</text><text fill="#000000" font-family="Verdana" font-size="13" lengthAdjust="spacing" textLength="141" x="930" y="1287.0694">2. Fecha Solicitud (FIFO)</text><path d="M25,1307.8784 L98,1307.8784 L98,1317.5844 L88,1327.5844 L25,1327.5844 L25,1307.8784 " fill="#FFFFFF" style="stroke:#000000;stroke-width:1.0;"/><rect fill="none" height="353.7662" style="stroke:#000000;stroke-width:1.0;" width="1860.5" x="25" y="1307.8784"/><text fill="#000000" font-family="Verdana" font-size="13" font-weight="bold" lengthAdjust="spacing" textLength="28" x="40" y="1322.7754">loop</text><text fill="#000000" font-family="Verdana" font-size="11" font-weight="bold" lengthAdjust="spacing" textLength="191" x="113" y="1321.6373">[Para cada Candidato (Ordenado)]</text><line style="stroke:#000000;stroke-width:1.0;" x1="919.5" x2="961.5" y1="1351.2905" y2="1351.2905"/><line style="stroke:#000000;stroke-width:1.0;" x1="961.5" x2="961.5" y1="1351.2905" y2="1364.2905"/><line style="stroke:#000000;stroke-width:1.0;" x1="920.5" x2="961.5" y1="1364.2905" y2="1364.2905"/><polygon fill="#000000" points="930.5,1360.2905,920.5,1364.2905,930.5,1368.2905,926.5,1364.2905" style="stroke:#000000;stroke-width:1.0;"/><text fill="#000000" font-family="Verdana" font-size="13" font-weight="bold" lengthAdjust="spacing" textLength="14" x="926.5" y="1345.4815">25</text><text fill="#000000" font-family="Verdana" font-size="13" lengthAdjust="spacing" textLength="251" x="944.5" y="1345.4815">intentarReasignarTurno(candidato, turno)</text><path d="M35,1379.2905 L98,1379.2905 L98,1388.9965 L88,1398.9965 L35,1398.9965 L35,1379.2905 " fill="#FFFFFF" style="stroke:#000000;stroke-width:1.0;"/><rect fill="none" height="243.6481" style="stroke:#000000;stroke-width:1.0;" width="1840.5" x="35" y="1379.2905"/><text fill="#000000" font-family="Verdana" font-size="13" font-weight="bold" lengthAdjust="spacing" textLength="18" x="50" y="1394.1875">alt</text><text fill="#000000" font-family="Verdana" font-size="11" font-weight="bold" lengthAdjust="spacing" textLength="169" x="113" y="1393.0494">[Candidato V&#225;lido Encontrado]</text><polygon fill="#000000" points="1812,1418.7025,1822,1422.7025,1812,1426.7025,1816,1422.7025" style="stroke:#000000;stroke-width:1.0;"/><line style="stroke:#000000;stroke-width:1.0;" x1="919.5" x2="1818" y1="1422.7025" y2="1422.7025"/><text fill="#000000" font-family="Verdana" font-size="13" font-weight="bold" lengthAdjust="spacing" textLength="14" x="926.5" y="1416.8935">26</text><text fill="#000000" font-family="Verdana" font-size="13" lengthAdjust="spacing" textLength="305" x="944.5" y="1416.8935">INSERT INTO turnos (Nuevo Turno para Candidato)</text><polygon fill="#000000" points="1812,1450.4085,1822,1454.4085,1812,1458.4085,1816,1454.4085" style="stroke:#000000;stroke-width:1.0;"/><line style="stroke:#000000;stroke-width:1.0;" x1="919.5" x2="1818" y1="1454.4085" y2="1454.4085"/><text fill="#000000" font-family="Verdana" font-size="13" font-weight="bold" lengthAdjust="spacing" textLength="14" x="926.5" y="1448.5995">27</text><text fill="#000000" font-family="Verdana" font-size="13" lengthAdjust="spacing" textLength="263" x="944.5" y="1448.5995">UPDATE lista_espera SET estado='CUBIERTA'</text><polygon fill="#000000" points="1708.5,1482.1145,1718.5,1486.1145,1708.5,1490.1145,1712.5,1486.1145" style="stroke:#000000;stroke-width:1.0;"/><line style="stroke:#000000;stroke-width:1.0;" x1="919.5" x2="1714.5" y1="1486.1145" y2="1486.1145"/><text fill="#000000" font-family="Verdana" font-size="13" font-weight="bold" lengthAdjust="spacing" textLength="14" x="926.5" y="1480.3055">28</text><text fill="#000000" font-family="Verdana" font-size="13" lengthAdjust="spacing" textLength="251" x="944.5" y="1480.3055">logGenericAction("TURNO_REASIGNADO")</text><polygon fill="#000000" points="1589.5,1513.8205,1599.5,1517.8205,1589.5,1521.8205,1593.5,1517.8205" style="stroke:#000000;stroke-width:1.0;"/><line style="stroke:#000000;stroke-width:1.0;" x1="919.5" x2="1595.5" y1="1517.8205" y2="1517.8205"/><text fill="#000000" font-family="Verdana" font-size="13" font-weight="bold" lengthAdjust="spacing" textLength="14" x="926.5" y="1512.0115">29</text><text fill="#000000" font-family="Verdana" font-size="13" lengthAdjust="spacing" textLength="236" x="944.5" y="1512.0115">crearNotificacionNuevoTurno(paciente)</text><polygon fill="#000000" points="126.5,1545.5266,116.5,1549.5266,126.5,1553.5266,122.5,1549.5266" style="stroke:#000000;stroke-width:1.0;"/><line style="stroke:#000000;stroke-width:1.0;stroke-dasharray:2.0,2.0;" x1="120.5" x2="1605.5" y1="1549.5266" y2="1549.5266"/><text fill="#000000" font-family="Verdana" font-size="13" font-weight="bold" lengthAdjust="spacing" textLength="14" x="132.5" y="1543.7176">30</text><text fill="#000000" font-family="Verdana" font-size="13" lengthAdjust="spacing" textLength="324" x="150.5" y="1543.7176">Email/Notificaci&#243;n: "&#161;Conseguimos un turno para vos!"</text><polygon fill="#000000" points="1481.5,1577.2326,1491.5,1581.2326,1481.5,1585.2326,1485.5,1581.2326" style="stroke:#000000;stroke-width:1.0;"/><line style="stroke:#000000;stroke-width:1.0;stroke-dasharray:2.0,2.0;" x1="919.5" x2="1487.5" y1="1581.2326" y2="1581.2326"/><text fill="#000000" font-family="Verdana" font-size="13" font-weight="bold" lengthAdjust="spacing" textLength="14" x="926.5" y="1575.4236">31</text><text fill="#000000" font-family="Verdana" font-size="13" lengthAdjust="spacing" textLength="106" x="944.5" y="1575.4236">true (Reasignado)</text><path d="M55,1596.2326 L138,1596.2326 L138,1605.9386 L128,1615.9386 L55,1615.9386 L55,1596.2326 " fill="#FFFFFF" style="stroke:#000000;stroke-width:1.0;"/><rect fill="none" height="19.706" style="stroke:#000000;stroke-width:1.0;" width="321" x="55" y="1596.2326"/><text fill="#000000" font-family="Verdana" font-size="13" font-weight="bold" lengthAdjust="spacing" textLength="38" x="70" y="1611.1296">break</text><text fill="#000000" font-family="Verdana" font-size="11" font-weight="bold" lengthAdjust="spacing" textLength="218" x="153" y="1609.9915">["Loop finaliza al encontrar candidato"]</text><polygon fill="#000000" points="1481.5,1649.6446,1491.5,1653.6446,1481.5,1657.6446,1485.5,1653.6446" style="stroke:#000000;stroke-width:1.0;"/><line style="stroke:#000000;stroke-width:1.0;stroke-dasharray:2.0,2.0;" x1="914.5" x2="1487.5" y1="1653.6446" y2="1653.6446"/><text fill="#000000" font-family="Verdana" font-size="13" font-weight="bold" lengthAdjust="spacing" textLength="14" x="921.5" y="1647.8356">32</text><text fill="#000000" font-family="Verdana" font-size="13" lengthAdjust="spacing" textLength="117" x="939.5" y="1647.8356">resultado (boolean)</text><polygon fill="#000000" points="1338.5,1688.3506,1328.5,1692.3506,1338.5,1696.3506,1334.5,1692.3506" style="stroke:#000000;stroke-width:1.0;"/><line style="stroke:#000000;stroke-width:1.0;stroke-dasharray:2.0,2.0;" x1="1332.5" x2="1497.5" y1="1692.3506" y2="1692.3506"/><text fill="#000000" font-family="Verdana" font-size="13" font-weight="bold" lengthAdjust="spacing" textLength="14" x="1344.5" y="1686.5416">33</text><text fill="#000000" font-family="Verdana" font-size="13" lengthAdjust="spacing" textLength="124" x="1362.5" y="1686.5416">TurnoCanceladoDTO</text><polygon fill="#000000" points="440.5,1720.0566,430.5,1724.0566,440.5,1728.0566,436.5,1724.0566" style="stroke:#000000;stroke-width:1.0;"/><line style="stroke:#000000;stroke-width:1.0;stroke-dasharray:2.0,2.0;" x1="434.5" x2="1321.5" y1="1724.0566" y2="1724.0566"/><text fill="#000000" font-family="Verdana" font-size="13" font-weight="bold" lengthAdjust="spacing" textLength="14" x="446.5" y="1718.2476">34</text><text fill="#000000" font-family="Verdana" font-size="13" lengthAdjust="spacing" textLength="154" x="464.5" y="1718.2476">200 OK (Turno Cancelado)</text><!--SRC=[bLVTSjf65BxNKvpGYuYEWzrCUr5ct1a1md5AW898RppZMKiBtaRiQdPNr6uc3vFBNlSDwXVhsLr9QB6nKto1aFRyVzztv5Vwbcuf53bXF22b5hpStb0P12JLGa9dJb96kQPm2hE2If89sG6YOANmK46aPYah2DVG6Kk1vtXc7u_Zu4RSGMT0qazu3oPYmz8EVBV-sVm5W1_FUCAK9h4o4QxuN59bOhf8a_Xwg6N-WisIoXrBQMrH_Np1Q44BeHZMUL_RcJkFZP9ISd6OLt8ahUfmEw7aU3vJeTcQfTXbmNqZ- -InGLHcJ6Cx_SFsRc0wZMqFCgB93L4KnoUKtaYw_6rYZuq6GN1-3h5AAIUI2OZw4EMQ0ELWEmCP1TST28U2mqUIimoJU_Y7T-7yF0ZCtE7DBpZWFYn5ZccX4UCOGn49vD3B5G_DHSgid-m4FZpydR5K0FPotJk1CKrlYUe6uzWuhKRTX_bicS1fRdozeTQHmIFR4GHYZOUWkgWCgsxqGP4T3LjZ7YMphcTTpoBONn_wsDbqPLLWcONvtbytu08TIRQvrI3MFje6fKe9gDgEAfZ7qz5bF4tY9NObXorJMuEmekOL3fT0Jkm3d4EhMJqxJnCCsPZhzYnWJ7Bpevb1cS6eBF2IPCHYvdXj-bQAFs5HSissDBvBQQ4jzi9EdE_JkYUWyOf2oLlrz7gzJlUH__Rah4ENuv0KkfHrGhML6rc5e7T9CeSVpyvEVpexWrXA8Q_u- -LiseVFiALAaGqc_6HU9XFuOfqwx1XWzk53IPN6XbfVHqolk5SJ5DZcrYoe0N1x3XsNFysHKEqPn7Se7Uf8kusGL5X4rqpVkxQrSTXeJNLjB4U3FbnEb_4YmQza1XPtruu2W3NRywD1tNCN9RO18BmSmGNMPqJQHSlea_6U7Q3F75G1IHj_X-DxYrER_Nfq2AdWQoQtLRjG4vnE29G9MvV1Tn3uITPKykywmdlAXOrQKABOXbV-8rnUsuUlg9IeNGdISuDALU0E6nAUqhmjOfR0OeVFJS8djkknmdlhlFn3O9g834o_93n3YPnSh930a3etI0ZGHkARyZBXos8L3-mY07g7fHfqLHgNU19dFQdJpopxSbe5a7kngbPCa3H2b-nvN1-tOKAMTTjsZSObRLoQEbVpKPJ4hWG5opYnWC_4-UjXD1t6asWqU-rRsTrYkhrXPgn-GuDW8qLPu1RP2CdqLfWv7nsCXKfoJ9bkZ7ZA-erZZcIi7SdGvbi5hk7u56wUn7UBAsl6ioZFmow4OvPhmnKBalQM-dQgBkD9F4pWUnWlPXzyilx-Bbx43MKRkuEItRh4kZ8CZ6holsZhktBbIBY7cSmCIGxTFhEsp6UEh9Ac_7vruuSUhEI6SiC5jxQHMAl5XLbcWB2O915-3QBtKRUoUDjp2xsrbSBnvNZcdZVRh2ac5w80CsSmUskVBuIkX7hGpnVEp6kd9h81YsD4MdixSM3Vksekp5RT1_tuy1N7Br1EaTaM6St1nmaS2dN5ft1Qqfseg6_NIUE_-uAtYfWUY3nwhWQN62vwxVbvncd5srnix5PWQPIQJHzsajLYEhjUnD7oycAAVEzqlzMbVIT5wS6T8DjlhhPgr_PwtVe-6q3ltshhZxrZYU6sHxmbB3_TUqS9mKN-xrTy7LLqKx8jjhdHODlYdL2lEfxF5eCU1pnQdw-lMfOKmXfKcNYcIJVOZq_uluM1CmeCgiXV1C65Y7T8aj20SP-dMNxjx-3vT71nbhb10eGtGkIKyATsV4rfkrcJ0rzkyIIUakAER-zQRtCyiUjnizg-jvJOixRxwZy0]--></g></svg>