<?xml version="1.0" encoding="us-ascii" standalone="no"?><svg xmlns="http://www.w3.org/2000/svg" xmlns:xlink="http://www.w3.org/1999/xlink" contentStyleType="text/css" height="1685px" preserveAspectRatio="none" style="width:1939px;height:1685px;background:#FFFFFF;" version="1.1" viewBox="0 0 1939 1685" width="1939px" zoomAndPan="magnify"><defs/><g><rect fill="#F9F9F9" height="1673.3005" style="stroke:#000000;stroke-width:1.0;" width="1122.5" x="675.5" y="6"/><text fill="#000000" font-family="Verdana" font-size="13" font-weight="bold" lengthAdjust="spacing" textLength="94" x="1189.75" y="19.897">Backend Logic</text><rect fill="#FFFFFF" height="473.5721" style="stroke:#000000;stroke-width:1.0;" width="10" x="730" y="213.892"/><rect fill="#FFFFFF" height="441.8661" style="stroke:#000000;stroke-width:1.0;" width="10" x="1051" y="245.598"/><rect fill="#FFFFFF" height="528.0023" style="stroke:#000000;stroke-width:1.0;" width="10" x="1051" y="979.8183"/><rect fill="#FFFFFF" height="751.9444" style="stroke:#000000;stroke-width:1.0;" width="10" x="1344" y="826.2882"/><rect fill="#FFFFFF" height="688.5324" style="stroke:#000000;stroke-width:1.0;" width="10" x="1520" y="857.9942"/><rect fill="#FFFFFF" height="31.706" style="stroke:#000000;stroke-width:1.0;" width="10" x="1628" y="1371.9965"/><rect fill="#FFFFFF" height="388.1601" style="stroke:#000000;stroke-width:1.0;" width="1867" x="35" y="292.304"/><rect fill="#FFFFFF" height="193.218" style="stroke:none;stroke-width:1.0;" width="1867" x="35" y="487.2461"/><rect fill="#FFFFFF" height="353.7662" style="stroke:#000000;stroke-width:1.0;" width="1887" x="25" y="1162.0544"/><rect fill="#FFFFFF" height="243.6481" style="stroke:#000000;stroke-width:1.0;" width="1867" x="35" y="1233.4664"/><rect fill="#FFFFFF" height="19.706" style="stroke:#000000;stroke-width:1.0;" width="289" x="55" y="1450.4085"/><line style="stroke:#000000;stroke-width:1.0;" x1="105" x2="105" y1="85.0679" y2="1596.2326"/><line style="stroke:#000000;stroke-width:1.0;" x1="413.5" x2="413.5" y1="85.0679" y2="1596.2326"/><line style="stroke:#000000;stroke-width:1.0;" x1="734.5" x2="734.5" y1="85.0679" y2="1596.2326"/><line style="stroke:#000000;stroke-width:1.0;" x1="1055.5" x2="1055.5" y1="85.0679" y2="1596.2326"/><line style="stroke:#000000;stroke-width:1.0;" x1="1348.5" x2="1348.5" y1="85.0679" y2="1596.2326"/><line style="stroke:#000000;stroke-width:1.0;" x1="1525" x2="1525" y1="85.0679" y2="1596.2326"/><line style="stroke:#000000;stroke-width:1.0;" x1="1633" x2="1633" y1="85.0679" y2="1596.2326"/><line style="stroke:#000000;stroke-width:1.0;" x1="1747" x2="1747" y1="85.0679" y2="1596.2326"/><line style="stroke:#000000;stroke-width:1.0;" x1="1850" x2="1850" y1="85.0679" y2="1596.2326"/><text fill="#000000" font-family="Verdana" font-size="14" lengthAdjust="spacing" textLength="114" x="45" y="80.9659">Paciente / Admin</text><ellipse cx="105" cy="14" fill="#FFFFFF" rx="8" ry="8" style="stroke:#000000;stroke-width:1.0;"/><path d="M105,22 L105,49 M92,30 L118,30 M105,49 L92,64 M105,49 L118,64 " fill="none" style="stroke:#000000;stroke-width:1.0;"/><text fill="#000000" font-family="Verdana" font-size="14" lengthAdjust="spacing" textLength="114" x="45" y="1610.1985">Paciente / Admin</text><ellipse cx="105" cy="1623.3005" fill="#FFFFFF" rx="8" ry="8" style="stroke:#000000;stroke-width:1.0;"/><path d="M105,1631.3005 L105,1658.3005 M92,1639.3005 L118,1639.3005 M105,1658.3005 L92,1673.3005 M105,1658.3005 L118,1673.3005 " fill="none" style="stroke:#000000;stroke-width:1.0;"/><rect fill="#FFFFFF" height="33.0679" rx="2.5" ry="2.5" style="stroke:#000000;stroke-width:1.0;" width="75" x="376.5" y="51"/><text fill="#000000" font-family="Verdana" font-size="14" lengthAdjust="spacing" textLength="61" x="383.5" y="72.9659">Frontend</text><rect fill="#FFFFFF" height="33.0679" rx="2.5" ry="2.5" style="stroke:#000000;stroke-width:1.0;" width="75" x="376.5" y="1595.2326"/><text fill="#000000" font-family="Verdana" font-size="14" lengthAdjust="spacing" textLength="61" x="383.5" y="1617.1985">Frontend</text><rect fill="#FFFFFF" height="52.1358" rx="2.5" ry="2.5" style="stroke:#000000;stroke-width:1.0;" width="91" x="689.5" y="31.9321"/><text fill="#000000" font-family="Verdana" font-size="14" lengthAdjust="spacing" textLength="77" x="696.5" y="53.898">ListaEspera</text><text fill="#000000" font-family="Verdana" font-size="14" lengthAdjust="spacing" textLength="65" x="702.5" y="72.9659">Presenter</text><rect fill="#FFFFFF" height="52.1358" rx="2.5" ry="2.5" style="stroke:#000000;stroke-width:1.0;" width="91" x="689.5" y="1595.2326"/><text fill="#000000" font-family="Verdana" font-size="14" lengthAdjust="spacing" textLength="77" x="696.5" y="1617.1985">ListaEspera</text><text fill="#000000" font-family="Verdana" font-size="14" lengthAdjust="spacing" textLength="65" x="702.5" y="1636.2664">Presenter</text><rect fill="#FFFFFF" height="52.1358" rx="2.5" ry="2.5" style="stroke:#000000;stroke-width:1.0;" width="91" x="1010.5" y="31.9321"/><text fill="#000000" font-family="Verdana" font-size="14" lengthAdjust="spacing" textLength="77" x="1017.5" y="53.898">ListaEspera</text><text fill="#000000" font-family="Verdana" font-size="14" lengthAdjust="spacing" textLength="48" x="1032" y="72.9659">Service</text><rect fill="#FFFFFF" height="52.1358" rx="2.5" ry="2.5" style="stroke:#000000;stroke-width:1.0;" width="91" x="1010.5" y="1595.2326"/><text fill="#000000" font-family="Verdana" font-size="14" lengthAdjust="spacing" textLength="77" x="1017.5" y="1617.1985">ListaEspera</text><text fill="#000000" font-family="Verdana" font-size="14" lengthAdjust="spacing" textLength="48" x="1032" y="1636.2664">Service</text><rect fill="#FFFFFF" height="52.1358" rx="2.5" ry="2.5" style="stroke:#000000;stroke-width:1.0;" width="79" x="1309.5" y="31.9321"/><text fill="#000000" font-family="Verdana" font-size="14" lengthAdjust="spacing" textLength="40" x="1329" y="53.898">Turno</text><text fill="#000000" font-family="Verdana" font-size="14" lengthAdjust="spacing" textLength="65" x="1316.5" y="72.9659">Presenter</text><rect fill="#FFFFFF" height="52.1358" rx="2.5" ry="2.5" style="stroke:#000000;stroke-width:1.0;" width="79" x="1309.5" y="1595.2326"/><text fill="#000000" font-family="Verdana" font-size="14" lengthAdjust="spacing" textLength="40" x="1329" y="1617.1985">Turno</text><text fill="#000000" font-family="Verdana" font-size="14" lengthAdjust="spacing" textLength="65" x="1316.5" y="1636.2664">Presenter</text><rect fill="#FFFFFF" height="52.1358" rx="2.5" ry="2.5" style="stroke:#000000;stroke-width:1.0;" width="62" x="1494" y="31.9321"/><text fill="#000000" font-family="Verdana" font-size="14" lengthAdjust="spacing" textLength="40" x="1505" y="53.898">Turno</text><text fill="#000000" font-family="Verdana" font-size="14" lengthAdjust="spacing" textLength="48" x="1501" y="72.9659">Service</text><rect fill="#FFFFFF" height="52.1358" rx="2.5" ry="2.5" style="stroke:#000000;stroke-width:1.0;" width="62" x="1494" y="1595.2326"/><text fill="#000000" font-family="Verdana" font-size="14" lengthAdjust="spacing" textLength="40" x="1505" y="1617.1985">Turno</text><text fill="#000000" font-family="Verdana" font-size="14" lengthAdjust="spacing" textLength="48" x="1501" y="1636.2664">Service</text><rect fill="#FFFFFF" height="52.1358" rx="2.5" ry="2.5" style="stroke:#000000;stroke-width:1.0;" width="94" x="1586" y="31.9321"/><text fill="#000000" font-family="Verdana" font-size="14" lengthAdjust="spacing" textLength="80" x="1593" y="53.898">Notificacion</text><text fill="#000000" font-family="Verdana" font-size="14" lengthAdjust="spacing" textLength="48" x="1609" y="72.9659">Service</text><rect fill="#FFFFFF" height="52.1358" rx="2.5" ry="2.5" style="stroke:#000000;stroke-width:1.0;" width="94" x="1586" y="1595.2326"/><text fill="#000000" font-family="Verdana" font-size="14" lengthAdjust="spacing" textLength="80" x="1593" y="1617.1985">Notificacion</text><text fill="#000000" font-family="Verdana" font-size="14" lengthAdjust="spacing" textLength="48" x="1609" y="1636.2664">Service</text><rect fill="#FFFFFF" height="52.1358" rx="2.5" ry="2.5" style="stroke:#000000;stroke-width:1.0;" width="74" x="1710" y="31.9321"/><text fill="#000000" font-family="Verdana" font-size="14" lengthAdjust="spacing" textLength="60" x="1717" y="53.898">AuditLog</text><text fill="#000000" font-family="Verdana" font-size="14" lengthAdjust="spacing" textLength="48" x="1723" y="72.9659">Service</text><rect fill="#FFFFFF" height="52.1358" rx="2.5" ry="2.5" style="stroke:#000000;stroke-width:1.0;" width="74" x="1710" y="1595.2326"/><text fill="#000000" font-family="Verdana" font-size="14" lengthAdjust="spacing" textLength="60" x="1717" y="1617.1985">AuditLog</text><text fill="#000000" font-family="Verdana" font-size="14" lengthAdjust="spacing" textLength="48" x="1723" y="1636.2664">Service</text><text fill="#000000" font-family="Verdana" font-size="14" lengthAdjust="spacing" textLength="77" x="1809" y="80.9659">PostgreSQL</text><path d="M1832.5,30 C1832.5,20 1850.5,20 1850.5,20 C1850.5,20 1868.5,20 1868.5,30 L1868.5,56 C1868.5,66 1850.5,66 1850.5,66 C1850.5,66 1832.5,66 1832.5,56 L1832.5,30 " fill="#FFFFFF" style="stroke:#000000;stroke-width:1.5;"/><path d="M1832.5,30 C1832.5,40 1850.5,40 1850.5,40 C1850.5,40 1868.5,40 1868.5,30 " fill="none" style="stroke:#000000;stroke-width:1.5;"/><text fill="#000000" font-family="Verdana" font-size="14" lengthAdjust="spacing" textLength="77" x="1809" y="1610.1985">PostgreSQL</text><path d="M1832.5,1624.3005 C1832.5,1614.3005 1850.5,1614.3005 1850.5,1614.3005 C1850.5,1614.3005 1868.5,1614.3005 1868.5,1624.3005 L1868.5,1650.3005 C1868.5,1660.3005 1850.5,1660.3005 1850.5,1660.3005 C1850.5,1660.3005 1832.5,1660.3005 1832.5,1650.3005 L1832.5,1624.3005 " fill="#FFFFFF" style="stroke:#000000;stroke-width:1.5;"/><path d="M1832.5,1624.3005 C1832.5,1634.3005 1850.5,1634.3005 1850.5,1634.3005 C1850.5,1634.3005 1868.5,1634.3005 1868.5,1624.3005 " fill="none" style="stroke:#000000;stroke-width:1.5;"/><rect fill="#FFFFFF" height="473.5721" style="stroke:#000000;stroke-width:1.0;" width="10" x="730" y="213.892"/><rect fill="#FFFFFF" height="441.8661" style="stroke:#000000;stroke-width:1.0;" width="10" x="1051" y="245.598"/><rect fill="#FFFFFF" height="528.0023" style="stroke:#000000;stroke-width:1.0;" width="10" x="1051" y="979.8183"/><rect fill="#FFFFFF" height="751.9444" style="stroke:#000000;stroke-width:1.0;" width="10" x="1344" y="826.2882"/><rect fill="#FFFFFF" height="688.5324" style="stroke:#000000;stroke-width:1.0;" width="10" x="1520" y="857.9942"/><rect fill="#FFFFFF" height="31.706" style="stroke:#000000;stroke-width:1.0;" width="10" x="1628" y="1371.9965"/><rect fill="#FFFFFF" height="3" style="stroke:#FFFFFF;stroke-width:1.0;" width="1927" x="5" y="116.9209"/><line style="stroke:#000000;stroke-width:0.5;" x1="5" x2="1932" y1="116.9209" y2="116.9209"/><line style="stroke:#000000;stroke-width:0.5;" x1="5" x2="1932" y1="119.9209" y2="119.9209"/><rect fill="#FFFFFF" height="25.706" style="stroke:#000000;stroke-width:1.0;" width="245" x="846" y="105.0679"/><text fill="#000000" font-family="Verdana" font-size="13" font-weight="bold" lengthAdjust="spacing" textLength="228" x="852" y="122.9649">Escenario A: Alta en Lista de Espera</text><polygon fill="#000000" points="402,178.186,412,182.186,402,186.186,406,182.186" style="stroke:#000000;stroke-width:1.0;"/><line style="stroke:#000000;stroke-width:1.0;" x1="105" x2="408" y1="182.186" y2="182.186"/><text fill="#000000" font-family="Verdana" font-size="13" font-weight="bold" lengthAdjust="spacing" textLength="7" x="112" y="167.524">1</text><text fill="#000000" font-family="Verdana" font-size="13" lengthAdjust="spacing" textLength="196" x="123" y="158.6709">Solicita ingresar a Lista de Espera</text><text fill="#000000" font-family="Verdana" font-size="13" lengthAdjust="spacing" textLength="208" x="123" y="176.377">(Especialidad, M&#233;dico Pref., Fechas)</text><polygon fill="#000000" points="718,209.892,728,213.892,718,217.892,722,213.892" style="stroke:#000000;stroke-width:1.0;"/><line style="stroke:#000000;stroke-width:1.0;" x1="414" x2="724" y1="213.892" y2="213.892"/><text fill="#000000" font-family="Verdana" font-size="13" font-weight="bold" lengthAdjust="spacing" textLength="7" x="421" y="208.083">2</text><text fill="#000000" font-family="Verdana" font-size="13" lengthAdjust="spacing" textLength="108" x="432" y="208.083">POST /lista-espera</text><polygon fill="#000000" points="1039,241.598,1049,245.598,1039,249.598,1043,245.598" style="stroke:#000000;stroke-width:1.0;"/><line style="stroke:#000000;stroke-width:1.0;" x1="740" x2="1045" y1="245.598" y2="245.598"/><text fill="#000000" font-family="Verdana" font-size="13" font-weight="bold" lengthAdjust="spacing" textLength="7" x="747" y="239.789">3</text><text fill="#000000" font-family="Verdana" font-size="13" lengthAdjust="spacing" textLength="129" x="758" y="239.789">save(ListaEsperaDTO)</text><polygon fill="#000000" points="1838.5,273.304,1848.5,277.304,1838.5,281.304,1842.5,277.304" style="stroke:#000000;stroke-width:1.0;"/><line style="stroke:#000000;stroke-width:1.0;" x1="1061" x2="1844.5" y1="277.304" y2="277.304"/><text fill="#000000" font-family="Verdana" font-size="13" font-weight="bold" lengthAdjust="spacing" textLength="7" x="1068" y="271.495">4</text><text fill="#000000" font-family="Verdana" font-size="13" lengthAdjust="spacing" textLength="251" x="1079" y="271.495">Buscar solicitudes pendientes del paciente</text><path d="M35,292.304 L98,292.304 L98,302.01 L88,312.01 L35,312.01 L35,292.304 " fill="#FFFFFF" style="stroke:#000000;stroke-width:1.0;"/><rect fill="none" height="388.1601" style="stroke:#000000;stroke-width:1.0;" width="1867" x="35" y="292.304"/><text fill="#000000" font-family="Verdana" font-size="13" font-weight="bold" lengthAdjust="spacing" textLength="18" x="50" y="307.201">alt</text><text fill="#000000" font-family="Verdana" font-size="11" font-weight="bold" lengthAdjust="spacing" textLength="225" x="113" y="306.0629">[Ya tiene solicitud para esa Especialidad]</text><line style="stroke:#000000;stroke-width:1.0;" x1="1061" x2="1103" y1="335.716" y2="335.716"/><line style="stroke:#000000;stroke-width:1.0;" x1="1103" x2="1103" y1="335.716" y2="348.716"/><line style="stroke:#000000;stroke-width:1.0;" x1="1062" x2="1103" y1="348.716" y2="348.716"/><polygon fill="#000000" points="1072,344.716,1062,348.716,1072,352.716,1068,348.716" style="stroke:#000000;stroke-width:1.0;"/><text fill="#000000" font-family="Verdana" font-size="13" font-weight="bold" lengthAdjust="spacing" textLength="7" x="1068" y="329.907">5</text><text fill="#000000" font-family="Verdana" font-size="13" lengthAdjust="spacing" textLength="99" x="1079" y="329.907">validarSolicitud()</text><path d="M1190,320.51 L1190,347.51 L1319,347.51 L1319,330.51 L1309,320.51 L1190,320.51 " fill="#FFFFFF" style="stroke:#000000;stroke-width:1.0;"/><path d="M1309,320.51 L1309,330.51 L1319,330.51 L1309,320.51 " fill="#FFFFFF" style="stroke:#000000;stroke-width:1.0;"/><text fill="#000000" font-family="Verdana" font-size="13" lengthAdjust="spacing" textLength="108" x="1196" y="339.407">Detecta duplicado</text><polygon fill="#000000" points="751,394.1281,741,398.1281,751,402.1281,747,398.1281" style="stroke:#000000;stroke-width:1.0;"/><line style="stroke:#000000;stroke-width:1.0;stroke-dasharray:2.0,2.0;" x1="745" x2="1050" y1="398.1281" y2="398.1281"/><text fill="#000000" font-family="Verdana" font-size="13" font-weight="bold" lengthAdjust="spacing" textLength="7" x="757" y="383.4661">6</text><text fill="#000000" font-family="Verdana" font-size="13" lengthAdjust="spacing" textLength="151" x="768" y="374.6131">Lanza RuntimeException:</text><text fill="#000000" font-family="Verdana" font-size="13" lengthAdjust="spacing" textLength="276" x="768" y="392.3191">"El paciente ya tiene una solicitud pendiente..."</text><polygon fill="#000000" points="425,443.5401,415,447.5401,425,451.5401,421,447.5401" style="stroke:#000000;stroke-width:1.0;"/><line style="stroke:#000000;stroke-width:1.0;stroke-dasharray:2.0,2.0;" x1="419" x2="729" y1="447.5401" y2="447.5401"/><text fill="#000000" font-family="Verdana" font-size="13" font-weight="bold" lengthAdjust="spacing" textLength="7" x="431" y="432.8781">7</text><text fill="#000000" font-family="Verdana" font-size="13" lengthAdjust="spacing" textLength="134" x="442" y="424.0251">HTTP 400 Bad Request</text><text fill="#000000" font-family="Verdana" font-size="13" lengthAdjust="spacing" textLength="281" x="442" y="441.7311">{message: "El paciente ya tiene una solicitud..."}</text><polygon fill="#000000" points="116,475.2461,106,479.2461,116,483.2461,112,479.2461" style="stroke:#000000;stroke-width:1.0;"/><line style="stroke:#000000;stroke-width:1.0;" x1="110" x2="413" y1="479.2461" y2="479.2461"/><text fill="#000000" font-family="Verdana" font-size="13" font-weight="bold" lengthAdjust="spacing" textLength="7" x="122" y="473.4371">8</text><text fill="#000000" font-family="Verdana" font-size="13" lengthAdjust="spacing" textLength="274" x="133" y="473.4371">Muestra Error: "Ya est&#225;s anotado en esta lista"</text><line style="stroke:#000000;stroke-width:1.0;stroke-dasharray:2.0,2.0;" x1="35" x2="1902" y1="488.2461" y2="488.2461"/><text fill="#000000" font-family="Verdana" font-size="11" font-weight="bold" lengthAdjust="spacing" textLength="139" x="40" y="500.005">[Solicitud V&#225;lida (Nueva)]</text><polygon fill="#000000" points="1838.5,541.6401,1848.5,545.6401,1838.5,549.6401,1842.5,545.6401" style="stroke:#000000;stroke-width:1.0;"/><line style="stroke:#000000;stroke-width:1.0;" x1="1061" x2="1844.5" y1="545.6401" y2="545.6401"/><text fill="#000000" font-family="Verdana" font-size="13" font-weight="bold" lengthAdjust="spacing" textLength="7" x="1068" y="530.978">9</text><text fill="#000000" font-family="Verdana" font-size="13" lengthAdjust="spacing" textLength="150" x="1079" y="522.125">INSERT INTO lista_espera</text><text fill="#000000" font-family="Verdana" font-size="13" lengthAdjust="spacing" textLength="205" x="1079" y="539.831">(estado='PENDIENTE', urgencia=...)</text><polygon fill="#000000" points="1072,573.3461,1062,577.3461,1072,581.3461,1068,577.3461" style="stroke:#000000;stroke-width:1.0;"/><line style="stroke:#000000;stroke-width:1.0;stroke-dasharray:2.0,2.0;" x1="1066" x2="1849.5" y1="577.3461" y2="577.3461"/><text fill="#000000" font-family="Verdana" font-size="13" font-weight="bold" lengthAdjust="spacing" textLength="14" x="1078" y="571.5371">10</text><text fill="#000000" font-family="Verdana" font-size="13" lengthAdjust="spacing" textLength="75" x="1096" y="571.5371">ID Generado</text><polygon fill="#000000" points="751,605.0521,741,609.0521,751,613.0521,747,609.0521" style="stroke:#000000;stroke-width:1.0;"/><line style="stroke:#000000;stroke-width:1.0;stroke-dasharray:2.0,2.0;" x1="745" x2="1050" y1="609.0521" y2="609.0521"/><text fill="#000000" font-family="Verdana" font-size="13" font-weight="bold" lengthAdjust="spacing" textLength="14" x="757" y="603.2431">11</text><text fill="#000000" font-family="Verdana" font-size="13" lengthAdjust="spacing" textLength="80" x="775" y="603.2431">DTO (Creado)</text><polygon fill="#000000" points="425,636.7581,415,640.7581,425,644.7581,421,640.7581" style="stroke:#000000;stroke-width:1.0;"/><line style="stroke:#000000;stroke-width:1.0;stroke-dasharray:2.0,2.0;" x1="419" x2="729" y1="640.7581" y2="640.7581"/><text fill="#000000" font-family="Verdana" font-size="13" font-weight="bold" lengthAdjust="spacing" textLength="14" x="431" y="634.9491">12</text><text fill="#000000" font-family="Verdana" font-size="13" lengthAdjust="spacing" textLength="42" x="449" y="634.9491">200 OK</text><polygon fill="#000000" points="116,668.4641,106,672.4641,116,676.4641,112,672.4641" style="stroke:#000000;stroke-width:1.0;"/><line style="stroke:#000000;stroke-width:1.0;" x1="110" x2="413" y1="672.4641" y2="672.4641"/><text fill="#000000" font-family="Verdana" font-size="13" font-weight="bold" lengthAdjust="spacing" textLength="14" x="122" y="666.6551">13</text><text fill="#000000" font-family="Verdana" font-size="13" lengthAdjust="spacing" textLength="256" x="140" y="666.6551">Muestra &#201;xito: "Agregado a lista de espera"</text><rect fill="#FFFFFF" height="3" style="stroke:#FFFFFF;stroke-width:1.0;" width="1927" x="5" y="709.3171"/><line style="stroke:#000000;stroke-width:0.5;" x1="5" x2="1932" y1="709.3171" y2="709.3171"/><line style="stroke:#000000;stroke-width:0.5;" x1="5" x2="1932" y1="712.3171" y2="712.3171"/><rect fill="#FFFFFF" height="25.706" style="stroke:#000000;stroke-width:1.0;" width="397" x="770" y="697.4641"/><text fill="#000000" font-family="Verdana" font-size="13" font-weight="bold" lengthAdjust="spacing" textLength="380" x="776" y="715.3611">Escenario B: Reasignaci&#243;n Autom&#225;tica (Motor del Sistema)</text><path d="M56,738.1701 L56,765.1701 L1898,765.1701 L1898,748.1701 L1888,738.1701 L56,738.1701 " fill="#FFFFFF" style="stroke:#000000;stroke-width:1.0;"/><path d="M1888,738.1701 L1888,748.1701 L1898,748.1701 L1888,738.1701 " fill="#FFFFFF" style="stroke:#000000;stroke-width:1.0;"/><text fill="#000000" font-family="Verdana" font-size="13" lengthAdjust="spacing" textLength="368" x="788.5" y="757.0671">Este flujo inicia cuando ALGUIEN cancela un turno confirmado</text><polygon fill="#000000" points="402,790.5822,412,794.5822,402,798.5822,406,794.5822" style="stroke:#000000;stroke-width:1.0;"/><line style="stroke:#000000;stroke-width:1.0;" x1="105" x2="408" y1="794.5822" y2="794.5822"/><text fill="#000000" font-family="Verdana" font-size="13" font-weight="bold" lengthAdjust="spacing" textLength="14" x="112" y="788.7732">14</text><text fill="#000000" font-family="Verdana" font-size="13" lengthAdjust="spacing" textLength="143" x="130" y="788.7732">Cancela Turno existente</text><polygon fill="#000000" points="1332,822.2882,1342,826.2882,1332,830.2882,1336,826.2882" style="stroke:#000000;stroke-width:1.0;"/><line style="stroke:#000000;stroke-width:1.0;" x1="414" x2="1338" y1="826.2882" y2="826.2882"/><text fill="#000000" font-family="Verdana" font-size="13" font-weight="bold" lengthAdjust="spacing" textLength="14" x="421" y="820.4792">15</text><text fill="#000000" font-family="Verdana" font-size="13" lengthAdjust="spacing" textLength="160" x="439" y="820.4792">POST /turnos/{id}/cancelar</text><polygon fill="#000000" points="1508,853.9942,1518,857.9942,1508,861.9942,1512,857.9942" style="stroke:#000000;stroke-width:1.0;"/><line style="stroke:#000000;stroke-width:1.0;" x1="1354" x2="1514" y1="857.9942" y2="857.9942"/><text fill="#000000" font-family="Verdana" font-size="13" font-weight="bold" lengthAdjust="spacing" textLength="14" x="1361" y="852.1852">16</text><text fill="#000000" font-family="Verdana" font-size="13" lengthAdjust="spacing" textLength="104" x="1379" y="852.1852">cancelarTurno(id)</text><polygon fill="#000000" points="1838.5,885.7002,1848.5,889.7002,1838.5,893.7002,1842.5,889.7002" style="stroke:#000000;stroke-width:1.0;"/><line style="stroke:#000000;stroke-width:1.0;" x1="1530" x2="1844.5" y1="889.7002" y2="889.7002"/><text fill="#000000" font-family="Verdana" font-size="13" font-weight="bold" lengthAdjust="spacing" textLength="14" x="1537" y="883.8912">17</text><text fill="#000000" font-family="Verdana" font-size="13" lengthAdjust="spacing" textLength="248" x="1555" y="883.8912">UPDATE turnos SET estado='CANCELADO'</text><polygon fill="#000000" points="1735,917.4062,1745,921.4062,1735,925.4062,1739,921.4062" style="stroke:#000000;stroke-width:1.0;"/><line style="stroke:#000000;stroke-width:1.0;" x1="1530" x2="1741" y1="921.4062" y2="921.4062"/><text fill="#000000" font-family="Verdana" font-size="13" font-weight="bold" lengthAdjust="spacing" textLength="14" x="1537" y="915.5972">18</text><text fill="#000000" font-family="Verdana" font-size="13" lengthAdjust="spacing" textLength="128" x="1555" y="915.5972">Registrar Cancelaci&#243;n</text><polygon fill="#000000" points="1072,975.8183,1062,979.8183,1072,983.8183,1068,979.8183" style="stroke:#000000;stroke-width:1.0;"/><line style="stroke:#000000;stroke-width:1.0;" x1="1066" x2="1519" y1="979.8183" y2="979.8183"/><text fill="#000000" font-family="Verdana" font-size="13" font-weight="bold" lengthAdjust="spacing" textLength="14" x="1078" y="974.0093">19</text><text fill="#000000" font-family="Verdana" font-size="13" lengthAdjust="spacing" textLength="281" x="1096" y="974.0093">buscarPacienteParaReasignar(turnoCancelado)</text><polygon fill="#000000" points="1838.5,1025.2303,1848.5,1029.2303,1838.5,1033.2303,1842.5,1029.2303" style="stroke:#000000;stroke-width:1.0;"/><line style="stroke:#000000;stroke-width:1.0;" x1="1061" x2="1844.5" y1="1029.2303" y2="1029.2303"/><text fill="#000000" font-family="Verdana" font-size="13" font-weight="bold" lengthAdjust="spacing" textLength="14" x="1068" y="1014.5683">20</text><text fill="#000000" font-family="Verdana" font-size="13" lengthAdjust="spacing" textLength="218" x="1086" y="1005.7153">findAll() WHERE estado='PENDIENTE'</text><text fill="#000000" font-family="Verdana" font-size="13" lengthAdjust="spacing" textLength="226" x="1086" y="1023.4213">AND especialidad = turno.especialidad</text><line style="stroke:#000000;stroke-width:1.0;" x1="1061" x2="1103" y1="1060.9363" y2="1060.9363"/><line style="stroke:#000000;stroke-width:1.0;" x1="1103" x2="1103" y1="1060.9363" y2="1073.9363"/><line style="stroke:#000000;stroke-width:1.0;" x1="1062" x2="1103" y1="1073.9363" y2="1073.9363"/><polygon fill="#000000" points="1072,1069.9363,1062,1073.9363,1072,1077.9363,1068,1073.9363" style="stroke:#000000;stroke-width:1.0;"/><text fill="#000000" font-family="Verdana" font-size="13" font-weight="bold" lengthAdjust="spacing" textLength="14" x="1068" y="1055.1273">21</text><text fill="#000000" font-family="Verdana" font-size="13" lengthAdjust="spacing" textLength="169" x="1086" y="1055.1273">Filtrar y Ordenar Candidatos</text><path d="M1066,1086.9363 L1066,1149.9363 L1312,1149.9363 L1312,1096.9363 L1302,1086.9363 L1066,1086.9363 " fill="#FFFFFF" style="stroke:#000000;stroke-width:1.0;"/><path d="M1302,1086.9363 L1302,1096.9363 L1312,1096.9363 L1302,1086.9363 " fill="#FFFFFF" style="stroke:#000000;stroke-width:1.0;"/><text fill="#000000" font-family="Verdana" font-size="13" lengthAdjust="spacing" textLength="58" x="1072" y="1105.8333">Prioridad:</text><text fill="#000000" font-family="Verdana" font-size="13" lengthAdjust="spacing" textLength="225" x="1072" y="1123.5393">1. Urgencia M&#233;dica (URGENTE &gt; ALTA)</text><text fill="#000000" font-family="Verdana" font-size="13" lengthAdjust="spacing" textLength="183" x="1072" y="1141.2454">2. Fecha Solicitud (Antig&#252;edad)</text><path d="M25,1162.0544 L98,1162.0544 L98,1171.7604 L88,1181.7604 L25,1181.7604 L25,1162.0544 " fill="#FFFFFF" style="stroke:#000000;stroke-width:1.0;"/><rect fill="none" height="353.7662" style="stroke:#000000;stroke-width:1.0;" width="1887" x="25" y="1162.0544"/><text fill="#000000" font-family="Verdana" font-size="13" font-weight="bold" lengthAdjust="spacing" textLength="28" x="40" y="1176.9514">loop</text><text fill="#000000" font-family="Verdana" font-size="11" font-weight="bold" lengthAdjust="spacing" textLength="191" x="113" y="1175.8133">[Para cada Candidato (Ordenado)]</text><line style="stroke:#000000;stroke-width:1.0;" x1="1061" x2="1103" y1="1205.4664" y2="1205.4664"/><line style="stroke:#000000;stroke-width:1.0;" x1="1103" x2="1103" y1="1205.4664" y2="1218.4664"/><line style="stroke:#000000;stroke-width:1.0;" x1="1062" x2="1103" y1="1218.4664" y2="1218.4664"/><polygon fill="#000000" points="1072,1214.4664,1062,1218.4664,1072,1222.4664,1068,1218.4664" style="stroke:#000000;stroke-width:1.0;"/><text fill="#000000" font-family="Verdana" font-size="13" font-weight="bold" lengthAdjust="spacing" textLength="14" x="1068" y="1199.6574">22</text><text fill="#000000" font-family="Verdana" font-size="13" lengthAdjust="spacing" textLength="251" x="1086" y="1199.6574">intentarReasignarTurno(candidato, turno)</text><path d="M35,1233.4664 L98,1233.4664 L98,1243.1724 L88,1253.1724 L35,1253.1724 L35,1233.4664 " fill="#FFFFFF" style="stroke:#000000;stroke-width:1.0;"/><rect fill="none" height="243.6481" style="stroke:#000000;stroke-width:1.0;" width="1867" x="35" y="1233.4664"/><text fill="#000000" font-family="Verdana" font-size="13" font-weight="bold" lengthAdjust="spacing" textLength="18" x="50" y="1248.3634">alt</text><text fill="#000000" font-family="Verdana" font-size="11" font-weight="bold" lengthAdjust="spacing" textLength="169" x="113" y="1247.2253">[Candidato V&#225;lido Encontrado]</text><polygon fill="#000000" points="1838.5,1272.8784,1848.5,1276.8784,1838.5,1280.8784,1842.5,1276.8784" style="stroke:#000000;stroke-width:1.0;"/><line style="stroke:#000000;stroke-width:1.0;" x1="1061" x2="1844.5" y1="1276.8784" y2="1276.8784"/><text fill="#000000" font-family="Verdana" font-size="13" font-weight="bold" lengthAdjust="spacing" textLength="14" x="1068" y="1271.0694">23</text><text fill="#000000" font-family="Verdana" font-size="13" lengthAdjust="spacing" textLength="210" x="1086" y="1271.0694">INSERT INTO turnos (Nuevo Turno)</text><polygon fill="#000000" points="1838.5,1304.5844,1848.5,1308.5844,1838.5,1312.5844,1842.5,1308.5844" style="stroke:#000000;stroke-width:1.0;"/><line style="stroke:#000000;stroke-width:1.0;" x1="1061" x2="1844.5" y1="1308.5844" y2="1308.5844"/><text fill="#000000" font-family="Verdana" font-size="13" font-weight="bold" lengthAdjust="spacing" textLength="14" x="1068" y="1302.7754">24</text><text fill="#000000" font-family="Verdana" font-size="13" lengthAdjust="spacing" textLength="263" x="1086" y="1302.7754">UPDATE lista_espera SET estado='CUBIERTA'</text><polygon fill="#000000" points="1735,1336.2905,1745,1340.2905,1735,1344.2905,1739,1340.2905" style="stroke:#000000;stroke-width:1.0;"/><line style="stroke:#000000;stroke-width:1.0;" x1="1061" x2="1741" y1="1340.2905" y2="1340.2905"/><text fill="#000000" font-family="Verdana" font-size="13" font-weight="bold" lengthAdjust="spacing" textLength="14" x="1068" y="1334.4815">25</text><text fill="#000000" font-family="Verdana" font-size="13" lengthAdjust="spacing" textLength="251" x="1086" y="1334.4815">logGenericAction("TURNO_REASIGNADO")</text><polygon fill="#000000" points="1616,1367.9965,1626,1371.9965,1616,1375.9965,1620,1371.9965" style="stroke:#000000;stroke-width:1.0;"/><line style="stroke:#000000;stroke-width:1.0;" x1="1061" x2="1622" y1="1371.9965" y2="1371.9965"/><text fill="#000000" font-family="Verdana" font-size="13" font-weight="bold" lengthAdjust="spacing" textLength="14" x="1068" y="1366.1875">26</text><text fill="#000000" font-family="Verdana" font-size="13" lengthAdjust="spacing" textLength="236" x="1086" y="1366.1875">crearNotificacionNuevoTurno(paciente)</text><polygon fill="#000000" points="116,1399.7025,106,1403.7025,116,1407.7025,112,1403.7025" style="stroke:#000000;stroke-width:1.0;"/><line style="stroke:#000000;stroke-width:1.0;stroke-dasharray:2.0,2.0;" x1="110" x2="1632" y1="1403.7025" y2="1403.7025"/><text fill="#000000" font-family="Verdana" font-size="13" font-weight="bold" lengthAdjust="spacing" textLength="14" x="122" y="1397.8935">27</text><text fill="#000000" font-family="Verdana" font-size="13" lengthAdjust="spacing" textLength="246" x="140" y="1397.8935">Email/App: "&#161;Se liber&#243; un turno para vos!"</text><polygon fill="#000000" points="1508,1431.4085,1518,1435.4085,1508,1439.4085,1512,1435.4085" style="stroke:#000000;stroke-width:1.0;"/><line style="stroke:#000000;stroke-width:1.0;stroke-dasharray:2.0,2.0;" x1="1061" x2="1514" y1="1435.4085" y2="1435.4085"/><text fill="#000000" font-family="Verdana" font-size="13" font-weight="bold" lengthAdjust="spacing" textLength="14" x="1068" y="1429.5995">28</text><text fill="#000000" font-family="Verdana" font-size="13" lengthAdjust="spacing" textLength="106" x="1086" y="1429.5995">true (Reasignado)</text><path d="M55,1450.4085 L138,1450.4085 L138,1460.1145 L128,1470.1145 L55,1470.1145 L55,1450.4085 " fill="#FFFFFF" style="stroke:#000000;stroke-width:1.0;"/><rect fill="none" height="19.706" style="stroke:#000000;stroke-width:1.0;" width="289" x="55" y="1450.4085"/><text fill="#000000" font-family="Verdana" font-size="13" font-weight="bold" lengthAdjust="spacing" textLength="38" x="70" y="1465.3055">break</text><text fill="#000000" font-family="Verdana" font-size="11" font-weight="bold" lengthAdjust="spacing" textLength="186" x="153" y="1464.1674">["Loop finaliza al cubrir el hueco"]</text><polygon fill="#000000" points="1508,1503.8205,1518,1507.8205,1508,1511.8205,1512,1507.8205" style="stroke:#000000;stroke-width:1.0;"/><line style="stroke:#000000;stroke-width:1.0;stroke-dasharray:2.0,2.0;" x1="1056" x2="1514" y1="1507.8205" y2="1507.8205"/><text fill="#000000" font-family="Verdana" font-size="13" font-weight="bold" lengthAdjust="spacing" textLength="14" x="1063" y="1502.0115">29</text><text fill="#000000" font-family="Verdana" font-size="13" lengthAdjust="spacing" textLength="117" x="1081" y="1502.0115">resultado (boolean)</text><polygon fill="#000000" points="1365,1542.5266,1355,1546.5266,1365,1550.5266,1361,1546.5266" style="stroke:#000000;stroke-width:1.0;"/><line style="stroke:#000000;stroke-width:1.0;stroke-dasharray:2.0,2.0;" x1="1359" x2="1524" y1="1546.5266" y2="1546.5266"/><text fill="#000000" font-family="Verdana" font-size="13" font-weight="bold" lengthAdjust="spacing" textLength="14" x="1371" y="1540.7176">30</text><text fill="#000000" font-family="Verdana" font-size="13" lengthAdjust="spacing" textLength="124" x="1389" y="1540.7176">TurnoCanceladoDTO</text><polygon fill="#000000" points="425,1574.2326,415,1578.2326,425,1582.2326,421,1578.2326" style="stroke:#000000;stroke-width:1.0;"/><line style="stroke:#000000;stroke-width:1.0;stroke-dasharray:2.0,2.0;" x1="419" x2="1348" y1="1578.2326" y2="1578.2326"/><text fill="#000000" font-family="Verdana" font-size="13" font-weight="bold" lengthAdjust="spacing" textLength="14" x="431" y="1572.4236">31</text><text fill="#000000" font-family="Verdana" font-size="13" lengthAdjust="spacing" textLength="154" x="449" y="1572.4236">200 OK (Turno Cancelado)</text><!--SRC=[ZLRDRjj64BxpAIRimIJWo6cGImMe06NHZb5PKYMgHG03nefSqTjGk-hkKd0Qv07w63xsd6jFrOjrTfUKI5bo8XzCKJj_ttpppRxI3tH5OLqGnZrIQi7BrO9ApoEf5XBy2KaPvPh21KJPYd4VY8AvmXDh8ZLBsPfm3VwL57Y8P_RdgzXRY4Vm-oJzYEzWA7AM-l33yYVpvm5-MiP3fZI9rPfASiSdaYeJK5fNm_Z-KilY6pOpAZSifRL5zVMvKL9ABWv392SYL8URlfFJhaT2ioLB4It1sqRsb-S6KPanZSYq3zktdW4D4VGoeic2A8fj44hdaiv-7TfZWxxdzNeGgvHo8fc0g0jHeGbG3XOPo2WuTA3NyppJC7ZzCtQc2pDHO19uX77qg8W4ScXpnmFpa39Ii8navt2x_ITZgG14RjavXokQFX0LUbUnSLhrg0kJyIo1YyBuUasj8yCYjY58dxgHNlLG6LQrTq6H3GqQJHqaux1bNIFlxP-DZq6_2_rIfLY6SeML6LMmHWWjRnLMLI3oZiL8wqB31m8QlzAzXMaDWgS8DEksJMk7QwQyiQVah7OIXDQ02qnOiln1Ts50DKqDikKQ3v5CF7FPn6z8-5y4fYNNR4NZnvIkDRAfUyVzU5y2VAgpBpbfLb1NtEbqV1kcZkNWhhh_FaacyExD6-YJ3ARqpv8gVSS_hwXI9CUYlYEK2V35EdVzD-JgmgtnX236KWhywdymUEhjamA2Y63fXflKqCmInFTeWSJUWGU_RPyCd12CIheXuH7iJQjlHhDuck2_PEpytDEQiSPt9dfdatWqk8b7INns3gNCASTszZ1dvtBGhp7VzV5c0DTOfApRysAFa9SGN4gAXyEZ0Bz5RCU_d8Hd-_SZqmBnYN3uSWDB1OYPFbUBR-RVo-WnzhVVkebg2G5YDAL4iPnZ4xTVEIgA5glj4meFOdihZAYRYPXXJBeYePK7IrcnGOqmoPvRf6Fy7PP5-OT0eS0U4KXBmZ7VQ7WzHtmX9Job1K5kW3PI2QdWIoPN1iQMu5nM1wsW0dqqaSqiEdYIbdXOJ-hYCyk-N5G1v5u6Agdsafs49FisriTjc81bOTDkfnx98QFcaq6KnAu41RCuWPf8bz7eCXv6W_5Psyfgj84vPwQbiYxGukrvkHJb6jKu5vBfbJ1zFTaHIvFabC0ihAxL6tY24bKxae7DjmfSK_4OOOuIsbM-P3oBYY88uVVtyJI6vmDqnwFHmBAobaJeEQGwz50dlo6MLwomM7s2iSmCLmrg6LfheGva4yJoi0B0pSCGJmpMhLxys85vDTtLUa9-pwVN9d709WsJAAoElksuZTLGco12aSst_rBqw8wPdMjos1TJ2B46WpfI2uLfboy4heGQzfSBP-PUf8dSjSxnCwszdJj0zwvs3sPLxOCwVHGGSvmplHEhumaSIcN5RgkjmWrY-0tpQYwQ8jkUZdd_1lr7Poq_BpYjngOGkLLRbaQfMM-1dyode_7zD8vcDzSZ73S__5wNzcg5auzoB9iNC5kcmxdUPMsVkqdPNyxgZtrZrTm9TxmYhBY8rclKxF-UPXGHmVlnzkjUz-pTOIFKAx_bg27LpwESBAgjQLgM58AQEfbu0Pa5Wl0HxyM6j3ZPE9bubo05glP2CWae-GybJSK-HxDacl-zbrF1gs9Ps3qUB8GeAE4kcUDxoZXjgcP3w9EMSk4-RIwrbb8VsQiGk2tIKBwMjTqF_mC0]--></g></svg>