<?xml version="1.0" encoding="us-ascii" standalone="no"?><svg xmlns="http://www.w3.org/2000/svg" xmlns:xlink="http://www.w3.org/1999/xlink" contentStyleType="text/css" height="776px" preserveAspectRatio="none" style="width:1270px;height:776px;background:#FFFFFF;" version="1.1" viewBox="0 0 1270 776" width="1270px" zoomAndPan="magnify"><defs/><g><text fill="#000000" font-family="Verdana" font-size="22" font-weight="bold" lengthAdjust="spacing" textLength="486" x="387.75" y="38.5181">Modelo de Dominio - Ciclo de Vida del Turno</text><rect fill="#FFFFFF" height="40" rx="12.5" ry="12.5" style="stroke:#000000;stroke-width:1.0;" width="109" x="473" y="172.4641"/><text fill="#000000" font-family="Verdana" font-size="14" lengthAdjust="spacing" textLength="99" x="478" y="197.8961">PROGRAMADO</text><g id="elem_GMN3"><path d="M617.5,160.9641 L617.5,188.4641 L582.08,192.4641 L617.5,196.4641 L617.5,224.0822 A0,0 0 0 0 617.5,224.0822 L851.5,224.0822 A0,0 0 0 0 851.5,224.0822 L851.5,170.9641 L841.5,160.9641 L617.5,160.9641 A0,0 0 0 0 617.5,160.9641 " fill="#FFFFFF" style="stroke:#000000;stroke-width:1.0;"/><path d="M841.5,160.9641 L841.5,170.9641 L851.5,170.9641 L841.5,160.9641 " fill="#FFFFFF" style="stroke:#000000;stroke-width:1.0;"/><text fill="#000000" font-family="Verdana" font-size="13" font-weight="bold" lengthAdjust="spacing" textLength="91" x="623.5" y="179.8611">Estado Inicial.</text><text fill="#000000" font-family="Verdana" font-size="13" lengthAdjust="spacing" textLength="208" x="623.5" y="197.5671">El turno se reserva pero el paciente</text><text fill="#000000" font-family="Verdana" font-size="13" lengthAdjust="spacing" textLength="213" x="623.5" y="215.2731">a&#250;n no ha confirmado su asistencia.</text></g><rect fill="#FFFFFF" height="40" rx="12.5" ry="12.5" style="stroke:#000000;stroke-width:1.0;" width="105" x="475" y="323.4641"/><text fill="#000000" font-family="Verdana" font-size="14" lengthAdjust="spacing" textLength="95" x="480" y="348.8961">CONFIRMADO</text><g id="elem_GMN7"><path d="M615.5,320.9641 L615.5,339.4641 L580.23,343.4641 L615.5,347.4641 L615.5,366.3761 A0,0 0 0 0 615.5,366.3761 L889.5,366.3761 A0,0 0 0 0 889.5,366.3761 L889.5,330.9641 L879.5,320.9641 L615.5,320.9641 A0,0 0 0 0 615.5,320.9641 " fill="#FFFFFF" style="stroke:#000000;stroke-width:1.0;"/><path d="M879.5,320.9641 L879.5,330.9641 L889.5,330.9641 L879.5,320.9641 " fill="#FFFFFF" style="stroke:#000000;stroke-width:1.0;"/><text fill="#000000" font-family="Verdana" font-size="13" lengthAdjust="spacing" textLength="189" x="621.5" y="339.8611">El paciente ratific&#243; su asistencia.</text><text fill="#000000" font-family="Verdana" font-size="13" lengthAdjust="spacing" textLength="253" x="621.5" y="357.5671">(Dentro de la ventana de d&#237;as configurada)</text></g><rect fill="#FFFFFF" height="40" rx="12.5" ry="12.5" style="stroke:#000000;stroke-width:1.0;" width="105" x="572" y="462.9641"/><text fill="#000000" font-family="Verdana" font-size="14" lengthAdjust="spacing" textLength="95" x="577" y="488.3961">REAGENDADO</text><g id="elem_GMN11"><path d="M525.5,590.9641 L525.5,636.3761 A0,0 0 0 0 525.5,636.3761 L723.5,636.3761 A0,0 0 0 0 723.5,636.3761 L723.5,600.9641 L713.5,590.9641 L628.5,590.9641 L624.5,503.2041 L620.5,590.9641 L525.5,590.9641 A0,0 0 0 0 525.5,590.9641 " fill="#FFFFFF" style="stroke:#000000;stroke-width:1.0;"/><path d="M713.5,590.9641 L713.5,600.9641 L723.5,600.9641 L713.5,590.9641 " fill="#FFFFFF" style="stroke:#000000;stroke-width:1.0;"/><text fill="#000000" font-family="Verdana" font-size="13" lengthAdjust="spacing" textLength="135" x="531.5" y="609.8611">Cambio de fecha/hora.</text><text fill="#000000" font-family="Verdana" font-size="13" lengthAdjust="spacing" textLength="177" x="531.5" y="627.5671">Requiere nueva confirmaci&#243;n.</text></g><rect fill="#CCFFCC" height="40" rx="12.5" ry="12.5" style="stroke:#000000;stroke-width:1.0;" width="85" x="333" y="462.9641"/><text fill="#000000" font-family="Verdana" font-size="14" lengthAdjust="spacing" textLength="75" x="338" y="488.3961">COMPLETO</text><g id="elem_GMN15"><path d="M267.5,581.9641 L267.5,645.0822 A0,0 0 0 0 267.5,645.0822 L483.5,645.0822 A0,0 0 0 0 483.5,645.0822 L483.5,591.9641 L473.5,581.9641 L379.5,581.9641 L375.5,503.2041 L371.5,581.9641 L267.5,581.9641 A0,0 0 0 0 267.5,581.9641 " fill="#FFFFFF" style="stroke:#000000;stroke-width:1.0;"/><path d="M473.5,581.9641 L473.5,591.9641 L483.5,591.9641 L473.5,581.9641 " fill="#FFFFFF" style="stroke:#000000;stroke-width:1.0;"/><text fill="#000000" font-family="Verdana" font-size="13" font-weight="bold" lengthAdjust="spacing" textLength="122" x="273.5" y="600.8611">Estado Final (&#201;xito)</text><text fill="#000000" font-family="Verdana" font-size="13" lengthAdjust="spacing" textLength="186" x="273.5" y="618.5671">Atenci&#243;n realizada y registrada.</text><text fill="#000000" font-family="Verdana" font-size="13" lengthAdjust="spacing" textLength="195" x="273.5" y="636.2731">Dispara encuesta de satisfacci&#243;n.</text></g><rect fill="#FFCCCC" height="40" rx="12.5" ry="12.5" style="stroke:#000000;stroke-width:1.0;" width="93" x="874" y="593.4641"/><text fill="#000000" font-family="Verdana" font-size="14" lengthAdjust="spacing" textLength="83" x="879" y="618.8961">CANCELADO</text><g id="elem_GMN19"><path d="M799.5,705.9641 L799.5,769.0822 A0,0 0 0 0 799.5,769.0822 L1041.5,769.0822 A0,0 0 0 0 1041.5,769.0822 L1041.5,715.9641 L1031.5,705.9641 L924.5,705.9641 L920.5,633.5241 L916.5,705.9641 L799.5,705.9641 A0,0 0 0 0 799.5,705.9641 " fill="#FFFFFF" style="stroke:#000000;stroke-width:1.0;"/><path d="M1031.5,705.9641 L1031.5,715.9641 L1041.5,715.9641 L1031.5,705.9641 " fill="#FFFFFF" style="stroke:#000000;stroke-width:1.0;"/><text fill="#000000" font-family="Verdana" font-size="13" font-weight="bold" lengthAdjust="spacing" textLength="120" x="805.5" y="724.8611">Estado Final (Fallo)</text><text fill="#000000" font-family="Verdana" font-size="13" lengthAdjust="spacing" textLength="125" x="805.5" y="742.5671">Libera el slot horario.</text><text fill="#000000" font-family="Verdana" font-size="13" lengthAdjust="spacing" textLength="221" x="805.5" y="760.2731">Dispara b&#250;squeda en Lista de Espera.</text></g><rect fill="#FFCC99" height="40" rx="12.5" ry="12.5" style="stroke:#000000;stroke-width:1.0;" width="72" x="69.5" y="462.9641"/><text fill="#000000" font-family="Verdana" font-size="14" lengthAdjust="spacing" textLength="62" x="74.5" y="488.3961">AUSENTE</text><g id="elem_GMN23"><path d="M11,581.9641 L11,645.0822 A0,0 0 0 0 11,645.0822 L200,645.0822 A0,0 0 0 0 200,645.0822 L200,591.9641 L190,581.9641 L109.5,581.9641 L105.5,503.2041 L101.5,581.9641 L11,581.9641 A0,0 0 0 0 11,581.9641 " fill="#FFFFFF" style="stroke:#000000;stroke-width:1.0;"/><path d="M190,581.9641 L190,591.9641 L200,591.9641 L190,581.9641 " fill="#FFFFFF" style="stroke:#000000;stroke-width:1.0;"/><text fill="#000000" font-family="Verdana" font-size="13" font-weight="bold" lengthAdjust="spacing" textLength="120" x="17" y="600.8611">Estado Final (Fallo)</text><text fill="#000000" font-family="Verdana" font-size="13" lengthAdjust="spacing" textLength="146" x="17" y="618.5671">Paciente no se present&#243;.</text><text fill="#000000" font-family="Verdana" font-size="13" lengthAdjust="spacing" textLength="168" x="17" y="636.2731">Se registra para estad&#237;sticas.</text></g><ellipse cx="527.5" cy="71.9641" fill="#FFFFFF" rx="10" ry="10" style="stroke:#000000;stroke-width:1.0;"/><!--link *start* to PROGRAMADO--><g id="link_*start*_PROGRAMADO"><path d="M527.5,82.2641 C527.5,101.5741 527.5,140.3841 527.5,166.2041 " fill="none" id="*start*-to-PROGRAMADO" style="stroke:#000000;stroke-width:1.0;"/><polygon fill="#000000" points="527.5,172.2041,531.5,163.2041,527.5,167.2041,523.5,163.2041,527.5,172.2041" style="stroke:#000000;stroke-width:1.0;"/><text fill="#000000" font-family="Verdana" font-size="13" lengthAdjust="spacing" textLength="80" x="528.5" y="126.8611">Alta de Turno</text></g><!--link PROGRAMADO to CONFIRMADO--><g id="link_PROGRAMADO_CONFIRMADO"><path d="M527.5,212.6341 C527.5,241.2441 527.5,288.7941 527.5,317.3641 " fill="none" id="PROGRAMADO-to-CONFIRMADO" style="stroke:#000000;stroke-width:1.0;"/><polygon fill="#000000" points="527.5,323.3641,531.5,314.3641,527.5,318.3641,523.5,314.3641,527.5,323.3641" style="stroke:#000000;stroke-width:1.0;"/><text fill="#000000" font-family="Verdana" font-size="13" lengthAdjust="spacing" textLength="122" x="528.5" y="268.8611">Confirmar Asistencia</text><text fill="#000000" font-family="Verdana" font-size="13" lengthAdjust="spacing" textLength="103" x="538" y="286.5671">(Paciente/Admin)</text></g><!--link PROGRAMADO to CANCELADO--><g id="link_PROGRAMADO_CANCELADO"><path d="M566.49,212.5141 C577.27,217.0141 589.14,221.2841 600.5,223.9641 C695.66,246.4441 950.78,212.8541 1039.5,253.9641 C1119.35,290.9641 1144.4,314.4241 1177.5,395.9641 C1219.84,500.2941 1057.9656,568.4774 972.9256,596.6474 " fill="none" id="PROGRAMADO-to-CANCELADO" style="stroke:#000000;stroke-width:1.0;"/><polygon fill="#000000" points="967.23,598.5341,977.0313,599.5011,971.9764,596.9618,974.5156,591.9069,967.23,598.5341" style="stroke:#000000;stroke-width:1.0;"/><text fill="#000000" font-family="Verdana" font-size="13" lengthAdjust="spacing" textLength="51" x="1198" y="410.8611">Cancelar</text><text fill="#000000" font-family="Verdana" font-size="13" lengthAdjust="spacing" textLength="78" x="1184.5" y="428.5671">(Con Motivo)</text></g><!--link PROGRAMADO to CANCELADO--><g id="link_PROGRAMADO_CANCELADO"><path d="M571.25,212.4941 C580.83,216.4441 590.96,220.4741 600.5,223.9641 C734.87,273.1541 795.69,231.6641 907.5,320.9641 C976.97,376.4441 1015.44,417.6341 990.5,502.9641 C980.24,538.0441 958.7835,567.9668 941.5735,588.5968 " fill="none" id="PROGRAMADO-to-CANCELADO-1" style="stroke:#000000;stroke-width:1.0;"/><polygon fill="#000000" points="937.73,593.2041,946.5668,588.8555,940.9329,589.3647,940.4237,583.7308,937.73,593.2041" style="stroke:#000000;stroke-width:1.0;"/><text fill="#000000" font-family="Verdana" font-size="13" lengthAdjust="spacing" textLength="50" x="1052" y="410.8611">Timeout</text><text fill="#000000" font-family="Verdana" font-size="13" lengthAdjust="spacing" textLength="161" x="996.5" y="428.5671">(Sin confirmar X d&#237;as antes)</text></g><!--link PROGRAMADO to REAGENDADO--><g id="link_PROGRAMADO_REAGENDADO"><path d="M483.41,212.6241 C442.82,232.9541 385.14,269.3141 359.5,320.9641 C337.28,365.7241 334.91,396.8941 369.5,432.9641 C396.77,461.3941 499.6472,473.3896 565.9972,478.4296 " fill="none" id="PROGRAMADO-to-REAGENDADO" style="stroke:#000000;stroke-width:1.0;"/><polygon fill="#000000" points="571.98,478.8841,563.3088,474.2139,566.9944,478.5054,562.7029,482.1909,571.98,478.8841" style="stroke:#000000;stroke-width:1.0;"/><text fill="#000000" font-family="Verdana" font-size="13" lengthAdjust="spacing" textLength="96" x="360.5" y="339.8611">Solicitar Cambio</text><text fill="#000000" font-family="Verdana" font-size="13" lengthAdjust="spacing" textLength="78" x="369.5" y="357.5671">(Fecha/Hora)</text></g><!--link CONFIRMADO to COMPLETO--><g id="link_CONFIRMADO_COMPLETO"><path d="M474.67,352.3141 C446.63,359.2041 413.85,372.0541 393.5,395.9641 C377.58,414.6641 374.5857,437.8641 374.5357,456.9541 " fill="none" id="CONFIRMADO-to-COMPLETO" style="stroke:#000000;stroke-width:1.0;"/><polygon fill="#000000" points="374.52,462.9541,378.5436,453.9646,374.5331,457.9541,370.5436,453.9437,374.52,462.9541" style="stroke:#000000;stroke-width:1.0;"/><text fill="#000000" font-family="Verdana" font-size="13" lengthAdjust="spacing" textLength="110" x="394.5" y="410.8611">Registrar Atenci&#243;n</text><text fill="#000000" font-family="Verdana" font-size="13" lengthAdjust="spacing" textLength="52" x="423.5" y="428.5671">(M&#233;dico)</text></g><!--link CONFIRMADO to CANCELADO--><g id="link_CONFIRMADO_CANCELADO"><path d="M580.03,361.1941 C586.22,362.9241 592.48,364.5541 598.5,365.9641 C677.48,384.4241 710.56,351.6741 778.5,395.9641 C788.29,402.3441 872.7229,536.2006 905.2429,588.0706 " fill="none" id="CONFIRMADO-to-CANCELADO" style="stroke:#000000;stroke-width:1.0;"/><polygon fill="#000000" points="908.43,593.1541,907.0383,583.4041,905.7741,588.9178,900.2603,587.6536,908.43,593.1541" style="stroke:#000000;stroke-width:1.0;"/><text fill="#000000" font-family="Verdana" font-size="13" lengthAdjust="spacing" textLength="51" x="890" y="479.3611">Cancelar</text><text fill="#000000" font-family="Verdana" font-size="13" lengthAdjust="spacing" textLength="132" x="849.5" y="497.0671">(Urgencia/Imprevisto)</text></g><!--link CONFIRMADO to REAGENDADO--><g id="link_CONFIRMADO_REAGENDADO"><path d="M580.19,360.3641 C623.86,373.8041 679.31,391.5341 682.5,395.9641 C692.12,409.3041 689.42,418.0441 682.5,432.9641 C676.95,444.9241 671.6326,451.3518 661.4326,459.2118 " fill="none" id="CONFIRMADO-to-REAGENDADO" style="stroke:#000000;stroke-width:1.0;"/><polygon fill="#000000" points="656.68,462.8741,666.2505,460.549,660.6405,459.8222,661.3674,454.2122,656.68,462.8741" style="stroke:#000000;stroke-width:1.0;"/><text fill="#000000" font-family="Verdana" font-size="13" lengthAdjust="spacing" textLength="80" x="689.5" y="419.8611">Reprogramar</text></g><!--link REAGENDADO to CONFIRMADO--><g id="link_REAGENDADO_CONFIRMADO"><path d="M571.99,470.0241 C552.36,462.7341 532.05,451.1641 520.5,432.9641 C507.29,412.1441 511.4282,388.4647 517.8082,369.3747 " fill="none" id="REAGENDADO-to-CONFIRMADO" style="stroke:#000000;stroke-width:1.0;"/><polygon fill="#000000" points="519.71,363.6841,513.0635,370.9521,518.1251,368.4263,520.651,373.4879,519.71,363.6841" style="stroke:#000000;stroke-width:1.0;"/><text fill="#000000" font-family="Verdana" font-size="13" lengthAdjust="spacing" textLength="152" x="521.5" y="419.8611">Confirmar Nuevo Horario</text></g><!--link CONFIRMADO to AUSENTE--><g id="link_CONFIRMADO_AUSENTE"><path d="M474.92,355.6541 C458.48,359.0741 440.25,362.7641 423.5,365.9641 C347.71,380.4441 324.94,369.3941 252.5,395.9641 C207.11,412.6141 164.6535,439.6306 136.3435,459.4706 " fill="none" id="CONFIRMADO-to-AUSENTE" style="stroke:#000000;stroke-width:1.0;"/><polygon fill="#000000" points="131.43,462.9141,141.0959,461.0246,135.5246,460.0446,136.5046,454.4732,131.43,462.9141" style="stroke:#000000;stroke-width:1.0;"/><text fill="#000000" font-family="Verdana" font-size="13" lengthAdjust="spacing" textLength="115" x="253.5" y="410.8611">Marcar Inasistencia</text><text fill="#000000" font-family="Verdana" font-size="13" lengthAdjust="spacing" textLength="68" x="277" y="428.5671">(Fin del d&#237;a)</text></g><!--link REAGENDADO to CANCELADO--><g id="link_REAGENDADO_CANCELADO"><path d="M640.55,503.0841 C654.41,518.4241 675.74,539.3941 698.5,551.9641 C754.45,582.8641 821.2576,597.8124 867.9376,605.3924 " fill="none" id="REAGENDADO-to-CANCELADO" style="stroke:#000000;stroke-width:1.0;"/><polygon fill="#000000" points="873.86,606.3541,865.6175,600.9633,868.9246,605.5527,864.3352,608.8598,873.86,606.3541" style="stroke:#000000;stroke-width:1.0;"/><text fill="#000000" font-family="Verdana" font-size="13" lengthAdjust="spacing" textLength="100" x="699.5" y="547.8611">Cancelar Cambio</text></g><!--link PROGRAMADO to AUSENTE--><g id="link_PROGRAMADO_AUSENTE"><path d="M472.73,197.9641 C393.78,207.3141 248.11,235.7141 162.5,320.9641 C122.79,360.5041 111.3008,423.4495 107.6608,456.8095 " fill="none" id="PROGRAMADO-to-AUSENTE" style="stroke:#000000;stroke-width:1.0;"/><polygon fill="#000000" points="107.01,462.7741,111.9626,454.2611,107.5523,457.8036,104.0098,453.3933,107.01,462.7741" style="stroke:#000000;stroke-width:1.0;"/><text fill="#000000" font-family="Verdana" font-size="13" lengthAdjust="spacing" textLength="54" x="222.5" y="339.8611">No Show</text><text fill="#000000" font-family="Verdana" font-size="13" lengthAdjust="spacing" textLength="172" x="163.5" y="357.5671">(Si no se confirm&#243; ni cancel&#243;)</text></g><!--SRC=[XPJDRjf04CVlVegfScX08ZadXqeMc0GfG0IqgjJsCAmN6CdUTNRNjEaRz35wx24dRhdwnJfh6p0VJRbWUxv-C_FVVUTMCfMG9KWgM54iGQQPUuPOMc4eSwHL43XoYOIXZcMYsG8zdP8Y3HteagW-VQ8O-J-1MMwK3WBhq4bud8pl9k4mx8q3fVdTq7BbG2-Q1k1VknrnGAnXe4WG9bVjTlazIi3vV60vLbffrWYPD1guK8Q2f7AoTCJYLG7xhH24LWiogSzcSq1Brad5IQy2gMBm65kwxdZK7qpEq3KCDSMs61Xqj21HR8wJUyVB7lkOSXu9mffVKFcfG5oyeAt8bhd165idC9Cel8j6lHtCN3kdKq_JiFWYNKpdLDPOIB72wvKsTVc9VCf96Wagb-lz80GL6tMk- -7ZGpGRmuKGYuKGnsMtziC5zKbX0fV5hn_aTAjUKrWEWQlmaZ2XdzmWFFFpaiVZkwtmUcGpD0ZicqlEvbkmF4wxGF4lnd3KZHwuSxZmY6SWjmvdAVkO93l81vfBNpq1csW7Vco6z27Ql7YrJxcCFIG7r92HPSsTqK_uSHgDPb75TdDpp5QR_q_sk1LN9VJCArsvObEnJULkab3DpsSgNgmZWRP9zHuwdGxC32hBfqWhQVs78FZI_iOF7ng73cuXJAhcwlFQi7dN_GbWrsuj90FXJl1VrUKM-pgC-JfedQJOxOupe18oGSDHd8nl4aThVHAn5pg7J7N2JJWkMWcUG_kbtkzvSQqWQ11MmBMQR_aOLDCoUrroyB3u4vFWeiU1vp4_ccNPv_KWvNsiEU5fw07lH6P6Bmtoc8xzjZgvXI4QmLm3XSr1iYRAgzFV4jnP8-qRgnZn6TTmNwdu9EPCK_KSlKmE988vwxNuNQe9D6JQG0cNubiRdL4gTUwOVihqOeVrkRxha8LXJpQydyH8mtIblvVnjUxh97orAW9HKXURLl0N]--></g></svg>